STARTFONT 2.1
COMMENT
COMMENT Converted from OpenType font "PressStart2P-Regular.ttf" by "otf2bdf 3.0".
COMMENT
FONT -FreeType-Press Start 2P-Medium-R-Normal--19-140-100-100-M-163-ISO10646-1
SIZE 14 100 100
FONTBOUNDINGBOX 34 26 -15 -7
STARTPROPERTIES 19
FOUNDRY "FreeType"
FAMILY_NAME "Press Start 2P"
WEIGHT_NAME "Medium"
SLANT "R"
SETWIDTH_NAME "Normal"
ADD_STYLE_NAME ""
PIXEL_SIZE 19
POINT_SIZE 140
RESOLUTION_X 100
RESOLUTION_Y 100
SPACING "M"
AVERAGE_WIDTH 163
CHARSET_REGISTRY "ISO10646"
CHARSET_ENCODING "1"
FONT_ASCENT 19
FONT_DESCENT 0
COPYRIGHT "Copyright 2012 The Press Start 2P Project Authors (cody@zone38.net), with Reserved Font Name "Press Start 2P""
_OTF_FONTFILE "PressStart2P-Regular.ttf"
_OTF_PSNAME "PressStart2P-Regular"
ENDPROPERTIES
CHARS 656
STARTCHAR 0000
ENCODING 0
SWIDTH 0 0
DWIDTH 0 0
BBX 0 0 0 0
BITMAP
ENDCHAR
STARTCHAR 000D
ENCODING 13
SWIDTH 977 0
DWIDTH 19 0
BBX 0 0 0 0
BITMAP
ENDCHAR
STARTCHAR 0020
ENCODING 32
SWIDTH 977 0
DWIDTH 19 0
BBX 0 0 0 0
BITMAP
ENDCHAR
STARTCHAR 0021
ENCODING 33
SWIDTH 977 0
DWIDTH 19 0
BBX 7 17 5 2
BITMAP
FE
FE
FE
FE
FE
FE
FE
F8
F8
F8
F8
F8
00
00
F8
F8
F8
ENDCHAR
STARTCHAR 0022
ENCODING 34
SWIDTH 977 0
DWIDTH 19 0
BBX 13 7 2 12
BITMAP
F8F8
F8F8
F8F8
F8F8
F8F8
F8F8
F8F8
ENDCHAR
STARTCHAR 0023
ENCODING 35
SWIDTH 977 0
DWIDTH 19 0
BBX 17 17 0 2
BITMAP
3E3E00
3E3E00
FFFF80
FFFF80
3E3E00
3E3E00
3E3E00
3E3E00
3E3E00
3E3E00
3E3E00
3E3E00
FFFF80
FFFF80
3E3E00
3E3E00
3E3E00
ENDCHAR
STARTCHAR 0024
ENCODING 36
SWIDTH 977 0
DWIDTH 19 0
BBX 17 17 0 2
BITMAP
01C000
01C000
3FFE00
3FFE00
F9C000
F9C000
F9C000
3FFE00
3FFE00
01CF80
01CF80
01CF80
FFFE00
FFFE00
01C000
01C000
01C000
ENDCHAR
STARTCHAR 0025
ENCODING 37
SWIDTH 977 0
DWIDTH 19 0
BBX 17 17 0 2
BITMAP
3E0180
3E0180
C60E00
C60E00
F83000
F83000
F83000
01C000
01C000
060F80
060F80
060F80
383180
383180
C03E00
C03E00
C03E00
ENDCHAR
STARTCHAR 0026
ENCODING 38
SWIDTH 977 0
DWIDTH 19 0
BBX 17 17 0 2
BITMAP
3FC000
3FC000
F9F000
F9F000
F9F000
F9F000
F9F000
3FC000
3FC000
F9F180
F9F180
F9F180
F83E00
F83E00
3FFF80
3FFF80
3FFF80
ENDCHAR
STARTCHAR 0027
ENCODING 39
SWIDTH 977 0
DWIDTH 19 0
BBX 5 7 5 12
BITMAP
F8
F8
F8
F8
F8
F8
F8
ENDCHAR
STARTCHAR 0028
ENCODING 40
SWIDTH 977 0
DWIDTH 19 0
BBX 10 17 5 2
BITMAP
07C0
07C0
3E00
3E00
F800
F800
F800
F800
F800
F800
F800
F800
3E00
3E00
07C0
07C0
07C0
ENDCHAR
STARTCHAR 0029
ENCODING 41
SWIDTH 977 0
DWIDTH 19 0
BBX 10 17 2 2
BITMAP
F800
F800
1F00
1F00
07C0
07C0
07C0
07C0
07C0
07C0
07C0
07C0
1F00
1F00
F800
F800
F800
ENDCHAR
STARTCHAR 002A
ENCODING 42
SWIDTH 977 0
DWIDTH 19 0
BBX 17 12 0 5
BITMAP
3E3E00
3E3E00
07F000
07F000
07F000
FFFF80
FFFF80
07F000
07F000
07F000
3E3E00
3E3E00
ENDCHAR
STARTCHAR 002B
ENCODING 43
SWIDTH 977 0
DWIDTH 19 0
BBX 15 12 2 5
BITMAP
07C0
07C0
07C0
07C0
07C0
FFFE
FFFE
07C0
07C0
07C0
07C0
07C0
ENDCHAR
STARTCHAR 002C
ENCODING 44
SWIDTH 977 0
DWIDTH 19 0
BBX 8 7 2 0
BITMAP
1F
1F
1F
1F
1F
F8
F8
ENDCHAR
STARTCHAR 002D
ENCODING 45
SWIDTH 977 0
DWIDTH 19 0
BBX 15 2 2 10
BITMAP
FFFE
FFFE
ENDCHAR
STARTCHAR 002E
ENCODING 46
SWIDTH 977 0
DWIDTH 19 0
BBX 5 5 5 2
BITMAP
F8
F8
F8
F8
F8
ENDCHAR
STARTCHAR 002F
ENCODING 47
SWIDTH 977 0
DWIDTH 19 0
BBX 17 17 0 2
BITMAP
000180
000180
000E00
000E00
003000
003000
003000
01C000
01C000
060000
060000
060000
380000
380000
C00000
C00000
C00000
ENDCHAR
STARTCHAR 0030
ENCODING 48
SWIDTH 977 0
DWIDTH 19 0
BBX 17 17 0 2
BITMAP
07F000
07F000
383E00
383E00
F80F80
F80F80
F80F80
F80F80
F80F80
F80F80
F80F80
F80F80
3E0E00
3E0E00
07F000
07F000
07F000
ENDCHAR
STARTCHAR 0031
ENCODING 49
SWIDTH 977 0
DWIDTH 19 0
BBX 15 17 2 2
BITMAP
07C0
07C0
1FC0
1FC0
07C0
07C0
07C0
07C0
07C0
07C0
07C0
07C0
07C0
07C0
FFFE
FFFE
FFFE
ENDCHAR
STARTCHAR 0032
ENCODING 50
SWIDTH 977 0
DWIDTH 19 0
BBX 17 17 0 2
BITMAP
3FFE00
3FFE00
F80F80
F80F80
003F80
003F80
003F80
07FE00
07FE00
3FF000
3FF000
3FF000
FE0000
FE0000
FFFF80
FFFF80
FFFF80
ENDCHAR
STARTCHAR 0033
ENCODING 51
SWIDTH 977 0
DWIDTH 19 0
BBX 17 17 0 2
BITMAP
3FFF80
3FFF80
003E00
003E00
01F000
01F000
01F000
07FE00
07FE00
000F80
000F80
000F80
F80F80
F80F80
3FFE00
3FFE00
3FFE00
ENDCHAR
STARTCHAR 0034
ENCODING 52
SWIDTH 977 0
DWIDTH 19 0
BBX 17 17 0 2
BITMAP
01FE00
01FE00
07FE00
07FE00
3E3E00
3E3E00
3E3E00
F83E00
F83E00
FFFF80
FFFF80
FFFF80
003E00
003E00
003E00
003E00
003E00
ENDCHAR
STARTCHAR 0035
ENCODING 53
SWIDTH 977 0
DWIDTH 19 0
BBX 17 17 0 2
BITMAP
FFFE00
FFFE00
F80000
F80000
FFFE00
FFFE00
FFFE00
000F80
000F80
000F80
000F80
000F80
F80F80
F80F80
3FFE00
3FFE00
3FFE00
ENDCHAR
STARTCHAR 0036
ENCODING 54
SWIDTH 977 0
DWIDTH 19 0
BBX 17 17 0 2
BITMAP
07FE00
07FE00
3E0000
3E0000
F80000
F80000
F80000
FFFE00
FFFE00
F80F80
F80F80
F80F80
F80F80
F80F80
3FFE00
3FFE00
3FFE00
ENDCHAR
STARTCHAR 0037
ENCODING 55
SWIDTH 977 0
DWIDTH 19 0
BBX 17 17 0 2
BITMAP
FFFF80
FFFF80
F80F80
F80F80
003E00
003E00
003E00
01F000
01F000
07C000
07C000
07C000
07C000
07C000
07C000
07C000
07C000
ENDCHAR
STARTCHAR 0038
ENCODING 56
SWIDTH 977 0
DWIDTH 19 0
BBX 17 17 0 2
BITMAP
3FF000
3FF000
F80E00
F80E00
FE0E00
FE0E00
FE0E00
3FF000
3FF000
C1FF80
C1FF80
C1FF80
C00F80
C00F80
3FFE00
3FFE00
3FFE00
ENDCHAR
STARTCHAR 0039
ENCODING 57
SWIDTH 977 0
DWIDTH 19 0
BBX 17 17 0 2
BITMAP
3FFE00
3FFE00
F80F80
F80F80
F80F80
F80F80
F80F80
3FFF80
3FFF80
000F80
000F80
000F80
003E00
003E00
3FF000
3FF000
3FF000
ENDCHAR
STARTCHAR 003A
ENCODING 58
SWIDTH 977 0
DWIDTH 19 0
BBX 5 12 5 5
BITMAP
F8
F8
F8
F8
F8
00
00
F8
F8
F8
F8
F8
ENDCHAR
STARTCHAR 003B
ENCODING 59
SWIDTH 977 0
DWIDTH 19 0
BBX 8 15 2 2
BITMAP
1F
1F
1F
1F
1F
00
00
1F
1F
1F
1F
1F
F8
F8
F8
ENDCHAR
STARTCHAR 003C
ENCODING 60
SWIDTH 977 0
DWIDTH 19 0
BBX 13 17 2 2
BITMAP
00F8
00F8
07C0
07C0
1F00
1F00
1F00
F800
F800
1F00
1F00
1F00
07C0
07C0
00F8
00F8
00F8
ENDCHAR
STARTCHAR 003D
ENCODING 61
SWIDTH 977 0
DWIDTH 19 0
BBX 17 8 0 7
BITMAP
FFFF80
FFFF80
FFFF80
000000
000000
FFFF80
FFFF80
FFFF80
ENDCHAR
STARTCHAR 003E
ENCODING 62
SWIDTH 977 0
DWIDTH 19 0
BBX 13 17 2 2
BITMAP
F800
F800
1F00
1F00
07C0
07C0
07C0
00F8
00F8
07C0
07C0
07C0
1F00
1F00
F800
F800
F800
ENDCHAR
STARTCHAR 003F
ENCODING 63
SWIDTH 977 0
DWIDTH 19 0
BBX 17 17 0 2
BITMAP
3FFE00
3FFE00
FFFF80
FFFF80
F80F80
F80F80
F80F80
003E00
003E00
07F000
07F000
07F000
000000
000000
07F000
07F000
07F000
ENDCHAR
STARTCHAR 0040
ENCODING 64
SWIDTH 977 0
DWIDTH 19 0
BBX 17 17 0 2
BITMAP
3FFE00
3FFE00
C00180
C00180
C7F180
C7F180
C7F180
C63180
C63180
C7FF80
C7FF80
C7FF80
C00000
C00000
3FFE00
3FFE00
3FFE00
ENDCHAR
STARTCHAR 0041
ENCODING 65
SWIDTH 977 0
DWIDTH 19 0
BBX 17 17 0 2
BITMAP
07F000
07F000
3E3E00
3E3E00
F80F80
F80F80
F80F80
F80F80
F80F80
FFFF80
FFFF80
FFFF80
F80F80
F80F80
F80F80
F80F80
F80F80
ENDCHAR
STARTCHAR 0042
ENCODING 66
SWIDTH 977 0
DWIDTH 19 0
BBX 17 17 0 2
BITMAP
FFFE00
FFFE00
F80F80
F80F80
F80F80
F80F80
F80F80
FFFE00
FFFE00
F80F80
F80F80
F80F80
F80F80
F80F80
FFFE00
FFFE00
FFFE00
ENDCHAR
STARTCHAR 0043
ENCODING 67
SWIDTH 977 0
DWIDTH 19 0
BBX 17 17 0 2
BITMAP
07FE00
07FE00
3E0F80
3E0F80
F80000
F80000
F80000
F80000
F80000
F80000
F80000
F80000
3E0F80
3E0F80
07FE00
07FE00
07FE00
ENDCHAR
STARTCHAR 0044
ENCODING 68
SWIDTH 977 0
DWIDTH 19 0
BBX 17 17 0 2
BITMAP
FFF000
FFF000
F83E00
F83E00
F80F80
F80F80
F80F80
F80F80
F80F80
F80F80
F80F80
F80F80
F83E00
F83E00
FFF000
FFF000
FFF000
ENDCHAR
STARTCHAR 0045
ENCODING 69
SWIDTH 977 0
DWIDTH 19 0
BBX 17 17 0 2
BITMAP
FFFF80
FFFF80
F80000
F80000
F80000
F80000
F80000
FFFE00
FFFE00
F80000
F80000
F80000
F80000
F80000
FFFF80
FFFF80
FFFF80
ENDCHAR
STARTCHAR 0046
ENCODING 70
SWIDTH 977 0
DWIDTH 19 0
BBX 17 17 0 2
BITMAP
FFFF80
FFFF80
F80000
F80000
F80000
F80000
F80000
FFFE00
FFFE00
F80000
F80000
F80000
F80000
F80000
F80000
F80000
F80000
ENDCHAR
STARTCHAR 0047
ENCODING 71
SWIDTH 977 0
DWIDTH 19 0
BBX 17 17 0 2
BITMAP
07FF80
07FF80
3E0000
3E0000
F80000
F80000
F80000
F83F80
F83F80
F80F80
F80F80
F80F80
3E0F80
3E0F80
07FF80
07FF80
07FF80
ENDCHAR
STARTCHAR 0048
ENCODING 72
SWIDTH 977 0
DWIDTH 19 0
BBX 17 17 0 2
BITMAP
F80F80
F80F80
F80F80
F80F80
F80F80
F80F80
F80F80
FFFF80
FFFF80
F80F80
F80F80
F80F80
F80F80
F80F80
F80F80
F80F80
F80F80
ENDCHAR
STARTCHAR 0049
ENCODING 73
SWIDTH 977 0
DWIDTH 19 0
BBX 15 17 2 2
BITMAP
FFFE
FFFE
07C0
07C0
07C0
07C0
07C0
07C0
07C0
07C0
07C0
07C0
07C0
07C0
FFFE
FFFE
FFFE
ENDCHAR
STARTCHAR 004A
ENCODING 74
SWIDTH 977 0
DWIDTH 19 0
BBX 17 17 0 2
BITMAP
000F80
000F80
000F80
000F80
000F80
000F80
000F80
000F80
000F80
000F80
000F80
000F80
F80F80
F80F80
3FFE00
3FFE00
3FFE00
ENDCHAR
STARTCHAR 004B
ENCODING 75
SWIDTH 977 0
DWIDTH 19 0
BBX 17 17 0 2
BITMAP
F80F80
F80F80
F83E00
F83E00
F9F000
F9F000
F9F000
FFC000
FFC000
FFF000
FFF000
FFF000
F9FE00
F9FE00
F83F80
F83F80
F83F80
ENDCHAR
STARTCHAR 004C
ENCODING 76
SWIDTH 977 0
DWIDTH 19 0
BBX 15 17 2 2
BITMAP
F800
F800
F800
F800
F800
F800
F800
F800
F800
F800
F800
F800
F800
F800
FFFE
FFFE
FFFE
ENDCHAR
STARTCHAR 004D
ENCODING 77
SWIDTH 977 0
DWIDTH 19 0
BBX 17 17 0 2
BITMAP
F80F80
F80F80
FE3F80
FE3F80
FFFF80
FFFF80
FFFF80
F9CF80
F9CF80
F9CF80
F9CF80
F9CF80
F80F80
F80F80
F80F80
F80F80
F80F80
ENDCHAR
STARTCHAR 004E
ENCODING 78
SWIDTH 977 0
DWIDTH 19 0
BBX 17 17 0 2
BITMAP
F80F80
F80F80
FE0F80
FE0F80
FFCF80
FFCF80
FFCF80
F9FF80
F9FF80
F83F80
F83F80
F83F80
F80F80
F80F80
F80F80
F80F80
F80F80
ENDCHAR
STARTCHAR 004F
ENCODING 79
SWIDTH 977 0
DWIDTH 19 0
BBX 17 17 0 2
BITMAP
3FFE00
3FFE00
F80F80
F80F80
F80F80
F80F80
F80F80
F80F80
F80F80
F80F80
F80F80
F80F80
F80F80
F80F80
3FFE00
3FFE00
3FFE00
ENDCHAR
STARTCHAR 0050
ENCODING 80
SWIDTH 977 0
DWIDTH 19 0
BBX 17 17 0 2
BITMAP
FFFE00
FFFE00
F80F80
F80F80
F80F80
F80F80
F80F80
F80F80
F80F80
FFFE00
FFFE00
FFFE00
F80000
F80000
F80000
F80000
F80000
ENDCHAR
STARTCHAR 0051
ENCODING 81
SWIDTH 977 0
DWIDTH 19 0
BBX 17 17 0 2
BITMAP
3FFE00
3FFE00
F80F80
F80F80
F80F80
F80F80
F80F80
F80F80
F80F80
F9FF80
F9FF80
F9FF80
F83E00
F83E00
3FF180
3FF180
3FF180
ENDCHAR
STARTCHAR 0052
ENCODING 82
SWIDTH 977 0
DWIDTH 19 0
BBX 17 17 0 2
BITMAP
FFFE00
FFFE00
F80F80
F80F80
F80F80
F80F80
F80F80
F83F80
F83F80
FFF000
FFF000
FFF000
F9FE00
F9FE00
F83F80
F83F80
F83F80
ENDCHAR
STARTCHAR 0053
ENCODING 83
SWIDTH 977 0
DWIDTH 19 0
BBX 17 17 0 2
BITMAP
3FFE00
3FFE00
F80F80
F80F80
F80000
F80000
F80000
3FFE00
3FFE00
000F80
000F80
000F80
F80F80
F80F80
3FFE00
3FFE00
3FFE00
ENDCHAR
STARTCHAR 0054
ENCODING 84
SWIDTH 977 0
DWIDTH 19 0
BBX 15 17 2 2
BITMAP
FFFE
FFFE
07C0
07C0
07C0
07C0
07C0
07C0
07C0
07C0
07C0
07C0
07C0
07C0
07C0
07C0
07C0
ENDCHAR
STARTCHAR 0055
ENCODING 85
SWIDTH 977 0
DWIDTH 19 0
BBX 17 17 0 2
BITMAP
F80F80
F80F80
F80F80
F80F80
F80F80
F80F80
F80F80
F80F80
F80F80
F80F80
F80F80
F80F80
F80F80
F80F80
3FFE00
3FFE00
3FFE00
ENDCHAR
STARTCHAR 0056
ENCODING 86
SWIDTH 977 0
DWIDTH 19 0
BBX 17 17 0 2
BITMAP
F80F80
F80F80
F80F80
F80F80
F80F80
F80F80
F80F80
FE3F80
FE3F80
3FFE00
3FFE00
3FFE00
07F000
07F000
01C000
01C000
01C000
ENDCHAR
STARTCHAR 0057
ENCODING 87
SWIDTH 977 0
DWIDTH 19 0
BBX 17 17 0 2
BITMAP
F9CF80
F9CF80
F9CF80
F9CF80
F9CF80
F9CF80
F9CF80
F9CF80
F9CF80
FFFF80
FFFF80
FFFF80
FE3F80
FE3F80
380E00
380E00
380E00
ENDCHAR
STARTCHAR 0058
ENCODING 88
SWIDTH 977 0
DWIDTH 19 0
BBX 17 17 0 2
BITMAP
F80F80
F80F80
F80F80
F80F80
3E3E00
3E3E00
3E3E00
07F000
07F000
3E3E00
3E3E00
3E3E00
F80F80
F80F80
F80F80
F80F80
F80F80
ENDCHAR
STARTCHAR 0059
ENCODING 89
SWIDTH 977 0
DWIDTH 19 0
BBX 15 17 2 2
BITMAP
F83E
F83E
F83E
F83E
F83E
F83E
F83E
1FF8
1FF8
07C0
07C0
07C0
07C0
07C0
07C0
07C0
07C0
ENDCHAR
STARTCHAR 005A
ENCODING 90
SWIDTH 977 0
DWIDTH 19 0
BBX 17 17 0 2
BITMAP
FFFF80
FFFF80
003F80
003F80
01FE00
01FE00
01FE00
07F000
07F000
3FC000
3FC000
3FC000
FE0000
FE0000
FFFF80
FFFF80
FFFF80
ENDCHAR
STARTCHAR 005B
ENCODING 91
SWIDTH 977 0
DWIDTH 19 0
BBX 10 17 5 2
BITMAP
FFC0
FFC0
F800
F800
F800
F800
F800
F800
F800
F800
F800
F800
F800
F800
FFC0
FFC0
FFC0
ENDCHAR
STARTCHAR 005C
ENCODING 92
SWIDTH 977 0
DWIDTH 19 0
BBX 17 17 0 2
BITMAP
C00000
C00000
380000
380000
060000
060000
060000
01C000
01C000
003000
003000
003000
000E00
000E00
000180
000180
000180
ENDCHAR
STARTCHAR 005D
ENCODING 93
SWIDTH 977 0
DWIDTH 19 0
BBX 10 17 2 2
BITMAP
FFC0
FFC0
07C0
07C0
07C0
07C0
07C0
07C0
07C0
07C0
07C0
07C0
07C0
07C0
FFC0
FFC0
FFC0
ENDCHAR
STARTCHAR 005E
ENCODING 94
SWIDTH 977 0
DWIDTH 19 0
BBX 13 4 2 15
BITMAP
1FC0
1FC0
F8F8
F8F8
ENDCHAR
STARTCHAR 005F
ENCODING 95
SWIDTH 977 0
DWIDTH 19 0
BBX 17 2 0 0
BITMAP
FFFF80
FFFF80
ENDCHAR
STARTCHAR 0060
ENCODING 96
SWIDTH 977 0
DWIDTH 19 0
BBX 5 4 7 15
BITMAP
E0
E0
18
18
ENDCHAR
STARTCHAR 0061
ENCODING 97
SWIDTH 977 0
DWIDTH 19 0
BBX 17 13 0 2
BITMAP
3FFE00
3FFE00
3FFE00
000F80
000F80
3FFF80
3FFF80
3FFF80
F80F80
F80F80
3FFF80
3FFF80
3FFF80
ENDCHAR
STARTCHAR 0062
ENCODING 98
SWIDTH 977 0
DWIDTH 19 0
BBX 17 17 0 2
BITMAP
F80000
F80000
F80000
F80000
FFFE00
FFFE00
FFFE00
F80F80
F80F80
F80F80
F80F80
F80F80
F80F80
F80F80
3FFE00
3FFE00
3FFE00
ENDCHAR
STARTCHAR 0063
ENCODING 99
SWIDTH 977 0
DWIDTH 19 0
BBX 17 13 0 2
BITMAP
3FFF80
3FFF80
3FFF80
F80000
F80000
F80000
F80000
F80000
F80000
F80000
3FFF80
3FFF80
3FFF80
ENDCHAR
STARTCHAR 0064
ENCODING 100
SWIDTH 977 0
DWIDTH 19 0
BBX 17 17 0 2
BITMAP
000F80
000F80
000F80
000F80
3FFF80
3FFF80
3FFF80
F80F80
F80F80
F80F80
F80F80
F80F80
F80F80
F80F80
3FFF80
3FFF80
3FFF80
ENDCHAR
STARTCHAR 0065
ENCODING 101
SWIDTH 977 0
DWIDTH 19 0
BBX 17 13 0 2
BITMAP
3FFE00
3FFE00
3FFE00
F80F80
F80F80
FFFF80
FFFF80
FFFF80
F80000
F80000
3FFE00
3FFE00
3FFE00
ENDCHAR
STARTCHAR 0066
ENCODING 102
SWIDTH 977 0
DWIDTH 19 0
BBX 15 17 2 2
BITMAP
00FE
00FE
07C0
07C0
FFFE
FFFE
FFFE
07C0
07C0
07C0
07C0
07C0
07C0
07C0
07C0
07C0
07C0
ENDCHAR
STARTCHAR 0067
ENCODING 103
SWIDTH 977 0
DWIDTH 19 0
BBX 17 15 0 0
BITMAP
3FFF80
3FFF80
3FFF80
F80F80
F80F80
F80F80
F80F80
F80F80
3FFF80
3FFF80
000F80
000F80
000F80
3FFE00
3FFE00
ENDCHAR
STARTCHAR 0068
ENCODING 104
SWIDTH 977 0
DWIDTH 19 0
BBX 17 17 0 2
BITMAP
F80000
F80000
F80000
F80000
FFFE00
FFFE00
FFFE00
F80F80
F80F80
F80F80
F80F80
F80F80
F80F80
F80F80
F80F80
F80F80
F80F80
ENDCHAR
STARTCHAR 0069
ENCODING 105
SWIDTH 977 0
DWIDTH 19 0
BBX 15 17 2 2
BITMAP
07C0
07C0
0000
0000
1FC0
1FC0
1FC0
07C0
07C0
07C0
07C0
07C0
07C0
07C0
FFFE
FFFE
FFFE
ENDCHAR
STARTCHAR 006A
ENCODING 106
SWIDTH 977 0
DWIDTH 19 0
BBX 13 19 2 0
BITMAP
00F8
00F8
0000
0000
07F8
07F8
07F8
00F8
00F8
00F8
00F8
00F8
00F8
00F8
00F8
00F8
00F8
FFC0
FFC0
ENDCHAR
STARTCHAR 006B
ENCODING 107
SWIDTH 977 0
DWIDTH 19 0
BBX 17 17 0 2
BITMAP
F80000
F80000
F80000
F80000
F80F80
F80F80
F80F80
F83E00
F83E00
FFF000
FFF000
FFF000
F83E00
F83E00
F80F80
F80F80
F80F80
ENDCHAR
STARTCHAR 006C
ENCODING 108
SWIDTH 977 0
DWIDTH 19 0
BBX 15 17 2 2
BITMAP
1FC0
1FC0
07C0
07C0
07C0
07C0
07C0
07C0
07C0
07C0
07C0
07C0
07C0
07C0
FFFE
FFFE
FFFE
ENDCHAR
STARTCHAR 006D
ENCODING 109
SWIDTH 977 0
DWIDTH 19 0
BBX 17 13 0 2
BITMAP
FFFE00
FFFE00
FFFE00
C7CF80
C7CF80
C7CF80
C7CF80
C7CF80
C7CF80
C7CF80
C7CF80
C7CF80
C7CF80
ENDCHAR
STARTCHAR 006E
ENCODING 110
SWIDTH 977 0
DWIDTH 19 0
BBX 17 13 0 2
BITMAP
FFFE00
FFFE00
FFFE00
F80F80
F80F80
F80F80
F80F80
F80F80
F80F80
F80F80
F80F80
F80F80
F80F80
ENDCHAR
STARTCHAR 006F
ENCODING 111
SWIDTH 977 0
DWIDTH 19 0
BBX 17 13 0 2
BITMAP
3FFE00
3FFE00
3FFE00
F80F80
F80F80
F80F80
F80F80
F80F80
F80F80
F80F80
3FFE00
3FFE00
3FFE00
ENDCHAR
STARTCHAR 0070
ENCODING 112
SWIDTH 977 0
DWIDTH 19 0
BBX 17 15 0 0
BITMAP
FFFE00
FFFE00
FFFE00
F80F80
F80F80
F80F80
F80F80
F80F80
FFFE00
FFFE00
F80000
F80000
F80000
F80000
F80000
ENDCHAR
STARTCHAR 0071
ENCODING 113
SWIDTH 977 0
DWIDTH 19 0
BBX 17 15 0 0
BITMAP
3FFF80
3FFF80
3FFF80
F80F80
F80F80
F80F80
F80F80
F80F80
3FFF80
3FFF80
000F80
000F80
000F80
000F80
000F80
ENDCHAR
STARTCHAR 0072
ENCODING 114
SWIDTH 977 0
DWIDTH 19 0
BBX 15 13 2 2
BITMAP
F8FE
F8FE
F8FE
FF00
FF00
F800
F800
F800
F800
F800
F800
F800
F800
ENDCHAR
STARTCHAR 0073
ENCODING 115
SWIDTH 977 0
DWIDTH 19 0
BBX 17 13 0 2
BITMAP
3FFE00
3FFE00
3FFE00
F80000
F80000
3FFE00
3FFE00
3FFE00
000F80
000F80
FFFE00
FFFE00
FFFE00
ENDCHAR
STARTCHAR 0074
ENCODING 116
SWIDTH 977 0
DWIDTH 19 0
BBX 15 17 2 2
BITMAP
07C0
07C0
07C0
07C0
FFFE
FFFE
FFFE
07C0
07C0
07C0
07C0
07C0
07C0
07C0
07C0
07C0
07C0
ENDCHAR
STARTCHAR 0075
ENCODING 117
SWIDTH 977 0
DWIDTH 19 0
BBX 17 13 0 2
BITMAP
F80F80
F80F80
F80F80
F80F80
F80F80
F80F80
F80F80
F80F80
F80F80
F80F80
3FFF80
3FFF80
3FFF80
ENDCHAR
STARTCHAR 0076
ENCODING 118
SWIDTH 977 0
DWIDTH 19 0
BBX 15 13 2 2
BITMAP
F83E
F83E
F83E
F83E
F83E
F83E
F83E
F83E
1FF8
1FF8
07C0
07C0
07C0
ENDCHAR
STARTCHAR 0077
ENCODING 119
SWIDTH 977 0
DWIDTH 19 0
BBX 17 13 0 2
BITMAP
F9CF80
F9CF80
F9CF80
F9CF80
F9CF80
F9CF80
F9CF80
F9CF80
F9CF80
F9CF80
3E3E00
3E3E00
3E3E00
ENDCHAR
STARTCHAR 0078
ENCODING 120
SWIDTH 977 0
DWIDTH 19 0
BBX 17 13 0 2
BITMAP
F80F80
F80F80
F80F80
3E3E00
3E3E00
07F000
07F000
07F000
3E3E00
3E3E00
F80F80
F80F80
F80F80
ENDCHAR
STARTCHAR 0079
ENCODING 121
SWIDTH 977 0
DWIDTH 19 0
BBX 17 15 0 0
BITMAP
F80F80
F80F80
F80F80
F80F80
F80F80
F80F80
F80F80
F80F80
3FFF80
3FFF80
000F80
000F80
000F80
3FFE00
3FFE00
ENDCHAR
STARTCHAR 007A
ENCODING 122
SWIDTH 977 0
DWIDTH 19 0
BBX 17 13 0 2
BITMAP
FFFF80
FFFF80
FFFF80
01FE00
01FE00
07F000
07F000
07F000
3FC000
3FC000
FFFF80
FFFF80
FFFF80
ENDCHAR
STARTCHAR 007B
ENCODING 123
SWIDTH 977 0
DWIDTH 19 0
BBX 10 17 5 2
BITMAP
07C0
07C0
3E00
3E00
3E00
3E00
3E00
F800
F800
3E00
3E00
3E00
3E00
3E00
07C0
07C0
07C0
ENDCHAR
STARTCHAR 007C
ENCODING 124
SWIDTH 977 0
DWIDTH 19 0
BBX 5 17 7 2
BITMAP
F8
F8
F8
F8
F8
F8
F8
F8
F8
F8
F8
F8
F8
F8
F8
F8
F8
ENDCHAR
STARTCHAR 007D
ENCODING 125
SWIDTH 977 0
DWIDTH 19 0
BBX 10 17 2 2
BITMAP
F800
F800
1F00
1F00
1F00
1F00
1F00
07C0
07C0
1F00
1F00
1F00
1F00
1F00
F800
F800
F800
ENDCHAR
STARTCHAR 007E
ENCODING 126
SWIDTH 977 0
DWIDTH 19 0
BBX 17 8 0 7
BITMAP
3FC000
3FC000
3FC000
C7F180
C7F180
01FE00
01FE00
01FE00
ENDCHAR
STARTCHAR 007F
ENCODING 127
SWIDTH 977 0
DWIDTH 19 0
BBX 13 5 2 2
BITMAP
F8F8
F8F8
F8F8
F8F8
F8F8
ENDCHAR
STARTCHAR 00A0
ENCODING 160
SWIDTH 977 0
DWIDTH 19 0
BBX 0 0 0 0
BITMAP
ENDCHAR
STARTCHAR 00A1
ENCODING 161
SWIDTH 977 0
DWIDTH 19 0
BBX 7 17 5 2
BITMAP
3E
3E
00
00
3E
3E
3E
3E
3E
FE
FE
FE
FE
FE
FE
FE
FE
ENDCHAR
STARTCHAR 00A2
ENCODING 162
SWIDTH 977 0
DWIDTH 19 0
BBX 17 17 0 2
BITMAP
01C000
01C000
3FFE00
3FFE00
F9CF80
F9CF80
F9CF80
F9C000
F9C000
F9CF80
F9CF80
F9CF80
3FFE00
3FFE00
01C000
01C000
01C000
ENDCHAR
STARTCHAR 00A3
ENCODING 163
SWIDTH 977 0
DWIDTH 19 0
BBX 17 17 0 2
BITMAP
07FE00
07FE00
3E0F80
3E0F80
3E0000
3E0000
3E0000
FFFE00
FFFE00
3E0000
3E0000
3E0000
3E0000
3E0000
FFFF80
FFFF80
FFFF80
ENDCHAR
STARTCHAR 00A4
ENCODING 164
SWIDTH 977 0
DWIDTH 19 0
BBX 15 12 2 5
BITMAP
E7C6
E7C6
1838
1838
1838
1838
1838
1838
1838
1838
E7C6
E7C6
ENDCHAR
STARTCHAR 00A5
ENCODING 165
SWIDTH 977 0
DWIDTH 19 0
BBX 15 17 2 2
BITMAP
F83E
F83E
F83E
F83E
1FF8
1FF8
1FF8
FFFE
FFFE
07C0
07C0
07C0
FFFE
FFFE
07C0
07C0
07C0
ENDCHAR
STARTCHAR 00A6
ENCODING 166
SWIDTH 977 0
DWIDTH 19 0
BBX 5 17 7 2
BITMAP
F8
F8
F8
F8
F8
F8
F8
00
00
F8
F8
F8
F8
F8
F8
F8
F8
ENDCHAR
STARTCHAR 00A7
ENCODING 167
SWIDTH 977 0
DWIDTH 19 0
BBX 15 17 2 2
BITMAP
1FF8
1FF8
F83E
F83E
FFC0
FFC0
FFC0
1838
1838
07FE
07FE
07FE
F83E
F83E
1FF8
1FF8
1FF8
ENDCHAR
STARTCHAR 00A8
ENCODING 168
SWIDTH 977 0
DWIDTH 19 0
BBX 13 2 2 17
BITMAP
F8F8
F8F8
ENDCHAR
STARTCHAR 00A9
ENCODING 169
SWIDTH 977 0
DWIDTH 19 0
BBX 19 19 0 0
BITMAP
07FE00
07FE00
380180
380180
C1F060
C1F060
C1F060
C60060
C60060
C60060
C60060
C60060
C1F060
C1F060
380180
380180
380180
07FE00
07FE00
ENDCHAR
STARTCHAR 00AA
ENCODING 170
SWIDTH 977 0
DWIDTH 19 0
BBX 13 9 2 10
BITMAP
FFC0
FFC0
1FF8
1FF8
F8F8
F8F8
F8F8
1FF8
1FF8
ENDCHAR
STARTCHAR 00AB
ENCODING 171
SWIDTH 977 0
DWIDTH 19 0
BBX 17 12 0 5
BITMAP
07CF80
07CF80
3E3E00
3E3E00
3E3E00
F9F000
F9F000
3E3E00
3E3E00
3E3E00
07CF80
07CF80
ENDCHAR
STARTCHAR 00AC
ENCODING 172
SWIDTH 977 0
DWIDTH 19 0
BBX 15 8 2 7
BITMAP
FFFE
FFFE
FFFE
003E
003E
003E
003E
003E
ENDCHAR
STARTCHAR 00AD
ENCODING 173
SWIDTH 977 0
DWIDTH 19 0
BBX 15 2 2 10
BITMAP
FFFE
FFFE
ENDCHAR
STARTCHAR 00AE
ENCODING 174
SWIDTH 977 0
DWIDTH 19 0
BBX 19 19 0 0
BITMAP
07FE00
07FE00
380180
380180
C7F060
C7F060
C7F060
C60E60
C60E60
C7F060
C7F060
C7F060
C60E60
C60E60
380180
380180
380180
07FE00
07FE00
ENDCHAR
STARTCHAR 00AF
ENCODING 175
SWIDTH 977 0
DWIDTH 19 0
BBX 13 2 2 17
BITMAP
FFF8
FFF8
ENDCHAR
STARTCHAR 00B0
ENCODING 176
SWIDTH 977 0
DWIDTH 19 0
BBX 7 7 5 12
BITMAP
38
38
C6
C6
38
38
38
ENDCHAR
STARTCHAR 00B1
ENCODING 177
SWIDTH 977 0
DWIDTH 19 0
BBX 15 17 2 2
BITMAP
07C0
07C0
07C0
07C0
FFFE
FFFE
FFFE
07C0
07C0
07C0
07C0
07C0
0000
0000
FFFE
FFFE
FFFE
ENDCHAR
STARTCHAR 00B2
ENCODING 178
SWIDTH 977 0
DWIDTH 19 0
BBX 10 9 5 10
BITMAP
FE00
FE00
07C0
07C0
3E00
3E00
3E00
FFC0
FFC0
ENDCHAR
STARTCHAR 00B3
ENCODING 179
SWIDTH 977 0
DWIDTH 19 0
BBX 10 9 5 10
BITMAP
FFC0
FFC0
3E00
3E00
07C0
07C0
07C0
FE00
FE00
ENDCHAR
STARTCHAR 00B4
ENCODING 180
SWIDTH 977 0
DWIDTH 19 0
BBX 5 4 7 15
BITMAP
18
18
E0
E0
ENDCHAR
STARTCHAR 00B5
ENCODING 181
SWIDTH 977 0
DWIDTH 19 0
BBX 17 15 0 0
BITMAP
F83E00
F83E00
F83E00
F83E00
F83E00
F83E00
F83E00
F83E00
F83E00
F83E00
FFCF80
FFCF80
FFCF80
F80000
F80000
ENDCHAR
STARTCHAR 00B6
ENCODING 182
SWIDTH 977 0
DWIDTH 19 0
BBX 15 17 2 2
BITMAP
1FFE
1FFE
F8C6
F8C6
E0C6
E0C6
E0C6
F8C6
F8C6
1FFE
1FFE
1FFE
00C6
00C6
00C6
00C6
00C6
ENDCHAR
STARTCHAR 00B7
ENCODING 183
SWIDTH 977 0
DWIDTH 19 0
BBX 5 5 5 7
BITMAP
F8
F8
F8
F8
F8
ENDCHAR
STARTCHAR 00B8
ENCODING 184
SWIDTH 977 0
DWIDTH 19 0
BBX 7 5 5 0
BITMAP
06
06
06
F8
F8
ENDCHAR
STARTCHAR 00B9
ENCODING 185
SWIDTH 977 0
DWIDTH 19 0
BBX 10 9 5 10
BITMAP
3E00
3E00
FE00
FE00
3E00
3E00
3E00
FFC0
FFC0
ENDCHAR
STARTCHAR 00BA
ENCODING 186
SWIDTH 977 0
DWIDTH 19 0
BBX 13 9 2 10
BITMAP
1FC0
1FC0
F8F8
F8F8
F8F8
F8F8
F8F8
1FC0
1FC0
ENDCHAR
STARTCHAR 00BB
ENCODING 187
SWIDTH 977 0
DWIDTH 19 0
BBX 17 12 0 5
BITMAP
F9F000
F9F000
3E3E00
3E3E00
3E3E00
07CF80
07CF80
3E3E00
3E3E00
3E3E00
F9F000
F9F000
ENDCHAR
STARTCHAR 00BC
ENCODING 188
SWIDTH 977 0
DWIDTH 19 0
BBX 17 17 0 2
BITMAP
380180
380180
F80E00
F80E00
383000
383000
383000
39C180
39C180
060F80
060F80
060F80
383F80
383F80
C00180
C00180
C00180
ENDCHAR
STARTCHAR 00BD
ENCODING 189
SWIDTH 977 0
DWIDTH 19 0
BBX 17 17 0 2
BITMAP
380180
380180
F80E00
F80E00
383000
383000
383000
39CF80
39CF80
060180
060180
060180
380E00
380E00
C03F80
C03F80
C03F80
ENDCHAR
STARTCHAR 00BE
ENCODING 190
SWIDTH 977 0
DWIDTH 19 0
BBX 17 17 0 2
BITMAP
FE0180
FE0180
380E00
380E00
063000
063000
063000
F9C180
F9C180
060F80
060F80
060F80
383F80
383F80
C00180
C00180
C00180
ENDCHAR
STARTCHAR 00BF
ENCODING 191
SWIDTH 977 0
DWIDTH 19 0
BBX 17 17 0 2
BITMAP
07F000
07F000
000000
000000
07F000
07F000
07F000
3E0000
3E0000
F80F80
F80F80
F80F80
FFFF80
FFFF80
3FFE00
3FFE00
3FFE00
ENDCHAR
STARTCHAR 00C0
ENCODING 192
SWIDTH 977 0
DWIDTH 19 0
BBX 17 17 0 2
BITMAP
060000
060000
01C000
01C000
07F000
07F000
07F000
3E3E00
3E3E00
F80F80
F80F80
F80F80
FFFF80
FFFF80
F80F80
F80F80
F80F80
ENDCHAR
STARTCHAR 00C1
ENCODING 193
SWIDTH 977 0
DWIDTH 19 0
BBX 17 17 0 2
BITMAP
003000
003000
01C000
01C000
07F000
07F000
07F000
3E3E00
3E3E00
F80F80
F80F80
F80F80
FFFF80
FFFF80
F80F80
F80F80
F80F80
ENDCHAR
STARTCHAR 00C2
ENCODING 194
SWIDTH 977 0
DWIDTH 19 0
BBX 17 17 0 2
BITMAP
07F000
07F000
3E3E00
3E3E00
07F000
07F000
07F000
3E3E00
3E3E00
F80F80
F80F80
F80F80
FFFF80
FFFF80
F80F80
F80F80
F80F80
ENDCHAR
STARTCHAR 00C3
ENCODING 195
SWIDTH 977 0
DWIDTH 19 0
BBX 17 17 0 2
BITMAP
07CE00
07CE00
39F000
39F000
07F000
07F000
07F000
3E3E00
3E3E00
F80F80
F80F80
F80F80
FFFF80
FFFF80
F80F80
F80F80
F80F80
ENDCHAR
STARTCHAR 00C4
ENCODING 196
SWIDTH 977 0
DWIDTH 19 0
BBX 17 17 0 2
BITMAP
3E3E00
3E3E00
000000
000000
07F000
07F000
07F000
3E3E00
3E3E00
F80F80
F80F80
F80F80
FFFF80
FFFF80
F80F80
F80F80
F80F80
ENDCHAR
STARTCHAR 00C5
ENCODING 197
SWIDTH 977 0
DWIDTH 19 0
BBX 17 17 0 2
BITMAP
01C000
01C000
063000
063000
07F000
07F000
07F000
3E3E00
3E3E00
F80F80
F80F80
F80F80
FFFF80
FFFF80
F80F80
F80F80
F80F80
ENDCHAR
STARTCHAR 00C6
ENCODING 198
SWIDTH 977 0
DWIDTH 19 0
BBX 17 17 0 2
BITMAP
07FF80
07FF80
3FF000
3FF000
F9F000
F9F000
F9F000
F9FF80
F9FF80
FFF000
FFF000
FFF000
F9F000
F9F000
F9FF80
F9FF80
F9FF80
ENDCHAR
STARTCHAR 00C7
ENCODING 199
SWIDTH 977 0
DWIDTH 19 0
BBX 17 19 0 0
BITMAP
07FE00
07FE00
3E0F80
3E0F80
F80000
F80000
F80000
F80000
F80000
3E0F80
3E0F80
3E0F80
07FE00
07FE00
003000
003000
003000
07C000
07C000
ENDCHAR
STARTCHAR 00C8
ENCODING 200
SWIDTH 977 0
DWIDTH 19 0
BBX 17 17 0 2
BITMAP
060000
060000
01C000
01C000
FFFF80
FFFF80
FFFF80
F80000
F80000
FFFE00
FFFE00
FFFE00
F80000
F80000
FFFF80
FFFF80
FFFF80
ENDCHAR
STARTCHAR 00C9
ENCODING 201
SWIDTH 977 0
DWIDTH 19 0
BBX 17 17 0 2
BITMAP
003000
003000
01C000
01C000
FFFF80
FFFF80
FFFF80
F80000
F80000
FFFE00
FFFE00
FFFE00
F80000
F80000
FFFF80
FFFF80
FFFF80
ENDCHAR
STARTCHAR 00CA
ENCODING 202
SWIDTH 977 0
DWIDTH 19 0
BBX 17 17 0 2
BITMAP
07F000
07F000
3E3E00
3E3E00
FFFF80
FFFF80
FFFF80
F80000
F80000
FFFE00
FFFE00
FFFE00
F80000
F80000
FFFF80
FFFF80
FFFF80
ENDCHAR
STARTCHAR 00CB
ENCODING 203
SWIDTH 977 0
DWIDTH 19 0
BBX 17 17 0 2
BITMAP
3E3E00
3E3E00
000000
000000
FFFF80
FFFF80
FFFF80
F80000
F80000
FFFE00
FFFE00
FFFE00
F80000
F80000
FFFF80
FFFF80
FFFF80
ENDCHAR
STARTCHAR 00CC
ENCODING 204
SWIDTH 977 0
DWIDTH 19 0
BBX 15 17 2 2
BITMAP
0700
0700
00C0
00C0
FFFE
FFFE
FFFE
07C0
07C0
07C0
07C0
07C0
07C0
07C0
FFFE
FFFE
FFFE
ENDCHAR
STARTCHAR 00CD
ENCODING 205
SWIDTH 977 0
DWIDTH 19 0
BBX 15 17 2 2
BITMAP
00C0
00C0
0700
0700
FFFE
FFFE
FFFE
07C0
07C0
07C0
07C0
07C0
07C0
07C0
FFFE
FFFE
FFFE
ENDCHAR
STARTCHAR 00CE
ENCODING 206
SWIDTH 977 0
DWIDTH 19 0
BBX 15 17 2 2
BITMAP
07C0
07C0
1FF8
1FF8
FFFE
FFFE
FFFE
07C0
07C0
07C0
07C0
07C0
07C0
07C0
FFFE
FFFE
FFFE
ENDCHAR
STARTCHAR 00CF
ENCODING 207
SWIDTH 977 0
DWIDTH 19 0
BBX 15 17 2 2
BITMAP
F83E
F83E
0000
0000
FFFE
FFFE
FFFE
07C0
07C0
07C0
07C0
07C0
07C0
07C0
FFFE
FFFE
FFFE
ENDCHAR
STARTCHAR 00D0
ENCODING 208
SWIDTH 977 0
DWIDTH 19 0
BBX 17 17 0 2
BITMAP
3FF000
3FF000
3E3E00
3E3E00
3E0F80
3E0F80
3E0F80
FFCF80
FFCF80
3E0F80
3E0F80
3E0F80
3E3E00
3E3E00
3FF000
3FF000
3FF000
ENDCHAR
STARTCHAR 00D1
ENCODING 209
SWIDTH 977 0
DWIDTH 19 0
BBX 17 17 0 2
BITMAP
07CE00
07CE00
39F000
39F000
FE0F80
FE0F80
FE0F80
FFCF80
FFCF80
FFFF80
FFFF80
FFFF80
F9FF80
F9FF80
F83F80
F83F80
F83F80
ENDCHAR
STARTCHAR 00D2
ENCODING 210
SWIDTH 977 0
DWIDTH 19 0
BBX 17 17 0 2
BITMAP
060000
060000
01C000
01C000
3FFE00
3FFE00
3FFE00
F80F80
F80F80
F80F80
F80F80
F80F80
F80F80
F80F80
3FFE00
3FFE00
3FFE00
ENDCHAR
STARTCHAR 00D3
ENCODING 211
SWIDTH 977 0
DWIDTH 19 0
BBX 17 17 0 2
BITMAP
003000
003000
01C000
01C000
3FFE00
3FFE00
3FFE00
F80F80
F80F80
F80F80
F80F80
F80F80
F80F80
F80F80
3FFE00
3FFE00
3FFE00
ENDCHAR
STARTCHAR 00D4
ENCODING 212
SWIDTH 977 0
DWIDTH 19 0
BBX 17 17 0 2
BITMAP
07F000
07F000
3E3E00
3E3E00
3FFE00
3FFE00
3FFE00
F80F80
F80F80
F80F80
F80F80
F80F80
F80F80
F80F80
3FFE00
3FFE00
3FFE00
ENDCHAR
STARTCHAR 00D5
ENCODING 213
SWIDTH 977 0
DWIDTH 19 0
BBX 17 17 0 2
BITMAP
07CE00
07CE00
39F000
39F000
3FFE00
3FFE00
3FFE00
F80F80
F80F80
F80F80
F80F80
F80F80
F80F80
F80F80
3FFE00
3FFE00
3FFE00
ENDCHAR
STARTCHAR 00D6
ENCODING 214
SWIDTH 977 0
DWIDTH 19 0
BBX 17 17 0 2
BITMAP
3E3E00
3E3E00
000000
000000
3FFE00
3FFE00
3FFE00
F80F80
F80F80
F80F80
F80F80
F80F80
F80F80
F80F80
3FFE00
3FFE00
3FFE00
ENDCHAR
STARTCHAR 00D7
ENCODING 215
SWIDTH 977 0
DWIDTH 19 0
BBX 13 12 2 5
BITMAP
E038
E038
18C0
18C0
18C0
0700
0700
18C0
18C0
18C0
E038
E038
ENDCHAR
STARTCHAR 00D8
ENCODING 216
SWIDTH 977 0
DWIDTH 19 0
BBX 17 17 0 2
BITMAP
3FFE00
3FFE00
F80F80
F80F80
F83F80
F83F80
F83F80
F9CF80
F9CF80
FE0F80
FE0F80
FE0F80
F80F80
F80F80
3FFE00
3FFE00
3FFE00
ENDCHAR
STARTCHAR 00D9
ENCODING 217
SWIDTH 977 0
DWIDTH 19 0
BBX 17 17 0 2
BITMAP
060000
060000
01C000
01C000
F80F80
F80F80
F80F80
F80F80
F80F80
F80F80
F80F80
F80F80
F80F80
F80F80
3FFE00
3FFE00
3FFE00
ENDCHAR
STARTCHAR 00DA
ENCODING 218
SWIDTH 977 0
DWIDTH 19 0
BBX 17 17 0 2
BITMAP
003000
003000
01C000
01C000
F80F80
F80F80
F80F80
F80F80
F80F80
F80F80
F80F80
F80F80
F80F80
F80F80
3FFE00
3FFE00
3FFE00
ENDCHAR
STARTCHAR 00DB
ENCODING 219
SWIDTH 977 0
DWIDTH 19 0
BBX 17 17 0 2
BITMAP
07F000
07F000
3E3E00
3E3E00
000000
000000
000000
F80F80
F80F80
F80F80
F80F80
F80F80
F80F80
F80F80
3FFE00
3FFE00
3FFE00
ENDCHAR
STARTCHAR 00DC
ENCODING 220
SWIDTH 977 0
DWIDTH 19 0
BBX 17 17 0 2
BITMAP
3E3E00
3E3E00
000000
000000
F80F80
F80F80
F80F80
F80F80
F80F80
F80F80
F80F80
F80F80
F80F80
F80F80
3FFE00
3FFE00
3FFE00
ENDCHAR
STARTCHAR 00DD
ENCODING 221
SWIDTH 977 0
DWIDTH 19 0
BBX 15 17 2 2
BITMAP
00C0
00C0
0700
0700
F83E
F83E
F83E
F83E
F83E
1FF8
1FF8
1FF8
07C0
07C0
07C0
07C0
07C0
ENDCHAR
STARTCHAR 00DE
ENCODING 222
SWIDTH 977 0
DWIDTH 19 0
BBX 17 17 0 2
BITMAP
F80000
F80000
FFFE00
FFFE00
F80F80
F80F80
F80F80
F80F80
F80F80
F80F80
F80F80
F80F80
FFFE00
FFFE00
F80000
F80000
F80000
ENDCHAR
STARTCHAR 00DF
ENCODING 223
SWIDTH 977 0
DWIDTH 19 0
BBX 15 17 2 2
BITMAP
1FF8
1FF8
F83E
F83E
F83E
F83E
F83E
F8F8
F8F8
F83E
F83E
F83E
FF3E
FF3E
F8F8
F8F8
F8F8
ENDCHAR
STARTCHAR 00E0
ENCODING 224
SWIDTH 977 0
DWIDTH 19 0
BBX 17 17 0 2
BITMAP
060000
060000
01C000
01C000
3FFE00
3FFE00
3FFE00
000F80
000F80
3FFF80
3FFF80
3FFF80
F80F80
F80F80
3FFF80
3FFF80
3FFF80
ENDCHAR
STARTCHAR 00E1
ENCODING 225
SWIDTH 977 0
DWIDTH 19 0
BBX 17 17 0 2
BITMAP
003000
003000
01C000
01C000
3FFE00
3FFE00
3FFE00
000F80
000F80
3FFF80
3FFF80
3FFF80
F80F80
F80F80
3FFF80
3FFF80
3FFF80
ENDCHAR
STARTCHAR 00E2
ENCODING 226
SWIDTH 977 0
DWIDTH 19 0
BBX 17 17 0 2
BITMAP
07F000
07F000
3E3E00
3E3E00
3FFE00
3FFE00
3FFE00
000F80
000F80
3FFF80
3FFF80
3FFF80
F80F80
F80F80
3FFF80
3FFF80
3FFF80
ENDCHAR
STARTCHAR 00E3
ENCODING 227
SWIDTH 977 0
DWIDTH 19 0
BBX 17 17 0 2
BITMAP
07CE00
07CE00
39F000
39F000
3FFE00
3FFE00
3FFE00
000F80
000F80
3FFF80
3FFF80
3FFF80
F80F80
F80F80
3FFF80
3FFF80
3FFF80
ENDCHAR
STARTCHAR 00E4
ENCODING 228
SWIDTH 977 0
DWIDTH 19 0
BBX 17 17 0 2
BITMAP
3E3E00
3E3E00
000000
000000
3FFE00
3FFE00
3FFE00
000F80
000F80
3FFF80
3FFF80
3FFF80
F80F80
F80F80
3FFF80
3FFF80
3FFF80
ENDCHAR
STARTCHAR 00E5
ENCODING 229
SWIDTH 977 0
DWIDTH 19 0
BBX 17 17 0 2
BITMAP
01C000
01C000
063000
063000
3FFE00
3FFE00
3FFE00
000F80
000F80
3FFF80
3FFF80
3FFF80
F80F80
F80F80
3FFF80
3FFF80
3FFF80
ENDCHAR
STARTCHAR 00E6
ENCODING 230
SWIDTH 977 0
DWIDTH 19 0
BBX 17 13 0 2
BITMAP
3FFE00
3FFE00
3FFE00
01CF80
01CF80
3FFF80
3FFF80
3FFF80
F9C000
F9C000
3FFE00
3FFE00
3FFE00
ENDCHAR
STARTCHAR 00E7
ENCODING 231
SWIDTH 977 0
DWIDTH 19 0
BBX 17 15 0 0
BITMAP
3FFF80
3FFF80
3FFF80
F80000
F80000
F80000
F80000
F80000
3FFF80
3FFF80
003000
003000
003000
07C000
07C000
ENDCHAR
STARTCHAR 00E8
ENCODING 232
SWIDTH 977 0
DWIDTH 19 0
BBX 17 17 0 2
BITMAP
060000
060000
01C000
01C000
3FFE00
3FFE00
3FFE00
F80F80
F80F80
FFFF80
FFFF80
FFFF80
F80000
F80000
3FFE00
3FFE00
3FFE00
ENDCHAR
STARTCHAR 00E9
ENCODING 233
SWIDTH 977 0
DWIDTH 19 0
BBX 17 17 0 2
BITMAP
003000
003000
01C000
01C000
3FFE00
3FFE00
3FFE00
F80F80
F80F80
FFFF80
FFFF80
FFFF80
F80000
F80000
3FFE00
3FFE00
3FFE00
ENDCHAR
STARTCHAR 00EA
ENCODING 234
SWIDTH 977 0
DWIDTH 19 0
BBX 17 17 0 2
BITMAP
07F000
07F000
3E3E00
3E3E00
3FFE00
3FFE00
3FFE00
F80F80
F80F80
FFFF80
FFFF80
FFFF80
F80000
F80000
3FFE00
3FFE00
3FFE00
ENDCHAR
STARTCHAR 00EB
ENCODING 235
SWIDTH 977 0
DWIDTH 19 0
BBX 17 17 0 2
BITMAP
3E3E00
3E3E00
000000
000000
3FFE00
3FFE00
3FFE00
F80F80
F80F80
FFFF80
FFFF80
FFFF80
F80000
F80000
3FFE00
3FFE00
3FFE00
ENDCHAR
STARTCHAR 00EC
ENCODING 236
SWIDTH 977 0
DWIDTH 19 0
BBX 15 17 2 2
BITMAP
1800
1800
0700
0700
0000
0000
0000
1FC0
1FC0
07C0
07C0
07C0
07C0
07C0
FFFE
FFFE
FFFE
ENDCHAR
STARTCHAR 00ED
ENCODING 237
SWIDTH 977 0
DWIDTH 19 0
BBX 15 17 2 2
BITMAP
00C0
00C0
0700
0700
0000
0000
0000
1FC0
1FC0
07C0
07C0
07C0
07C0
07C0
FFFE
FFFE
FFFE
ENDCHAR
STARTCHAR 00EE
ENCODING 238
SWIDTH 977 0
DWIDTH 19 0
BBX 15 17 2 2
BITMAP
1FC0
1FC0
F8F8
F8F8
0000
0000
0000
1FC0
1FC0
07C0
07C0
07C0
07C0
07C0
FFFE
FFFE
FFFE
ENDCHAR
STARTCHAR 00EF
ENCODING 239
SWIDTH 977 0
DWIDTH 19 0
BBX 15 17 2 2
BITMAP
F8F8
F8F8
0000
0000
1FC0
1FC0
1FC0
07C0
07C0
07C0
07C0
07C0
07C0
07C0
FFFE
FFFE
FFFE
ENDCHAR
STARTCHAR 00F0
ENCODING 240
SWIDTH 977 0
DWIDTH 19 0
BBX 17 17 0 2
BITMAP
3E0E00
3E0E00
3FF000
3FF000
C1F000
C1F000
C1F000
3FFE00
3FFE00
F80F80
F80F80
F80F80
F80F80
F80F80
3FFE00
3FFE00
3FFE00
ENDCHAR
STARTCHAR 00F1
ENCODING 241
SWIDTH 977 0
DWIDTH 19 0
BBX 17 17 0 2
BITMAP
07CE00
07CE00
39F000
39F000
FFFE00
FFFE00
FFFE00
F80F80
F80F80
F80F80
F80F80
F80F80
F80F80
F80F80
F80F80
F80F80
F80F80
ENDCHAR
STARTCHAR 00F2
ENCODING 242
SWIDTH 977 0
DWIDTH 19 0
BBX 17 17 0 2
BITMAP
060000
060000
01C000
01C000
3FFE00
3FFE00
3FFE00
F80F80
F80F80
F80F80
F80F80
F80F80
F80F80
F80F80
3FFE00
3FFE00
3FFE00
ENDCHAR
STARTCHAR 00F3
ENCODING 243
SWIDTH 977 0
DWIDTH 19 0
BBX 17 17 0 2
BITMAP
003000
003000
01C000
01C000
3FFE00
3FFE00
3FFE00
F80F80
F80F80
F80F80
F80F80
F80F80
F80F80
F80F80
3FFE00
3FFE00
3FFE00
ENDCHAR
STARTCHAR 00F4
ENCODING 244
SWIDTH 977 0
DWIDTH 19 0
BBX 17 17 0 2
BITMAP
07F000
07F000
3E3E00
3E3E00
3FFE00
3FFE00
3FFE00
F80F80
F80F80
F80F80
F80F80
F80F80
F80F80
F80F80
3FFE00
3FFE00
3FFE00
ENDCHAR
STARTCHAR 00F5
ENCODING 245
SWIDTH 977 0
DWIDTH 19 0
BBX 17 17 0 2
BITMAP
07CE00
07CE00
39F000
39F000
3FFE00
3FFE00
3FFE00
F80F80
F80F80
F80F80
F80F80
F80F80
F80F80
F80F80
3FFE00
3FFE00
3FFE00
ENDCHAR
STARTCHAR 00F6
ENCODING 246
SWIDTH 977 0
DWIDTH 19 0
BBX 17 17 0 2
BITMAP
3E3E00
3E3E00
000000
000000
3FFE00
3FFE00
3FFE00
F80F80
F80F80
F80F80
F80F80
F80F80
F80F80
F80F80
3FFE00
3FFE00
3FFE00
ENDCHAR
STARTCHAR 00F7
ENCODING 247
SWIDTH 977 0
DWIDTH 19 0
BBX 15 12 2 5
BITMAP
07C0
07C0
0000
0000
0000
FFFE
FFFE
0000
0000
0000
07C0
07C0
ENDCHAR
STARTCHAR 00F8
ENCODING 248
SWIDTH 977 0
DWIDTH 19 0
BBX 17 13 0 2
BITMAP
3FFE00
3FFE00
3FFE00
F83F80
F83F80
F9CF80
F9CF80
F9CF80
FE0F80
FE0F80
3FFE00
3FFE00
3FFE00
ENDCHAR
STARTCHAR 00F9
ENCODING 249
SWIDTH 977 0
DWIDTH 19 0
BBX 17 17 0 2
BITMAP
060000
060000
01C000
01C000
F80F80
F80F80
F80F80
F80F80
F80F80
F80F80
F80F80
F80F80
F80F80
F80F80
3FFF80
3FFF80
3FFF80
ENDCHAR
STARTCHAR 00FA
ENCODING 250
SWIDTH 977 0
DWIDTH 19 0
BBX 17 17 0 2
BITMAP
003000
003000
01C000
01C000
F80F80
F80F80
F80F80
F80F80
F80F80
F80F80
F80F80
F80F80
F80F80
F80F80
3FFF80
3FFF80
3FFF80
ENDCHAR
STARTCHAR 00FB
ENCODING 251
SWIDTH 977 0
DWIDTH 19 0
BBX 17 17 0 2
BITMAP
07F000
07F000
3E3E00
3E3E00
000000
000000
000000
F80F80
F80F80
F80F80
F80F80
F80F80
F80F80
F80F80
3FFF80
3FFF80
3FFF80
ENDCHAR
STARTCHAR 00FC
ENCODING 252
SWIDTH 977 0
DWIDTH 19 0
BBX 17 17 0 2
BITMAP
3E3E00
3E3E00
000000
000000
F80F80
F80F80
F80F80
F80F80
F80F80
F80F80
F80F80
F80F80
F80F80
F80F80
3FFF80
3FFF80
3FFF80
ENDCHAR
STARTCHAR 00FD
ENCODING 253
SWIDTH 977 0
DWIDTH 19 0
BBX 17 19 0 0
BITMAP
003000
003000
01C000
01C000
F80F80
F80F80
F80F80
F80F80
F80F80
F80F80
F80F80
F80F80
3FFF80
3FFF80
000F80
000F80
000F80
3FFE00
3FFE00
ENDCHAR
STARTCHAR 00FE
ENCODING 254
SWIDTH 977 0
DWIDTH 19 0
BBX 17 19 0 0
BITMAP
F80000
F80000
F80000
F80000
FFFE00
FFFE00
FFFE00
F80F80
F80F80
F80F80
F80F80
F80F80
FFFE00
FFFE00
F80000
F80000
F80000
F80000
F80000
ENDCHAR
STARTCHAR 00FF
ENCODING 255
SWIDTH 977 0
DWIDTH 19 0
BBX 17 19 0 0
BITMAP
3E3E00
3E3E00
000000
000000
F80F80
F80F80
F80F80
F80F80
F80F80
F80F80
F80F80
F80F80
3FFF80
3FFF80
000F80
000F80
000F80
3FFE00
3FFE00
ENDCHAR
STARTCHAR 0100
ENCODING 256
SWIDTH 977 0
DWIDTH 19 0
BBX 17 17 0 2
BITMAP
3FFE00
3FFE00
000000
000000
07F000
07F000
07F000
3E3E00
3E3E00
F80F80
F80F80
F80F80
FFFF80
FFFF80
F80F80
F80F80
F80F80
ENDCHAR
STARTCHAR 0101
ENCODING 257
SWIDTH 977 0
DWIDTH 19 0
BBX 17 17 0 2
BITMAP
3FFE00
3FFE00
000000
000000
3FFE00
3FFE00
3FFE00
000F80
000F80
3FFF80
3FFF80
3FFF80
F80F80
F80F80
3FFF80
3FFF80
3FFF80
ENDCHAR
STARTCHAR 0102
ENCODING 258
SWIDTH 977 0
DWIDTH 19 0
BBX 17 17 0 2
BITMAP
380E00
380E00
07F000
07F000
07F000
07F000
07F000
3E3E00
3E3E00
F80F80
F80F80
F80F80
FFFF80
FFFF80
F80F80
F80F80
F80F80
ENDCHAR
STARTCHAR 0103
ENCODING 259
SWIDTH 977 0
DWIDTH 19 0
BBX 17 17 0 2
BITMAP
380E00
380E00
07F000
07F000
3FFE00
3FFE00
3FFE00
000F80
000F80
3FFF80
3FFF80
3FFF80
F80F80
F80F80
3FFF80
3FFF80
3FFF80
ENDCHAR
STARTCHAR 0104
ENCODING 260
SWIDTH 977 0
DWIDTH 19 0
BBX 17 19 0 0
BITMAP
07F000
07F000
3E3E00
3E3E00
F80F80
F80F80
F80F80
FFFF80
FFFF80
F80F80
F80F80
F80F80
000E00
000E00
003000
003000
003000
000F80
000F80
ENDCHAR
STARTCHAR 0105
ENCODING 261
SWIDTH 977 0
DWIDTH 19 0
BBX 17 19 0 0
BITMAP
3FFE00
3FFE00
000F80
000F80
3FFF80
3FFF80
3FFF80
F80F80
F80F80
3FFF80
3FFF80
3FFF80
01C000
01C000
060000
060000
060000
01F000
01F000
ENDCHAR
STARTCHAR 0106
ENCODING 262
SWIDTH 977 0
DWIDTH 19 0
BBX 17 17 0 2
BITMAP
003000
003000
01C000
01C000
07FE00
07FE00
07FE00
3E0F80
3E0F80
F80000
F80000
F80000
3E0F80
3E0F80
07FE00
07FE00
07FE00
ENDCHAR
STARTCHAR 0107
ENCODING 263
SWIDTH 977 0
DWIDTH 19 0
BBX 17 17 0 2
BITMAP
003000
003000
01C000
01C000
3FFF80
3FFF80
3FFF80
F80000
F80000
F80000
F80000
F80000
F80000
F80000
3FFF80
3FFF80
3FFF80
ENDCHAR
STARTCHAR 0108
ENCODING 264
SWIDTH 977 0
DWIDTH 19 0
BBX 17 17 0 2
BITMAP
07F000
07F000
3E3E00
3E3E00
07FE00
07FE00
07FE00
3E0F80
3E0F80
F80000
F80000
F80000
3E0F80
3E0F80
07FE00
07FE00
07FE00
ENDCHAR
STARTCHAR 0109
ENCODING 265
SWIDTH 977 0
DWIDTH 19 0
BBX 17 17 0 2
BITMAP
07F000
07F000
3E3E00
3E3E00
3FFF80
3FFF80
3FFF80
F80000
F80000
F80000
F80000
F80000
F80000
F80000
3FFF80
3FFF80
3FFF80
ENDCHAR
STARTCHAR 010A
ENCODING 266
SWIDTH 977 0
DWIDTH 19 0
BBX 17 17 0 2
BITMAP
01F000
01F000
000000
000000
07FE00
07FE00
07FE00
3E0F80
3E0F80
F80000
F80000
F80000
3E0F80
3E0F80
07FE00
07FE00
07FE00
ENDCHAR
STARTCHAR 010B
ENCODING 267
SWIDTH 977 0
DWIDTH 19 0
BBX 17 17 0 2
BITMAP
01F000
01F000
000000
000000
3FFF80
3FFF80
3FFF80
F80000
F80000
F80000
F80000
F80000
F80000
F80000
3FFF80
3FFF80
3FFF80
ENDCHAR
STARTCHAR 010C
ENCODING 268
SWIDTH 977 0
DWIDTH 19 0
BBX 17 17 0 2
BITMAP
3E0F80
3E0F80
07FE00
07FE00
07FE00
07FE00
07FE00
3E0F80
3E0F80
F80000
F80000
F80000
3E0F80
3E0F80
07FE00
07FE00
07FE00
ENDCHAR
STARTCHAR 010D
ENCODING 269
SWIDTH 977 0
DWIDTH 19 0
BBX 17 17 0 2
BITMAP
3E3E00
3E3E00
07F000
07F000
3FFF80
3FFF80
3FFF80
F80000
F80000
F80000
F80000
F80000
F80000
F80000
3FFF80
3FFF80
3FFF80
ENDCHAR
STARTCHAR 010E
ENCODING 270
SWIDTH 977 0
DWIDTH 19 0
BBX 17 17 0 2
BITMAP
3E3E00
3E3E00
07F000
07F000
FFF000
FFF000
FFF000
F83E00
F83E00
F80F80
F80F80
F80F80
F83E00
F83E00
FFF000
FFF000
FFF000
ENDCHAR
STARTCHAR 010F
ENCODING 271
SWIDTH 977 0
DWIDTH 19 0
BBX 19 17 0 2
BITMAP
01F1E0
01F1E0
01F1E0
01F1E0
3FF180
3FF180
3FF180
F9F000
F9F000
F9F000
F9F000
F9F000
F9F000
F9F000
3FF000
3FF000
3FF000
ENDCHAR
STARTCHAR 0110
ENCODING 272
SWIDTH 977 0
DWIDTH 19 0
BBX 17 17 0 2
BITMAP
3FF000
3FF000
3E3E00
3E3E00
3E0F80
3E0F80
3E0F80
FFCF80
FFCF80
3E0F80
3E0F80
3E0F80
3E3E00
3E3E00
3FF000
3FF000
3FF000
ENDCHAR
STARTCHAR 0111
ENCODING 273
SWIDTH 977 0
DWIDTH 19 0
BBX 17 17 0 2
BITMAP
003E00
003E00
01FF80
01FF80
3FFE00
3FFE00
3FFE00
F83E00
F83E00
F83E00
F83E00
F83E00
F83E00
F83E00
3FFE00
3FFE00
3FFE00
ENDCHAR
STARTCHAR 0112
ENCODING 274
SWIDTH 977 0
DWIDTH 19 0
BBX 17 17 0 2
BITMAP
3FFE00
3FFE00
000000
000000
FFFF80
FFFF80
FFFF80
F80000
F80000
FFFE00
FFFE00
FFFE00
F80000
F80000
FFFF80
FFFF80
FFFF80
ENDCHAR
STARTCHAR 0113
ENCODING 275
SWIDTH 977 0
DWIDTH 19 0
BBX 17 17 0 2
BITMAP
3FFE00
3FFE00
000000
000000
3FFE00
3FFE00
3FFE00
F80F80
F80F80
FFFF80
FFFF80
FFFF80
F80000
F80000
3FFE00
3FFE00
3FFE00
ENDCHAR
STARTCHAR 0114
ENCODING 276
SWIDTH 977 0
DWIDTH 19 0
BBX 17 17 0 2
BITMAP
380E00
380E00
07F000
07F000
FFFF80
FFFF80
FFFF80
F80000
F80000
FFFE00
FFFE00
FFFE00
F80000
F80000
FFFF80
FFFF80
FFFF80
ENDCHAR
STARTCHAR 0115
ENCODING 277
SWIDTH 977 0
DWIDTH 19 0
BBX 17 17 0 2
BITMAP
380E00
380E00
07F000
07F000
3FFE00
3FFE00
3FFE00
F80F80
F80F80
FFFF80
FFFF80
FFFF80
F80000
F80000
3FFE00
3FFE00
3FFE00
ENDCHAR
STARTCHAR 0116
ENCODING 278
SWIDTH 977 0
DWIDTH 19 0
BBX 17 17 0 2
BITMAP
01F000
01F000
000000
000000
FFFF80
FFFF80
FFFF80
F80000
F80000
FFFE00
FFFE00
FFFE00
F80000
F80000
FFFF80
FFFF80
FFFF80
ENDCHAR
STARTCHAR 0117
ENCODING 279
SWIDTH 977 0
DWIDTH 19 0
BBX 17 17 0 2
BITMAP
01F000
01F000
000000
000000
3FFE00
3FFE00
3FFE00
F80F80
F80F80
FFFF80
FFFF80
FFFF80
F80000
F80000
3FFE00
3FFE00
3FFE00
ENDCHAR
STARTCHAR 0118
ENCODING 280
SWIDTH 977 0
DWIDTH 19 0
BBX 17 19 0 0
BITMAP
FFFF80
FFFF80
F80000
F80000
FFFE00
FFFE00
FFFE00
F80000
F80000
FFFF80
FFFF80
FFFF80
01C000
01C000
060000
060000
060000
01F000
01F000
ENDCHAR
STARTCHAR 0119
ENCODING 281
SWIDTH 977 0
DWIDTH 19 0
BBX 17 19 0 0
BITMAP
3FFE00
3FFE00
F80F80
F80F80
FFFF80
FFFF80
FFFF80
F80000
F80000
3FFE00
3FFE00
3FFE00
01C000
01C000
060000
060000
060000
01F000
01F000
ENDCHAR
STARTCHAR 011A
ENCODING 282
SWIDTH 977 0
DWIDTH 19 0
BBX 17 17 0 2
BITMAP
3E3E00
3E3E00
07F000
07F000
FFFF80
FFFF80
FFFF80
F80000
F80000
FFFE00
FFFE00
FFFE00
F80000
F80000
FFFF80
FFFF80
FFFF80
ENDCHAR
STARTCHAR 011B
ENCODING 283
SWIDTH 977 0
DWIDTH 19 0
BBX 17 17 0 2
BITMAP
3E3E00
3E3E00
07F000
07F000
3FFE00
3FFE00
3FFE00
F80F80
F80F80
FFFF80
FFFF80
FFFF80
F80000
F80000
3FFE00
3FFE00
3FFE00
ENDCHAR
STARTCHAR 011C
ENCODING 284
SWIDTH 977 0
DWIDTH 19 0
BBX 17 17 0 2
BITMAP
07F000
07F000
3E3E00
3E3E00
3FFF80
3FFF80
3FFF80
F80000
F80000
F83F80
F83F80
F83F80
F80F80
F80F80
3FFF80
3FFF80
3FFF80
ENDCHAR
STARTCHAR 011D
ENCODING 285
SWIDTH 977 0
DWIDTH 19 0
BBX 17 19 0 0
BITMAP
07F000
07F000
3E3E00
3E3E00
3FFF80
3FFF80
3FFF80
F80F80
F80F80
F80F80
F80F80
F80F80
3FFF80
3FFF80
000F80
000F80
000F80
3FFE00
3FFE00
ENDCHAR
STARTCHAR 011E
ENCODING 286
SWIDTH 977 0
DWIDTH 19 0
BBX 17 17 0 2
BITMAP
380E00
380E00
07F000
07F000
3FFF80
3FFF80
3FFF80
F80000
F80000
F83F80
F83F80
F83F80
F80F80
F80F80
3FFF80
3FFF80
3FFF80
ENDCHAR
STARTCHAR 011F
ENCODING 287
SWIDTH 977 0
DWIDTH 19 0
BBX 17 19 0 0
BITMAP
380E00
380E00
07F000
07F000
3FFF80
3FFF80
3FFF80
F80F80
F80F80
F80F80
F80F80
F80F80
3FFF80
3FFF80
000F80
000F80
000F80
3FFE00
3FFE00
ENDCHAR
STARTCHAR 0120
ENCODING 288
SWIDTH 977 0
DWIDTH 19 0
BBX 17 17 0 2
BITMAP
01F000
01F000
000000
000000
3FFF80
3FFF80
3FFF80
F80000
F80000
F83F80
F83F80
F83F80
F80F80
F80F80
3FFF80
3FFF80
3FFF80
ENDCHAR
STARTCHAR 0121
ENCODING 289
SWIDTH 977 0
DWIDTH 19 0
BBX 17 19 0 0
BITMAP
01F000
01F000
000000
000000
3FFF80
3FFF80
3FFF80
F80F80
F80F80
F80F80
F80F80
F80F80
3FFF80
3FFF80
000F80
000F80
000F80
3FFE00
3FFE00
ENDCHAR
STARTCHAR 0122
ENCODING 290
SWIDTH 977 0
DWIDTH 19 0
BBX 17 19 0 0
BITMAP
07FF80
07FF80
3E0000
3E0000
F80000
F80000
F80000
F83F80
F83F80
3E0F80
3E0F80
3E0F80
07FF80
07FF80
01F000
01F000
01F000
07C000
07C000
ENDCHAR
STARTCHAR 0123
ENCODING 291
SWIDTH 977 0
DWIDTH 19 0
BBX 17 19 0 0
BITMAP
01F000
01F000
07C000
07C000
3FFF80
3FFF80
3FFF80
F80F80
F80F80
F80F80
F80F80
F80F80
3FFF80
3FFF80
000F80
000F80
000F80
3FFE00
3FFE00
ENDCHAR
STARTCHAR 0124
ENCODING 292
SWIDTH 977 0
DWIDTH 19 0
BBX 17 17 0 2
BITMAP
07F000
07F000
FE3F80
FE3F80
F80F80
F80F80
F80F80
F80F80
F80F80
FFFF80
FFFF80
FFFF80
F80F80
F80F80
F80F80
F80F80
F80F80
ENDCHAR
STARTCHAR 0125
ENCODING 293
SWIDTH 977 0
DWIDTH 19 0
BBX 17 17 0 2
BITMAP
07F000
07F000
FE3E00
FE3E00
F80000
F80000
F80000
FFFE00
FFFE00
F80F80
F80F80
F80F80
F80F80
F80F80
F80F80
F80F80
F80F80
ENDCHAR
STARTCHAR 0126
ENCODING 294
SWIDTH 977 0
DWIDTH 19 0
BBX 17 17 0 2
BITMAP
F80F80
F80F80
FFFF80
FFFF80
F80F80
F80F80
F80F80
FFFF80
FFFF80
F80F80
F80F80
F80F80
F80F80
F80F80
F80F80
F80F80
F80F80
ENDCHAR
STARTCHAR 0127
ENCODING 295
SWIDTH 977 0
DWIDTH 19 0
BBX 17 17 0 2
BITMAP
3E0000
3E0000
FFF000
FFF000
3E0000
3E0000
3E0000
3FFE00
3FFE00
3E0F80
3E0F80
3E0F80
3E0F80
3E0F80
3E0F80
3E0F80
3E0F80
ENDCHAR
STARTCHAR 0128
ENCODING 296
SWIDTH 977 0
DWIDTH 19 0
BBX 15 17 2 2
BITMAP
1F06
1F06
E0F8
E0F8
FFFE
FFFE
FFFE
07C0
07C0
07C0
07C0
07C0
07C0
07C0
FFFE
FFFE
FFFE
ENDCHAR
STARTCHAR 0129
ENCODING 297
SWIDTH 977 0
DWIDTH 19 0
BBX 15 17 2 2
BITMAP
1F06
1F06
E0F8
E0F8
0000
0000
0000
1FC0
1FC0
07C0
07C0
07C0
07C0
07C0
FFFE
FFFE
FFFE
ENDCHAR
STARTCHAR 012A
ENCODING 298
SWIDTH 977 0
DWIDTH 19 0
BBX 15 17 2 2
BITMAP
FFFE
FFFE
0000
0000
FFFE
FFFE
FFFE
07C0
07C0
07C0
07C0
07C0
07C0
07C0
FFFE
FFFE
FFFE
ENDCHAR
STARTCHAR 012B
ENCODING 299
SWIDTH 977 0
DWIDTH 19 0
BBX 15 17 2 2
BITMAP
FFF8
FFF8
0000
0000
1FC0
1FC0
1FC0
07C0
07C0
07C0
07C0
07C0
07C0
07C0
FFFE
FFFE
FFFE
ENDCHAR
STARTCHAR 012C
ENCODING 300
SWIDTH 977 0
DWIDTH 19 0
BBX 15 17 2 2
BITMAP
1838
1838
07C0
07C0
FFFE
FFFE
FFFE
07C0
07C0
07C0
07C0
07C0
07C0
07C0
FFFE
FFFE
FFFE
ENDCHAR
STARTCHAR 012D
ENCODING 301
SWIDTH 977 0
DWIDTH 19 0
BBX 15 17 2 2
BITMAP
E038
E038
1FC0
1FC0
0000
0000
0000
1FC0
1FC0
07C0
07C0
07C0
07C0
07C0
FFFE
FFFE
FFFE
ENDCHAR
STARTCHAR 012E
ENCODING 302
SWIDTH 977 0
DWIDTH 19 0
BBX 15 19 2 0
BITMAP
FFFE
FFFE
07C0
07C0
07C0
07C0
07C0
07C0
07C0
FFFE
FFFE
FFFE
0700
0700
1800
1800
1800
07C0
07C0
ENDCHAR
STARTCHAR 012F
ENCODING 303
SWIDTH 977 0
DWIDTH 19 0
BBX 15 19 2 0
BITMAP
07C0
07C0
0000
0000
1FC0
1FC0
1FC0
07C0
07C0
FFFE
FFFE
FFFE
0700
0700
1800
1800
1800
07C0
07C0
ENDCHAR
STARTCHAR 0130
ENCODING 304
SWIDTH 977 0
DWIDTH 19 0
BBX 15 17 2 2
BITMAP
07C0
07C0
0000
0000
FFFE
FFFE
FFFE
07C0
07C0
07C0
07C0
07C0
07C0
07C0
FFFE
FFFE
FFFE
ENDCHAR
STARTCHAR 0131
ENCODING 305
SWIDTH 977 0
DWIDTH 19 0
BBX 15 13 2 2
BITMAP
1FC0
1FC0
1FC0
07C0
07C0
07C0
07C0
07C0
07C0
07C0
FFFE
FFFE
FFFE
ENDCHAR
STARTCHAR 0132
ENCODING 306
SWIDTH 977 0
DWIDTH 19 0
BBX 17 17 0 2
BITMAP
FFCF80
FFCF80
3E0F80
3E0F80
3E0F80
3E0F80
3E0F80
3E0F80
3E0F80
FFCF80
FFCF80
FFCF80
000F80
000F80
3FFE00
3FFE00
3FFE00
ENDCHAR
STARTCHAR 0133
ENCODING 307
SWIDTH 977 0
DWIDTH 19 0
BBX 17 19 0 0
BITMAP
3E0F80
3E0F80
000000
000000
FE3F80
FE3F80
FE3F80
3E0F80
3E0F80
3E0F80
3E0F80
3E0F80
3E0F80
3E0F80
000F80
000F80
000F80
07FE00
07FE00
ENDCHAR
STARTCHAR 0134
ENCODING 308
SWIDTH 977 0
DWIDTH 19 0
BBX 17 17 0 2
BITMAP
01FE00
01FE00
07CF80
07CF80
000F80
000F80
000F80
000F80
000F80
000F80
000F80
000F80
F80F80
F80F80
3FFE00
3FFE00
3FFE00
ENDCHAR
STARTCHAR 0135
ENCODING 309
SWIDTH 977 0
DWIDTH 19 0
BBX 15 19 2 0
BITMAP
07F8
07F8
1F3E
1F3E
0000
0000
0000
07F8
07F8
00F8
00F8
00F8
00F8
00F8
00F8
00F8
00F8
FFC0
FFC0
ENDCHAR
STARTCHAR 0136
ENCODING 310
SWIDTH 977 0
DWIDTH 19 0
BBX 17 19 0 0
BITMAP
F83E00
F83E00
F9F000
F9F000
FFC000
FFC000
FFC000
FFF000
FFF000
F9FE00
F9FE00
F9FE00
F83F80
F83F80
07C000
07C000
07C000
3E0000
3E0000
ENDCHAR
STARTCHAR 0137
ENCODING 311
SWIDTH 977 0
DWIDTH 19 0
BBX 17 19 0 0
BITMAP
F80000
F80000
F80F80
F80F80
F83E00
F83E00
F83E00
FFF000
FFF000
F83E00
F83E00
F83E00
F80F80
F80F80
07C000
07C000
07C000
3E0000
3E0000
ENDCHAR
STARTCHAR 0138
ENCODING 312
SWIDTH 977 0
DWIDTH 19 0
BBX 17 13 0 2
BITMAP
F80F80
F80F80
F80F80
F83E00
F83E00
FFF000
FFF000
FFF000
F83E00
F83E00
F80F80
F80F80
F80F80
ENDCHAR
STARTCHAR 0139
ENCODING 313
SWIDTH 977 0
DWIDTH 19 0
BBX 15 17 2 2
BITMAP
00C0
00C0
FF00
FF00
F800
F800
F800
F800
F800
F800
F800
F800
F800
F800
FFFE
FFFE
FFFE
ENDCHAR
STARTCHAR 013A
ENCODING 314
SWIDTH 977 0
DWIDTH 19 0
BBX 15 17 0 2
BITMAP
01C0
01C0
0600
0600
3FC0
3FC0
3FC0
07C0
07C0
07C0
07C0
07C0
07C0
07C0
FFFE
FFFE
FFFE
ENDCHAR
STARTCHAR 013B
ENCODING 315
SWIDTH 977 0
DWIDTH 19 0
BBX 15 19 2 0
BITMAP
F800
F800
F800
F800
F800
F800
F800
F800
F800
F800
F800
F800
FFFE
FFFE
07C0
07C0
07C0
1F00
1F00
ENDCHAR
STARTCHAR 013C
ENCODING 316
SWIDTH 977 0
DWIDTH 19 0
BBX 15 19 2 0
BITMAP
1FC0
1FC0
07C0
07C0
07C0
07C0
07C0
07C0
07C0
07C0
07C0
07C0
FFFE
FFFE
07C0
07C0
07C0
1F00
1F00
ENDCHAR
STARTCHAR 013D
ENCODING 317
SWIDTH 977 0
DWIDTH 19 0
BBX 15 17 2 2
BITMAP
F83E
F83E
F83E
F83E
F838
F838
F838
F800
F800
F800
F800
F800
F800
F800
FFFE
FFFE
FFFE
ENDCHAR
STARTCHAR 013E
ENCODING 318
SWIDTH 977 0
DWIDTH 19 0
BBX 17 17 0 2
BITMAP
3FCF80
3FCF80
07CF80
07CF80
07CE00
07CE00
07CE00
07C000
07C000
07C000
07C000
07C000
07C000
07C000
FFFE00
FFFE00
FFFE00
ENDCHAR
STARTCHAR 013F
ENCODING 319
SWIDTH 977 0
DWIDTH 19 0
BBX 15 17 2 2
BITMAP
F800
F800
F800
F800
F8F8
F8F8
F8F8
F8F8
F8F8
F800
F800
F800
F800
F800
FFFE
FFFE
FFFE
ENDCHAR
STARTCHAR 0140
ENCODING 320
SWIDTH 977 0
DWIDTH 19 0
BBX 17 17 0 2
BITMAP
3FC000
3FC000
07C000
07C000
07CF80
07CF80
07CF80
07CF80
07CF80
07C000
07C000
07C000
07C000
07C000
FFFE00
FFFE00
FFFE00
ENDCHAR
STARTCHAR 0141
ENCODING 321
SWIDTH 977 0
DWIDTH 19 0
BBX 17 17 0 2
BITMAP
3E0000
3E0000
3E0000
3E0000
3FC000
3FC000
3FC000
FE0000
FE0000
3E0000
3E0000
3E0000
3E0000
3E0000
3FFF80
3FFF80
3FFF80
ENDCHAR
STARTCHAR 0142
ENCODING 322
SWIDTH 977 0
DWIDTH 19 0
BBX 15 17 2 2
BITMAP
1FC0
1FC0
07C0
07C0
07F8
07F8
07F8
1FC0
1FC0
07C0
07C0
07C0
07C0
07C0
FFFE
FFFE
FFFE
ENDCHAR
STARTCHAR 0143
ENCODING 323
SWIDTH 977 0
DWIDTH 19 0
BBX 17 17 0 2
BITMAP
003000
003000
01C000
01C000
FE0F80
FE0F80
FE0F80
FFCF80
FFCF80
FFFF80
FFFF80
FFFF80
F9FF80
F9FF80
F83F80
F83F80
F83F80
ENDCHAR
STARTCHAR 0144
ENCODING 324
SWIDTH 977 0
DWIDTH 19 0
BBX 17 17 0 2
BITMAP
003000
003000
01C000
01C000
FFFE00
FFFE00
FFFE00
F80F80
F80F80
F80F80
F80F80
F80F80
F80F80
F80F80
F80F80
F80F80
F80F80
ENDCHAR
STARTCHAR 0145
ENCODING 325
SWIDTH 977 0
DWIDTH 19 0
BBX 17 19 0 0
BITMAP
FE0F80
FE0F80
FFCF80
FFCF80
FFFF80
FFFF80
FFFF80
F9FF80
F9FF80
F83F80
F83F80
F83F80
F80F80
F80F80
01F000
01F000
01F000
07C000
07C000
ENDCHAR
STARTCHAR 0146
ENCODING 326
SWIDTH 977 0
DWIDTH 19 0
BBX 17 17 0 0
BITMAP
FFFE00
FFFE00
F80F80
F80F80
F80F80
F80F80
F80F80
F80F80
F80F80
F80F80
F80F80
F80F80
01F000
01F000
01F000
07C000
07C000
ENDCHAR
STARTCHAR 0147
ENCODING 327
SWIDTH 977 0
DWIDTH 19 0
BBX 17 17 0 2
BITMAP
3E3E00
3E3E00
07F000
07F000
FE0F80
FE0F80
FE0F80
FFCF80
FFCF80
FFFF80
FFFF80
FFFF80
F9FF80
F9FF80
F83F80
F83F80
F83F80
ENDCHAR
STARTCHAR 0148
ENCODING 328
SWIDTH 977 0
DWIDTH 19 0
BBX 17 17 0 2
BITMAP
3E3E00
3E3E00
07F000
07F000
FFFE00
FFFE00
FFFE00
F80F80
F80F80
F80F80
F80F80
F80F80
F80F80
F80F80
F80F80
F80F80
F80F80
ENDCHAR
STARTCHAR 014A
ENCODING 330
SWIDTH 977 0
DWIDTH 19 0
BBX 17 19 0 0
BITMAP
FE0F80
FE0F80
FFCF80
FFCF80
FFFF80
FFFF80
FFFF80
F9FF80
F9FF80
F83F80
F83F80
F83F80
F80F80
F80F80
000F80
000F80
000F80
07FE00
07FE00
ENDCHAR
STARTCHAR 014B
ENCODING 331
SWIDTH 977 0
DWIDTH 19 0
BBX 17 17 0 0
BITMAP
FFFE00
FFFE00
F80F80
F80F80
F80F80
F80F80
F80F80
F80F80
F80F80
F80F80
F80F80
F80F80
000F80
000F80
000F80
07FE00
07FE00
ENDCHAR
STARTCHAR 014C
ENCODING 332
SWIDTH 977 0
DWIDTH 19 0
BBX 17 17 0 2
BITMAP
3FFE00
3FFE00
000000
000000
3FFE00
3FFE00
3FFE00
F80F80
F80F80
F80F80
F80F80
F80F80
F80F80
F80F80
3FFE00
3FFE00
3FFE00
ENDCHAR
STARTCHAR 014D
ENCODING 333
SWIDTH 977 0
DWIDTH 19 0
BBX 17 17 0 2
BITMAP
3FFE00
3FFE00
000000
000000
3FFE00
3FFE00
3FFE00
F80F80
F80F80
F80F80
F80F80
F80F80
F80F80
F80F80
3FFE00
3FFE00
3FFE00
ENDCHAR
STARTCHAR 014E
ENCODING 334
SWIDTH 977 0
DWIDTH 19 0
BBX 17 17 0 2
BITMAP
380E00
380E00
07F000
07F000
3FFE00
3FFE00
3FFE00
F80F80
F80F80
F80F80
F80F80
F80F80
F80F80
F80F80
3FFE00
3FFE00
3FFE00
ENDCHAR
STARTCHAR 014F
ENCODING 335
SWIDTH 977 0
DWIDTH 19 0
BBX 17 17 0 2
BITMAP
380E00
380E00
07F000
07F000
3FFE00
3FFE00
3FFE00
F80F80
F80F80
F80F80
F80F80
F80F80
F80F80
F80F80
3FFE00
3FFE00
3FFE00
ENDCHAR
STARTCHAR 0150
ENCODING 336
SWIDTH 977 0
DWIDTH 19 0
BBX 17 17 0 2
BITMAP
060E00
060E00
383000
383000
3FFE00
3FFE00
3FFE00
F80F80
F80F80
F80F80
F80F80
F80F80
F80F80
F80F80
3FFE00
3FFE00
3FFE00
ENDCHAR
STARTCHAR 0151
ENCODING 337
SWIDTH 977 0
DWIDTH 19 0
BBX 17 17 0 2
BITMAP
060E00
060E00
383000
383000
3FFE00
3FFE00
3FFE00
F80F80
F80F80
F80F80
F80F80
F80F80
F80F80
F80F80
3FFE00
3FFE00
3FFE00
ENDCHAR
STARTCHAR 0152
ENCODING 338
SWIDTH 977 0
DWIDTH 19 0
BBX 17 17 0 2
BITMAP
3FFF80
3FFF80
F9F000
F9F000
F9F000
F9F000
F9F000
F9FF80
F9FF80
F9F000
F9F000
F9F000
F9F000
F9F000
3FFF80
3FFF80
3FFF80
ENDCHAR
STARTCHAR 0153
ENCODING 339
SWIDTH 977 0
DWIDTH 19 0
BBX 17 13 0 2
BITMAP
3FFE00
3FFE00
3FFE00
F9CF80
F9CF80
F9FF80
F9FF80
F9FF80
F9C000
F9C000
3FFE00
3FFE00
3FFE00
ENDCHAR
STARTCHAR 0154
ENCODING 340
SWIDTH 977 0
DWIDTH 19 0
BBX 17 17 0 2
BITMAP
003000
003000
01C000
01C000
FFFE00
FFFE00
FFFE00
F83F80
F83F80
FFF000
FFF000
FFF000
F9FE00
F9FE00
F83F80
F83F80
F83F80
ENDCHAR
STARTCHAR 0155
ENCODING 341
SWIDTH 977 0
DWIDTH 19 0
BBX 15 17 2 2
BITMAP
00C0
00C0
0700
0700
F8FE
F8FE
F8FE
FF00
FF00
F800
F800
F800
F800
F800
F800
F800
F800
ENDCHAR
STARTCHAR 0156
ENCODING 342
SWIDTH 977 0
DWIDTH 19 0
BBX 17 19 0 0
BITMAP
FFFE00
FFFE00
F80F80
F80F80
F83F80
F83F80
F83F80
FFF000
FFF000
F9FE00
F9FE00
F9FE00
F83F80
F83F80
01F000
01F000
01F000
07C000
07C000
ENDCHAR
STARTCHAR 0157
ENCODING 343
SWIDTH 977 0
DWIDTH 19 0
BBX 15 17 2 0
BITMAP
F8FE
F8FE
FF00
FF00
FF00
F800
F800
F800
F800
F800
F800
F800
1F00
1F00
1F00
F800
F800
ENDCHAR
STARTCHAR 0158
ENCODING 344
SWIDTH 977 0
DWIDTH 19 0
BBX 17 17 0 2
BITMAP
063000
063000
01C000
01C000
FFFE00
FFFE00
FFFE00
F83F80
F83F80
FFF000
FFF000
FFF000
F9FE00
F9FE00
F83F80
F83F80
F83F80
ENDCHAR
STARTCHAR 0159
ENCODING 345
SWIDTH 977 0
DWIDTH 19 0
BBX 15 17 2 2
BITMAP
1F3E
1F3E
07F8
07F8
F8FE
F8FE
F8FE
FF00
FF00
F800
F800
F800
F800
F800
F800
F800
F800
ENDCHAR
STARTCHAR 015A
ENCODING 346
SWIDTH 977 0
DWIDTH 19 0
BBX 17 17 0 2
BITMAP
003000
003000
01C000
01C000
3FFE00
3FFE00
3FFE00
F80000
F80000
3FFE00
3FFE00
3FFE00
000F80
000F80
FFFE00
FFFE00
FFFE00
ENDCHAR
STARTCHAR 015B
ENCODING 347
SWIDTH 977 0
DWIDTH 19 0
BBX 17 17 0 2
BITMAP
003000
003000
01C000
01C000
3FFE00
3FFE00
3FFE00
F80000
F80000
3FFE00
3FFE00
3FFE00
000F80
000F80
FFFE00
FFFE00
FFFE00
ENDCHAR
STARTCHAR 015C
ENCODING 348
SWIDTH 977 0
DWIDTH 19 0
BBX 17 17 0 2
BITMAP
07F000
07F000
3E3E00
3E3E00
3FFE00
3FFE00
3FFE00
F80000
F80000
3FFE00
3FFE00
3FFE00
000F80
000F80
FFFE00
FFFE00
FFFE00
ENDCHAR
STARTCHAR 015D
ENCODING 349
SWIDTH 977 0
DWIDTH 19 0
BBX 17 17 0 2
BITMAP
07F000
07F000
3E3E00
3E3E00
3FFE00
3FFE00
3FFE00
F80000
F80000
3FFE00
3FFE00
3FFE00
000F80
000F80
FFFE00
FFFE00
FFFE00
ENDCHAR
STARTCHAR 015E
ENCODING 350
SWIDTH 977 0
DWIDTH 19 0
BBX 17 19 0 0
BITMAP
3FFE00
3FFE00
F80000
F80000
3FFE00
3FFE00
3FFE00
000F80
000F80
F80F80
F80F80
F80F80
3FFE00
3FFE00
003000
003000
003000
07C000
07C000
ENDCHAR
STARTCHAR 015F
ENCODING 351
SWIDTH 977 0
DWIDTH 19 0
BBX 17 17 0 0
BITMAP
3FFE00
3FFE00
F80000
F80000
F80000
3FFE00
3FFE00
000F80
000F80
000F80
FFFE00
FFFE00
003000
003000
003000
07C000
07C000
ENDCHAR
STARTCHAR 0160
ENCODING 352
SWIDTH 977 0
DWIDTH 19 0
BBX 17 17 0 2
BITMAP
3E3E00
3E3E00
07F000
07F000
3FFE00
3FFE00
3FFE00
F80000
F80000
3FFE00
3FFE00
3FFE00
000F80
000F80
FFFE00
FFFE00
FFFE00
ENDCHAR
STARTCHAR 0161
ENCODING 353
SWIDTH 977 0
DWIDTH 19 0
BBX 17 17 0 2
BITMAP
3E3E00
3E3E00
07F000
07F000
3FFE00
3FFE00
3FFE00
F80000
F80000
3FFE00
3FFE00
3FFE00
000F80
000F80
FFFE00
FFFE00
FFFE00
ENDCHAR
STARTCHAR 0164
ENCODING 356
SWIDTH 977 0
DWIDTH 19 0
BBX 15 17 2 2
BITMAP
1838
1838
07C0
07C0
FFFE
FFFE
FFFE
07C0
07C0
07C0
07C0
07C0
07C0
07C0
07C0
07C0
07C0
ENDCHAR
STARTCHAR 0165
ENCODING 357
SWIDTH 977 0
DWIDTH 19 0
BBX 15 17 2 2
BITMAP
1838
1838
07C0
07C0
07C0
07C0
07C0
FFFE
FFFE
07C0
07C0
07C0
07C0
07C0
07C0
07C0
07C0
ENDCHAR
STARTCHAR 0166
ENCODING 358
SWIDTH 977 0
DWIDTH 19 0
BBX 15 17 2 2
BITMAP
FFFE
FFFE
07C0
07C0
07C0
07C0
07C0
07F8
07F8
1FC0
1FC0
1FC0
07C0
07C0
07C0
07C0
07C0
ENDCHAR
STARTCHAR 0167
ENCODING 359
SWIDTH 977 0
DWIDTH 19 0
BBX 15 17 2 2
BITMAP
07C0
07C0
07C0
07C0
FFFE
FFFE
FFFE
07C0
07C0
07F8
07F8
07F8
1FC0
1FC0
07C0
07C0
07C0
ENDCHAR
STARTCHAR 0168
ENCODING 360
SWIDTH 977 0
DWIDTH 19 0
BBX 17 17 0 2
BITMAP
07CE00
07CE00
39F000
39F000
F80F80
F80F80
F80F80
F80F80
F80F80
F80F80
F80F80
F80F80
F80F80
F80F80
3FFE00
3FFE00
3FFE00
ENDCHAR
STARTCHAR 0169
ENCODING 361
SWIDTH 977 0
DWIDTH 19 0
BBX 17 17 0 2
BITMAP
07CE00
07CE00
39F000
39F000
F80F80
F80F80
F80F80
F80F80
F80F80
F80F80
F80F80
F80F80
F80F80
F80F80
3FFF80
3FFF80
3FFF80
ENDCHAR
STARTCHAR 016A
ENCODING 362
SWIDTH 977 0
DWIDTH 19 0
BBX 17 17 0 2
BITMAP
3FFE00
3FFE00
000000
000000
F80F80
F80F80
F80F80
F80F80
F80F80
F80F80
F80F80
F80F80
F80F80
F80F80
3FFE00
3FFE00
3FFE00
ENDCHAR
STARTCHAR 016B
ENCODING 363
SWIDTH 977 0
DWIDTH 19 0
BBX 17 17 0 2
BITMAP
3FFE00
3FFE00
000000
000000
F80F80
F80F80
F80F80
F80F80
F80F80
F80F80
F80F80
F80F80
F80F80
F80F80
3FFF80
3FFF80
3FFF80
ENDCHAR
STARTCHAR 016C
ENCODING 364
SWIDTH 977 0
DWIDTH 19 0
BBX 17 17 0 2
BITMAP
380E00
380E00
07F000
07F000
F80F80
F80F80
F80F80
F80F80
F80F80
F80F80
F80F80
F80F80
F80F80
F80F80
3FFE00
3FFE00
3FFE00
ENDCHAR
STARTCHAR 016D
ENCODING 365
SWIDTH 977 0
DWIDTH 19 0
BBX 17 17 0 2
BITMAP
380E00
380E00
07F000
07F000
F80F80
F80F80
F80F80
F80F80
F80F80
F80F80
F80F80
F80F80
F80F80
F80F80
3FFF80
3FFF80
3FFF80
ENDCHAR
STARTCHAR 016E
ENCODING 366
SWIDTH 977 0
DWIDTH 19 0
BBX 17 17 0 2
BITMAP
07F000
07F000
3E3E00
3E3E00
C7F180
C7F180
C7F180
F80F80
F80F80
F80F80
F80F80
F80F80
F80F80
F80F80
3FFE00
3FFE00
3FFE00
ENDCHAR
STARTCHAR 016F
ENCODING 367
SWIDTH 977 0
DWIDTH 19 0
BBX 17 17 0 2
BITMAP
07F000
07F000
3E3E00
3E3E00
C7F180
C7F180
C7F180
F80F80
F80F80
F80F80
F80F80
F80F80
F80F80
F80F80
3FFF80
3FFF80
3FFF80
ENDCHAR
STARTCHAR 0170
ENCODING 368
SWIDTH 977 0
DWIDTH 19 0
BBX 17 17 0 2
BITMAP
060E00
060E00
383000
383000
F80F80
F80F80
F80F80
F80F80
F80F80
F80F80
F80F80
F80F80
F80F80
F80F80
3FFE00
3FFE00
3FFE00
ENDCHAR
STARTCHAR 0171
ENCODING 369
SWIDTH 977 0
DWIDTH 19 0
BBX 17 17 0 2
BITMAP
060E00
060E00
383000
383000
F80F80
F80F80
F80F80
F80F80
F80F80
F80F80
F80F80
F80F80
F80F80
F80F80
3FFF80
3FFF80
3FFF80
ENDCHAR
STARTCHAR 0172
ENCODING 370
SWIDTH 977 0
DWIDTH 19 0
BBX 17 19 0 0
BITMAP
F80F80
F80F80
F80F80
F80F80
F80F80
F80F80
F80F80
F80F80
F80F80
3FFE00
3FFE00
3FFE00
01C000
01C000
060000
060000
060000
01F000
01F000
ENDCHAR
STARTCHAR 0173
ENCODING 371
SWIDTH 977 0
DWIDTH 19 0
BBX 17 19 0 0
BITMAP
F80F80
F80F80
F80F80
F80F80
F80F80
F80F80
F80F80
F80F80
F80F80
3FFF80
3FFF80
3FFF80
01C000
01C000
060000
060000
060000
01F000
01F000
ENDCHAR
STARTCHAR 0174
ENCODING 372
SWIDTH 977 0
DWIDTH 19 0
BBX 17 17 0 2
BITMAP
07F000
07F000
3E3E00
3E3E00
F80F80
F80F80
F80F80
F9CF80
F9CF80
FFFF80
FFFF80
FFFF80
FFFF80
FFFF80
FE3F80
FE3F80
FE3F80
ENDCHAR
STARTCHAR 0175
ENCODING 373
SWIDTH 977 0
DWIDTH 19 0
BBX 17 17 0 2
BITMAP
07F000
07F000
3E3E00
3E3E00
000000
000000
000000
F9CF80
F9CF80
F9CF80
F9CF80
F9CF80
F9CF80
F9CF80
3E3E00
3E3E00
3E3E00
ENDCHAR
STARTCHAR 0176
ENCODING 374
SWIDTH 977 0
DWIDTH 19 0
BBX 15 17 2 2
BITMAP
07C0
07C0
1838
1838
F83E
F83E
F83E
F83E
F83E
1FF8
1FF8
1FF8
07C0
07C0
07C0
07C0
07C0
ENDCHAR
STARTCHAR 0177
ENCODING 375
SWIDTH 977 0
DWIDTH 19 0
BBX 17 19 0 0
BITMAP
07F000
07F000
3E3E00
3E3E00
000000
000000
000000
F80F80
F80F80
F80F80
F80F80
F80F80
3FFF80
3FFF80
000F80
000F80
000F80
3FFE00
3FFE00
ENDCHAR
STARTCHAR 0178
ENCODING 376
SWIDTH 977 0
DWIDTH 19 0
BBX 15 17 2 2
BITMAP
F83E
F83E
0000
0000
F83E
F83E
F83E
F83E
F83E
1FF8
1FF8
1FF8
07C0
07C0
07C0
07C0
07C0
ENDCHAR
STARTCHAR 0179
ENCODING 377
SWIDTH 977 0
DWIDTH 19 0
BBX 17 17 0 2
BITMAP
003000
003000
01C000
01C000
FFFF80
FFFF80
FFFF80
01FE00
01FE00
07F000
07F000
07F000
3FC000
3FC000
FFFF80
FFFF80
FFFF80
ENDCHAR
STARTCHAR 017A
ENCODING 378
SWIDTH 977 0
DWIDTH 19 0
BBX 17 17 0 2
BITMAP
003000
003000
01C000
01C000
FFFF80
FFFF80
FFFF80
01FE00
01FE00
07F000
07F000
07F000
3FC000
3FC000
FFFF80
FFFF80
FFFF80
ENDCHAR
STARTCHAR 017B
ENCODING 379
SWIDTH 977 0
DWIDTH 19 0
BBX 17 17 0 2
BITMAP
01F000
01F000
000000
000000
FFFF80
FFFF80
FFFF80
01FE00
01FE00
07F000
07F000
07F000
3FC000
3FC000
FFFF80
FFFF80
FFFF80
ENDCHAR
STARTCHAR 017C
ENCODING 380
SWIDTH 977 0
DWIDTH 19 0
BBX 17 17 0 2
BITMAP
01F000
01F000
000000
000000
FFFF80
FFFF80
FFFF80
01FE00
01FE00
07F000
07F000
07F000
3FC000
3FC000
FFFF80
FFFF80
FFFF80
ENDCHAR
STARTCHAR 017D
ENCODING 381
SWIDTH 977 0
DWIDTH 19 0
BBX 17 17 0 2
BITMAP
3E3E00
3E3E00
07F000
07F000
FFFF80
FFFF80
FFFF80
01FE00
01FE00
07F000
07F000
07F000
3FC000
3FC000
FFFF80
FFFF80
FFFF80
ENDCHAR
STARTCHAR 017E
ENCODING 382
SWIDTH 977 0
DWIDTH 19 0
BBX 17 17 0 2
BITMAP
3E3E00
3E3E00
07F000
07F000
FFFF80
FFFF80
FFFF80
01FE00
01FE00
07F000
07F000
07F000
3FC000
3FC000
FFFF80
FFFF80
FFFF80
ENDCHAR
STARTCHAR 017F
ENCODING 383
SWIDTH 977 0
DWIDTH 19 0
BBX 10 17 7 2
BITMAP
1FC0
1FC0
F800
F800
F800
F800
F800
F800
F800
F800
F800
F800
F800
F800
F800
F800
F800
ENDCHAR
STARTCHAR 0192
ENCODING 402
SWIDTH 977 0
DWIDTH 19 0
BBX 15 17 2 2
BITMAP
00FE
00FE
07C0
07C0
FFFE
FFFE
FFFE
07C0
07C0
07C0
07C0
07C0
07C0
07C0
FF00
FF00
FF00
ENDCHAR
STARTCHAR 021A
ENCODING 538
SWIDTH 977 0
DWIDTH 19 0
BBX 15 19 2 0
BITMAP
FFFE
FFFE
07C0
07C0
07C0
07C0
07C0
07C0
07C0
07C0
07C0
07C0
07C0
07C0
00C0
00C0
00C0
1F00
1F00
ENDCHAR
STARTCHAR 021B
ENCODING 539
SWIDTH 977 0
DWIDTH 19 0
BBX 15 19 2 0
BITMAP
07C0
07C0
07C0
07C0
FFFE
FFFE
FFFE
07C0
07C0
07C0
07C0
07C0
07C0
07C0
00C0
00C0
00C0
1F00
1F00
ENDCHAR
STARTCHAR 02BC
ENCODING 700
SWIDTH 977 0
DWIDTH 19 0
BBX 5 7 0 12
BITMAP
F8
F8
F8
F8
C0
C0
C0
ENDCHAR
STARTCHAR 02C6
ENCODING 710
SWIDTH 977 0
DWIDTH 19 0
BBX 13 4 2 15
BITMAP
1FC0
1FC0
F8F8
F8F8
ENDCHAR
STARTCHAR 02C7
ENCODING 711
SWIDTH 977 0
DWIDTH 19 0
BBX 13 4 2 15
BITMAP
F8F8
F8F8
1FC0
1FC0
ENDCHAR
STARTCHAR 02C9
ENCODING 713
SWIDTH 977 0
DWIDTH 19 0
BBX 13 2 2 17
BITMAP
FFF8
FFF8
ENDCHAR
STARTCHAR 02CA
ENCODING 714
SWIDTH 977 0
DWIDTH 19 0
BBX 5 4 7 15
BITMAP
18
18
E0
E0
ENDCHAR
STARTCHAR 02CB
ENCODING 715
SWIDTH 977 0
DWIDTH 19 0
BBX 5 4 7 15
BITMAP
E0
E0
18
18
ENDCHAR
STARTCHAR 02D7
ENCODING 727
SWIDTH 977 0
DWIDTH 19 0
BBX 13 2 2 10
BITMAP
FFF8
FFF8
ENDCHAR
STARTCHAR 02D8
ENCODING 728
SWIDTH 977 0
DWIDTH 19 0
BBX 13 4 2 15
BITMAP
E038
E038
1FC0
1FC0
ENDCHAR
STARTCHAR 02D9
ENCODING 729
SWIDTH 977 0
DWIDTH 19 0
BBX 5 2 7 17
BITMAP
F8
F8
ENDCHAR
STARTCHAR 02DA
ENCODING 730
SWIDTH 977 0
DWIDTH 19 0
BBX 13 7 2 12
BITMAP
1FC0
1FC0
F8F8
F8F8
1FC0
1FC0
1FC0
ENDCHAR
STARTCHAR 02DB
ENCODING 731
SWIDTH 977 0
DWIDTH 19 0
BBX 7 7 5 0
BITMAP
38
38
C0
C0
C0
3E
3E
ENDCHAR
STARTCHAR 02DC
ENCODING 732
SWIDTH 977 0
DWIDTH 19 0
BBX 13 4 2 15
BITMAP
1F38
1F38
E7C0
E7C0
ENDCHAR
STARTCHAR 02DD
ENCODING 733
SWIDTH 977 0
DWIDTH 19 0
BBX 13 4 2 15
BITMAP
1838
1838
E0C0
E0C0
ENDCHAR
STARTCHAR 0300
ENCODING 768
SWIDTH 0 0
DWIDTH 0 0
BBX 5 4 -14 15
BITMAP
E0
E0
18
18
ENDCHAR
STARTCHAR 0301
ENCODING 769
SWIDTH 0 0
DWIDTH 0 0
BBX 5 4 -12 15
BITMAP
18
18
E0
E0
ENDCHAR
STARTCHAR 0326
ENCODING 806
SWIDTH 0 0
DWIDTH 0 0
BBX 8 7 -15 -7
BITMAP
1F
1F
1F
1F
1F
F8
F8
ENDCHAR
STARTCHAR 0335
ENCODING 821
SWIDTH 0 0
DWIDTH 0 0
BBX 9 2 -14 7
BITMAP
FF80
FF80
ENDCHAR
STARTCHAR 037A
ENCODING 890
SWIDTH 977 0
DWIDTH 19 0
BBX 8 5 7 0
BITMAP
E0
E0
E0
1F
1F
ENDCHAR
STARTCHAR 037E
ENCODING 894
SWIDTH 977 0
DWIDTH 19 0
BBX 8 15 2 2
BITMAP
1F
1F
1F
1F
1F
00
00
1F
1F
1F
1F
1F
F8
F8
F8
ENDCHAR
STARTCHAR 0384
ENCODING 900
SWIDTH 977 0
DWIDTH 19 0
BBX 5 4 7 15
BITMAP
18
18
E0
E0
ENDCHAR
STARTCHAR 0385
ENCODING 901
SWIDTH 977 0
DWIDTH 19 0
BBX 15 4 2 15
BITMAP
E0C6
E0C6
0700
0700
ENDCHAR
STARTCHAR 0386
ENCODING 902
SWIDTH 977 0
DWIDTH 19 0
BBX 17 17 0 2
BITMAP
39F000
39F000
C7FE00
C7FE00
3E0F80
3E0F80
3E0F80
3E0F80
3E0F80
3FFF80
3FFF80
3FFF80
3E0F80
3E0F80
3E0F80
3E0F80
3E0F80
ENDCHAR
STARTCHAR 0387
ENCODING 903
SWIDTH 977 0
DWIDTH 19 0
BBX 5 5 5 7
BITMAP
F8
F8
F8
F8
F8
ENDCHAR
STARTCHAR 0388
ENCODING 904
SWIDTH 977 0
DWIDTH 19 0
BBX 19 17 0 2
BITMAP
3FFFE0
3FFFE0
C7C000
C7C000
07C000
07C000
07C000
07FE00
07FE00
07C000
07C000
07C000
07C000
07C000
07FFE0
07FFE0
07FFE0
ENDCHAR
STARTCHAR 0389
ENCODING 905
SWIDTH 977 0
DWIDTH 19 0
BBX 19 17 0 2
BITMAP
3FC1E0
3FC1E0
C7C1E0
C7C1E0
07C1E0
07C1E0
07C1E0
07FFE0
07FFE0
07C1E0
07C1E0
07C1E0
07C1E0
07C1E0
07C1E0
07C1E0
07C1E0
ENDCHAR
STARTCHAR 038A
ENCODING 906
SWIDTH 977 0
DWIDTH 19 0
BBX 17 17 0 2
BITMAP
39FF80
39FF80
C03E00
C03E00
003E00
003E00
003E00
003E00
003E00
003E00
003E00
003E00
003E00
003E00
01FF80
01FF80
01FF80
ENDCHAR
STARTCHAR 038C
ENCODING 908
SWIDTH 977 0
DWIDTH 19 0
BBX 19 17 0 2
BITMAP
39FF80
39FF80
C7C1E0
C7C1E0
07C1E0
07C1E0
07C1E0
07C1E0
07C1E0
07C1E0
07C1E0
07C1E0
07C1E0
07C1E0
01FF80
01FF80
01FF80
ENDCHAR
STARTCHAR 038E
ENCODING 910
SWIDTH 977 0
DWIDTH 19 0
BBX 19 17 0 2
BITMAP
3FC1E0
3FC1E0
C7C1E0
C7C1E0
07C1E0
07C1E0
07C1E0
01FF80
01FF80
003E00
003E00
003E00
003E00
003E00
003E00
003E00
003E00
ENDCHAR
STARTCHAR 038F
ENCODING 911
SWIDTH 977 0
DWIDTH 19 0
BBX 19 17 0 2
BITMAP
39FE00
39FE00
C7CF80
C7CF80
3E01E0
3E01E0
3E01E0
3E01E0
3E01E0
3E01E0
3E01E0
3E01E0
07CF80
07CF80
3FCFE0
3FCFE0
3FCFE0
ENDCHAR
STARTCHAR 0390
ENCODING 912
SWIDTH 977 0
DWIDTH 19 0
BBX 15 17 0 2
BITMAP
C1CE
C1CE
0600
0600
3FC0
3FC0
3FC0
07C0
07C0
07C0
07C0
07C0
07C0
07C0
01FE
01FE
01FE
ENDCHAR
STARTCHAR 0391
ENCODING 913
SWIDTH 977 0
DWIDTH 19 0
BBX 17 17 0 2
BITMAP
07F000
07F000
3E3E00
3E3E00
F80F80
F80F80
F80F80
F80F80
F80F80
FFFF80
FFFF80
FFFF80
F80F80
F80F80
F80F80
F80F80
F80F80
ENDCHAR
STARTCHAR 0392
ENCODING 914
SWIDTH 977 0
DWIDTH 19 0
BBX 17 17 0 2
BITMAP
FFFE00
FFFE00
F80F80
F80F80
F80F80
F80F80
F80F80
FFFE00
FFFE00
F80F80
F80F80
F80F80
F80F80
F80F80
FFFE00
FFFE00
FFFE00
ENDCHAR
STARTCHAR 0393
ENCODING 915
SWIDTH 977 0
DWIDTH 19 0
BBX 15 17 2 2
BITMAP
FFFE
FFFE
F800
F800
F800
F800
F800
F800
F800
F800
F800
F800
F800
F800
F800
F800
F800
ENDCHAR
STARTCHAR 0394
ENCODING 916
SWIDTH 977 0
DWIDTH 19 0
BBX 17 17 0 2
BITMAP
07F000
07F000
3E3E00
3E3E00
F80F80
F80F80
F80F80
F80F80
F80F80
F80F80
F80F80
F80F80
F80F80
F80F80
FFFF80
FFFF80
FFFF80
ENDCHAR
STARTCHAR 0395
ENCODING 917
SWIDTH 977 0
DWIDTH 19 0
BBX 17 17 0 2
BITMAP
FFFF80
FFFF80
F80000
F80000
F80000
F80000
F80000
FFFE00
FFFE00
F80000
F80000
F80000
F80000
F80000
FFFF80
FFFF80
FFFF80
ENDCHAR
STARTCHAR 0396
ENCODING 918
SWIDTH 977 0
DWIDTH 19 0
BBX 17 17 0 2
BITMAP
FFFF80
FFFF80
003F80
003F80
01FE00
01FE00
01FE00
07F000
07F000
3FC000
3FC000
3FC000
FE0000
FE0000
FFFF80
FFFF80
FFFF80
ENDCHAR
STARTCHAR 0397
ENCODING 919
SWIDTH 977 0
DWIDTH 19 0
BBX 17 17 0 2
BITMAP
F80F80
F80F80
F80F80
F80F80
F80F80
F80F80
F80F80
FFFF80
FFFF80
F80F80
F80F80
F80F80
F80F80
F80F80
F80F80
F80F80
F80F80
ENDCHAR
STARTCHAR 0398
ENCODING 920
SWIDTH 977 0
DWIDTH 19 0
BBX 17 17 0 2
BITMAP
3FFE00
3FFE00
F80F80
F80F80
F80F80
F80F80
F80F80
FFFF80
FFFF80
F80F80
F80F80
F80F80
F80F80
F80F80
3FFE00
3FFE00
3FFE00
ENDCHAR
STARTCHAR 0399
ENCODING 921
SWIDTH 977 0
DWIDTH 19 0
BBX 15 17 2 2
BITMAP
FFFE
FFFE
07C0
07C0
07C0
07C0
07C0
07C0
07C0
07C0
07C0
07C0
07C0
07C0
FFFE
FFFE
FFFE
ENDCHAR
STARTCHAR 039A
ENCODING 922
SWIDTH 977 0
DWIDTH 19 0
BBX 17 17 0 2
BITMAP
F80F80
F80F80
F83E00
F83E00
F9F000
F9F000
F9F000
FFC000
FFC000
FFF000
FFF000
FFF000
F9FE00
F9FE00
F83F80
F83F80
F83F80
ENDCHAR
STARTCHAR 039B
ENCODING 923
SWIDTH 977 0
DWIDTH 19 0
BBX 17 17 0 2
BITMAP
07F000
07F000
3E3E00
3E3E00
F80F80
F80F80
F80F80
F80F80
F80F80
F80F80
F80F80
F80F80
F80F80
F80F80
F80F80
F80F80
F80F80
ENDCHAR
STARTCHAR 039C
ENCODING 924
SWIDTH 977 0
DWIDTH 19 0
BBX 17 17 0 2
BITMAP
F80F80
F80F80
FE3F80
FE3F80
FFFF80
FFFF80
FFFF80
F9CF80
F9CF80
F9CF80
F9CF80
F9CF80
F80F80
F80F80
F80F80
F80F80
F80F80
ENDCHAR
STARTCHAR 039D
ENCODING 925
SWIDTH 977 0
DWIDTH 19 0
BBX 17 17 0 2
BITMAP
F80F80
F80F80
FE0F80
FE0F80
FFCF80
FFCF80
FFCF80
F9FF80
F9FF80
F83F80
F83F80
F83F80
F80F80
F80F80
F80F80
F80F80
F80F80
ENDCHAR
STARTCHAR 039E
ENCODING 926
SWIDTH 977 0
DWIDTH 19 0
BBX 17 17 0 2
BITMAP
FFFF80
FFFF80
000000
000000
000000
000000
000000
3FFE00
3FFE00
000000
000000
000000
000000
000000
FFFF80
FFFF80
FFFF80
ENDCHAR
STARTCHAR 039F
ENCODING 927
SWIDTH 977 0
DWIDTH 19 0
BBX 17 17 0 2
BITMAP
3FFE00
3FFE00
F80F80
F80F80
F80F80
F80F80
F80F80
F80F80
F80F80
F80F80
F80F80
F80F80
F80F80
F80F80
3FFE00
3FFE00
3FFE00
ENDCHAR
STARTCHAR 03A0
ENCODING 928
SWIDTH 977 0
DWIDTH 19 0
BBX 17 17 0 2
BITMAP
FFFF80
FFFF80
F80F80
F80F80
F80F80
F80F80
F80F80
F80F80
F80F80
F80F80
F80F80
F80F80
F80F80
F80F80
F80F80
F80F80
F80F80
ENDCHAR
STARTCHAR 03A1
ENCODING 929
SWIDTH 977 0
DWIDTH 19 0
BBX 17 17 0 2
BITMAP
FFFE00
FFFE00
F80F80
F80F80
F80F80
F80F80
F80F80
F80F80
F80F80
FFFE00
FFFE00
FFFE00
F80000
F80000
F80000
F80000
F80000
ENDCHAR
STARTCHAR 03A3
ENCODING 931
SWIDTH 977 0
DWIDTH 19 0
BBX 17 17 0 2
BITMAP
FFFF80
FFFF80
3E0F80
3E0F80
07C000
07C000
07C000
01FE00
01FE00
07C000
07C000
07C000
3E0F80
3E0F80
FFFF80
FFFF80
FFFF80
ENDCHAR
STARTCHAR 03A4
ENCODING 932
SWIDTH 977 0
DWIDTH 19 0
BBX 15 17 2 2
BITMAP
FFFE
FFFE
07C0
07C0
07C0
07C0
07C0
07C0
07C0
07C0
07C0
07C0
07C0
07C0
07C0
07C0
07C0
ENDCHAR
STARTCHAR 03A5
ENCODING 933
SWIDTH 977 0
DWIDTH 19 0
BBX 15 17 2 2
BITMAP
F83E
F83E
F83E
F83E
F83E
F83E
F83E
1FF8
1FF8
07C0
07C0
07C0
07C0
07C0
07C0
07C0
07C0
ENDCHAR
STARTCHAR 03A6
ENCODING 934
SWIDTH 977 0
DWIDTH 19 0
BBX 17 17 0 2
BITMAP
01C000
01C000
3FFE00
3FFE00
F9CF80
F9CF80
F9CF80
F9CF80
F9CF80
F9CF80
F9CF80
F9CF80
3FFE00
3FFE00
01C000
01C000
01C000
ENDCHAR
STARTCHAR 03A7
ENCODING 935
SWIDTH 977 0
DWIDTH 19 0
BBX 17 17 0 2
BITMAP
F80F80
F80F80
F80F80
F80F80
3E3E00
3E3E00
3E3E00
07F000
07F000
3E3E00
3E3E00
3E3E00
F80F80
F80F80
F80F80
F80F80
F80F80
ENDCHAR
STARTCHAR 03A8
ENCODING 936
SWIDTH 977 0
DWIDTH 19 0
BBX 19 17 0 2
BITMAP
F9F1E0
F9F1E0
F9F1E0
F9F1E0
F9F1E0
F9F1E0
F9F1E0
3FFF80
3FFF80
01F000
01F000
01F000
01F000
01F000
07FE00
07FE00
07FE00
ENDCHAR
STARTCHAR 03A9
ENCODING 937
SWIDTH 977 0
DWIDTH 19 0
BBX 17 17 0 2
BITMAP
07F000
07F000
3E3E00
3E3E00
F80F80
F80F80
F80F80
F80F80
F80F80
F80F80
F80F80
F80F80
3E3E00
3E3E00
FE3F80
FE3F80
FE3F80
ENDCHAR
STARTCHAR 03AA
ENCODING 938
SWIDTH 977 0
DWIDTH 19 0
BBX 15 17 2 2
BITMAP
F83E
F83E
0000
0000
FFFE
FFFE
FFFE
07C0
07C0
07C0
07C0
07C0
07C0
07C0
FFFE
FFFE
FFFE
ENDCHAR
STARTCHAR 03AB
ENCODING 939
SWIDTH 977 0
DWIDTH 19 0
BBX 15 17 2 2
BITMAP
F83E
F83E
0000
0000
F83E
F83E
F83E
F83E
F83E
1FF8
1FF8
1FF8
07C0
07C0
07C0
07C0
07C0
ENDCHAR
STARTCHAR 03AC
ENCODING 940
SWIDTH 977 0
DWIDTH 19 0
BBX 17 17 0 2
BITMAP
003000
003000
01C000
01C000
3FFF80
3FFF80
3FFF80
F80F80
F80F80
F80F80
F80F80
F80F80
F80F80
F80F80
3FFF80
3FFF80
3FFF80
ENDCHAR
STARTCHAR 03AD
ENCODING 941
SWIDTH 977 0
DWIDTH 19 0
BBX 17 17 0 2
BITMAP
003000
003000
01C000
01C000
3FFF80
3FFF80
3FFF80
F80000
F80000
3FFE00
3FFE00
3FFE00
F80000
F80000
3FFF80
3FFF80
3FFF80
ENDCHAR
STARTCHAR 03AE
ENCODING 942
SWIDTH 977 0
DWIDTH 19 0
BBX 17 19 0 0
BITMAP
003000
003000
01C000
01C000
F9FE00
F9FE00
F9FE00
3E0F80
3E0F80
3E0F80
3E0F80
3E0F80
3E0F80
3E0F80
3E0F80
3E0F80
3E0F80
000F80
000F80
ENDCHAR
STARTCHAR 03AF
ENCODING 943
SWIDTH 977 0
DWIDTH 19 0
BBX 13 17 2 2
BITMAP
0700
0700
1800
1800
FF00
FF00
FF00
1F00
1F00
1F00
1F00
1F00
1F00
1F00
07F8
07F8
07F8
ENDCHAR
STARTCHAR 03B0
ENCODING 944
SWIDTH 977 0
DWIDTH 19 0
BBX 17 17 0 2
BITMAP
C1CE00
C1CE00
060000
060000
F83E00
F83E00
F83E00
3E0F80
3E0F80
3E0F80
3E0F80
3E0F80
3E0F80
3E0F80
07FE00
07FE00
07FE00
ENDCHAR
STARTCHAR 03B1
ENCODING 945
SWIDTH 977 0
DWIDTH 19 0
BBX 17 13 0 2
BITMAP
3FFF80
3FFF80
3FFF80
F80F80
F80F80
F80F80
F80F80
F80F80
F80F80
F80F80
3FFF80
3FFF80
3FFF80
ENDCHAR
STARTCHAR 03B2
ENCODING 946
SWIDTH 977 0
DWIDTH 19 0
BBX 17 19 0 0
BITMAP
3FFE00
3FFE00
F80F80
F80F80
F80F80
F80F80
F80F80
FFFE00
FFFE00
F80F80
F80F80
F80F80
F80F80
F80F80
FFFE00
FFFE00
FFFE00
F80000
F80000
ENDCHAR
STARTCHAR 03B3
ENCODING 947
SWIDTH 977 0
DWIDTH 19 0
BBX 17 15 0 0
BITMAP
F80F80
F80F80
F80F80
3E0F80
3E0F80
3E0F80
3E0F80
3E0F80
07FE00
07FE00
01F000
01F000
01F000
01F000
01F000
ENDCHAR
STARTCHAR 03B4
ENCODING 948
SWIDTH 977 0
DWIDTH 19 0
BBX 17 17 0 2
BITMAP
003F80
003F80
01F000
01F000
003E00
003E00
003E00
3FFF80
3FFF80
F80F80
F80F80
F80F80
F80F80
F80F80
3FFE00
3FFE00
3FFE00
ENDCHAR
STARTCHAR 03B5
ENCODING 949
SWIDTH 977 0
DWIDTH 19 0
BBX 17 13 0 2
BITMAP
3FFF80
3FFF80
3FFF80
F80000
F80000
3FFE00
3FFE00
3FFE00
F80000
F80000
3FFF80
3FFF80
3FFF80
ENDCHAR
STARTCHAR 03B6
ENCODING 950
SWIDTH 977 0
DWIDTH 19 0
BBX 17 19 0 0
BITMAP
3FFE00
3FFE00
07C000
07C000
3E0000
3E0000
3E0000
F80000
F80000
F80000
F80000
F80000
3FFE00
3FFE00
000F80
000F80
000F80
003E00
003E00
ENDCHAR
STARTCHAR 03B7
ENCODING 951
SWIDTH 977 0
DWIDTH 19 0
BBX 17 15 0 0
BITMAP
F9FE00
F9FE00
F9FE00
3E0F80
3E0F80
3E0F80
3E0F80
3E0F80
3E0F80
3E0F80
3E0F80
3E0F80
3E0F80
000F80
000F80
ENDCHAR
STARTCHAR 03B8
ENCODING 952
SWIDTH 977 0
DWIDTH 19 0
BBX 17 17 0 2
BITMAP
07F000
07F000
3E3E00
3E3E00
F80F80
F80F80
F80F80
FFFF80
FFFF80
F80F80
F80F80
F80F80
3E3E00
3E3E00
07F000
07F000
07F000
ENDCHAR
STARTCHAR 03B9
ENCODING 953
SWIDTH 977 0
DWIDTH 19 0
BBX 13 13 2 2
BITMAP
FF00
FF00
FF00
1F00
1F00
1F00
1F00
1F00
1F00
1F00
07F8
07F8
07F8
ENDCHAR
STARTCHAR 03BA
ENCODING 954
SWIDTH 977 0
DWIDTH 19 0
BBX 17 13 0 2
BITMAP
F80F80
F80F80
F80F80
F83E00
F83E00
FFF000
FFF000
FFF000
F83E00
F83E00
F80F80
F80F80
F80F80
ENDCHAR
STARTCHAR 03BB
ENCODING 955
SWIDTH 977 0
DWIDTH 19 0
BBX 17 17 0 2
BITMAP
F80000
F80000
3E0000
3E0000
07C000
07C000
07C000
07F000
07F000
3E3E00
3E3E00
3E3E00
F80F80
F80F80
F80F80
F80F80
F80F80
ENDCHAR
STARTCHAR 03BC
ENCODING 956
SWIDTH 977 0
DWIDTH 19 0
BBX 17 15 0 0
BITMAP
F83E00
F83E00
F83E00
F83E00
F83E00
F83E00
F83E00
F83E00
F83E00
F83E00
FFCF80
FFCF80
FFCF80
F80000
F80000
ENDCHAR
STARTCHAR 03BD
ENCODING 957
SWIDTH 977 0
DWIDTH 19 0
BBX 17 13 0 2
BITMAP
F80F80
F80F80
F80F80
3E0F80
3E0F80
3E0F80
3E0F80
3E0F80
07FE00
07FE00
01F000
01F000
01F000
ENDCHAR
STARTCHAR 03BE
ENCODING 958
SWIDTH 977 0
DWIDTH 19 0
BBX 15 19 0 0
BITMAP
FFFE
FFFE
3E00
3E00
07F0
07F0
07F0
3E00
3E00
F800
F800
F800
3FF0
3FF0
003E
003E
003E
01F0
01F0
ENDCHAR
STARTCHAR 03BF
ENCODING 959
SWIDTH 977 0
DWIDTH 19 0
BBX 17 13 0 2
BITMAP
3FFE00
3FFE00
3FFE00
F80F80
F80F80
F80F80
F80F80
F80F80
F80F80
F80F80
3FFE00
3FFE00
3FFE00
ENDCHAR
STARTCHAR 03C0
ENCODING 960
SWIDTH 977 0
DWIDTH 19 0
BBX 17 13 0 2
BITMAP
FFFF80
FFFF80
FFFF80
3E3E00
3E3E00
3E3E00
3E3E00
3E3E00
3E3E00
3E3E00
FE0F80
FE0F80
FE0F80
ENDCHAR
STARTCHAR 03C1
ENCODING 961
SWIDTH 977 0
DWIDTH 19 0
BBX 17 15 0 0
BITMAP
3FFE00
3FFE00
3FFE00
F80F80
F80F80
F80F80
F80F80
F80F80
FFFE00
FFFE00
F80000
F80000
F80000
F80000
F80000
ENDCHAR
STARTCHAR 03C2
ENCODING 962
SWIDTH 977 0
DWIDTH 19 0
BBX 17 15 0 0
BITMAP
3FFE00
3FFE00
3FFE00
F80000
F80000
F80000
F80000
F80000
3FFE00
3FFE00
000F80
000F80
000F80
3FFE00
3FFE00
ENDCHAR
STARTCHAR 03C3
ENCODING 963
SWIDTH 977 0
DWIDTH 19 0
BBX 17 13 0 2
BITMAP
3FFF80
3FFF80
3FFF80
F9F000
F9F000
F83E00
F83E00
F83E00
F83E00
F83E00
3FF000
3FF000
3FF000
ENDCHAR
STARTCHAR 03C4
ENCODING 964
SWIDTH 977 0
DWIDTH 19 0
BBX 15 13 2 2
BITMAP
FFFE
FFFE
FFFE
07C0
07C0
07C0
07C0
07C0
07C0
07C0
00FE
00FE
00FE
ENDCHAR
STARTCHAR 03C5
ENCODING 965
SWIDTH 977 0
DWIDTH 19 0
BBX 17 13 0 2
BITMAP
F83E00
F83E00
F83E00
3E0F80
3E0F80
3E0F80
3E0F80
3E0F80
3E0F80
3E0F80
07FE00
07FE00
07FE00
ENDCHAR
STARTCHAR 03C6
ENCODING 966
SWIDTH 977 0
DWIDTH 19 0
BBX 17 15 0 0
BITMAP
383E00
383E00
383E00
F9CF80
F9CF80
F9CF80
F9CF80
F9CF80
F9CF80
F9CF80
3FFE00
3FFE00
3FFE00
01C000
01C000
ENDCHAR
STARTCHAR 03C7
ENCODING 967
SWIDTH 977 0
DWIDTH 19 0
BBX 17 15 0 0
BITMAP
F80F80
F80F80
F80F80
3E3E00
3E3E00
07F000
07F000
07F000
3E3E00
3E3E00
F80F80
F80F80
F80F80
F80F80
F80F80
ENDCHAR
STARTCHAR 03C8
ENCODING 968
SWIDTH 977 0
DWIDTH 19 0
BBX 19 17 0 0
BITMAP
01F000
01F000
F9F1E0
F9F1E0
F9F1E0
F9F1E0
F9F1E0
F9F1E0
F9F1E0
F9F1E0
F9F1E0
F9F1E0
3FFF80
3FFF80
3FFF80
01F000
01F000
ENDCHAR
STARTCHAR 03C9
ENCODING 969
SWIDTH 977 0
DWIDTH 19 0
BBX 17 13 0 2
BITMAP
380E00
380E00
380E00
F9CF80
F9CF80
F9CF80
F9CF80
F9CF80
F9CF80
F9CF80
3E3E00
3E3E00
3E3E00
ENDCHAR
STARTCHAR 03CA
ENCODING 970
SWIDTH 977 0
DWIDTH 19 0
BBX 15 17 0 2
BITMAP
F9F0
F9F0
0000
0000
3FC0
3FC0
3FC0
07C0
07C0
07C0
07C0
07C0
07C0
07C0
01FE
01FE
01FE
ENDCHAR
STARTCHAR 03CB
ENCODING 971
SWIDTH 977 0
DWIDTH 19 0
BBX 17 17 0 2
BITMAP
3E3E00
3E3E00
000000
000000
F83E00
F83E00
F83E00
3E0F80
3E0F80
3E0F80
3E0F80
3E0F80
3E0F80
3E0F80
07FE00
07FE00
07FE00
ENDCHAR
STARTCHAR 03CC
ENCODING 972
SWIDTH 977 0
DWIDTH 19 0
BBX 17 17 0 2
BITMAP
003000
003000
01C000
01C000
3FFE00
3FFE00
3FFE00
F80F80
F80F80
F80F80
F80F80
F80F80
F80F80
F80F80
3FFE00
3FFE00
3FFE00
ENDCHAR
STARTCHAR 03CD
ENCODING 973
SWIDTH 977 0
DWIDTH 19 0
BBX 17 17 0 2
BITMAP
003000
003000
01C000
01C000
F83E00
F83E00
F83E00
3E0F80
3E0F80
3E0F80
3E0F80
3E0F80
3E0F80
3E0F80
07FE00
07FE00
07FE00
ENDCHAR
STARTCHAR 03CE
ENCODING 974
SWIDTH 977 0
DWIDTH 19 0
BBX 17 17 0 2
BITMAP
003000
003000
01C000
01C000
380E00
380E00
380E00
F9CF80
F9CF80
F9CF80
F9CF80
F9CF80
F9CF80
F9CF80
3E3E00
3E3E00
3E3E00
ENDCHAR
STARTCHAR 0400
ENCODING 1024
SWIDTH 977 0
DWIDTH 19 0
BBX 17 17 0 2
BITMAP
060000
060000
01C000
01C000
FFFF80
FFFF80
FFFF80
F80000
F80000
FFFE00
FFFE00
FFFE00
F80000
F80000
FFFF80
FFFF80
FFFF80
ENDCHAR
STARTCHAR 0401
ENCODING 1025
SWIDTH 977 0
DWIDTH 19 0
BBX 17 17 0 2
BITMAP
3E3E00
3E3E00
000000
000000
FFFF80
FFFF80
FFFF80
F80000
F80000
FFFE00
FFFE00
FFFE00
F80000
F80000
FFFF80
FFFF80
FFFF80
ENDCHAR
STARTCHAR 0402
ENCODING 1026
SWIDTH 977 0
DWIDTH 19 0
BBX 17 19 0 0
BITMAP
FFF000
FFF000
3E0000
3E0000
3FFE00
3FFE00
3FFE00
3E0F80
3E0F80
3E0F80
3E0F80
3E0F80
3E0F80
3E0F80
3E0F80
3E0F80
3E0F80
003E00
003E00
ENDCHAR
STARTCHAR 0403
ENCODING 1027
SWIDTH 977 0
DWIDTH 19 0
BBX 15 17 2 2
BITMAP
00C0
00C0
0700
0700
FFFE
FFFE
FFFE
F806
F806
F800
F800
F800
F800
F800
F800
F800
F800
ENDCHAR
STARTCHAR 0404
ENCODING 1028
SWIDTH 977 0
DWIDTH 19 0
BBX 17 17 0 2
BITMAP
07FE00
07FE00
3E0F80
3E0F80
F80000
F80000
F80000
FFFE00
FFFE00
F80000
F80000
F80000
3E0F80
3E0F80
07FE00
07FE00
07FE00
ENDCHAR
STARTCHAR 0405
ENCODING 1029
SWIDTH 977 0
DWIDTH 19 0
BBX 17 17 0 2
BITMAP
3FFE00
3FFE00
F80F80
F80F80
F80000
F80000
F80000
3FFE00
3FFE00
000F80
000F80
000F80
F80F80
F80F80
3FFE00
3FFE00
3FFE00
ENDCHAR
STARTCHAR 0406
ENCODING 1030
SWIDTH 977 0
DWIDTH 19 0
BBX 15 17 2 2
BITMAP
FFFE
FFFE
07C0
07C0
07C0
07C0
07C0
07C0
07C0
07C0
07C0
07C0
07C0
07C0
FFFE
FFFE
FFFE
ENDCHAR
STARTCHAR 0407
ENCODING 1031
SWIDTH 977 0
DWIDTH 19 0
BBX 15 17 2 2
BITMAP
F83E
F83E
0000
0000
FFFE
FFFE
FFFE
07C0
07C0
07C0
07C0
07C0
07C0
07C0
FFFE
FFFE
FFFE
ENDCHAR
STARTCHAR 0408
ENCODING 1032
SWIDTH 977 0
DWIDTH 19 0
BBX 17 17 0 2
BITMAP
000F80
000F80
000F80
000F80
000F80
000F80
000F80
000F80
000F80
000F80
000F80
000F80
F80F80
F80F80
3FFE00
3FFE00
3FFE00
ENDCHAR
STARTCHAR 0409
ENCODING 1033
SWIDTH 977 0
DWIDTH 19 0
BBX 17 17 0 2
BITMAP
3FF000
3FF000
39F000
39F000
39FF80
39FF80
39FF80
39F180
39F180
39F180
39F180
39F180
F9F180
F9F180
F9FF80
F9FF80
F9FF80
ENDCHAR
STARTCHAR 040A
ENCODING 1034
SWIDTH 977 0
DWIDTH 19 0
BBX 17 17 0 2
BITMAP
F9F000
F9F000
F9F000
F9F000
F9FF80
F9FF80
F9FF80
FFF180
FFF180
F9F180
F9F180
F9F180
F9F180
F9F180
F9FF80
F9FF80
F9FF80
ENDCHAR
STARTCHAR 040B
ENCODING 1035
SWIDTH 977 0
DWIDTH 19 0
BBX 17 17 0 2
BITMAP
FFF000
FFF000
3E0000
3E0000
3FFE00
3FFE00
3FFE00
3E0F80
3E0F80
3E0F80
3E0F80
3E0F80
3E0F80
3E0F80
3E0F80
3E0F80
3E0F80
ENDCHAR
STARTCHAR 040C
ENCODING 1036
SWIDTH 977 0
DWIDTH 19 0
BBX 17 17 0 2
BITMAP
003000
003000
01C000
01C000
F80F80
F80F80
F80F80
F83000
F83000
FFFE00
FFFE00
FFFE00
F80F80
F80F80
F80F80
F80F80
F80F80
ENDCHAR
STARTCHAR 040D
ENCODING 1037
SWIDTH 977 0
DWIDTH 19 0
BBX 17 17 0 2
BITMAP
060000
060000
01C000
01C000
F80F80
F80F80
F80F80
F83F80
F83F80
F9FF80
F9FF80
F9FF80
FFCF80
FFCF80
FE0F80
FE0F80
FE0F80
ENDCHAR
STARTCHAR 040E
ENCODING 1038
SWIDTH 977 0
DWIDTH 19 0
BBX 17 19 0 0
BITMAP
3FFE00
3FFE00
000000
000000
F80F80
F80F80
F80F80
F80F80
F80F80
F80F80
F80F80
F80F80
3FFF80
3FFF80
000F80
000F80
000F80
3FFE00
3FFE00
ENDCHAR
STARTCHAR 040F
ENCODING 1039
SWIDTH 977 0
DWIDTH 19 0
BBX 17 19 0 0
BITMAP
F80F80
F80F80
F80F80
F80F80
F80F80
F80F80
F80F80
F80F80
F80F80
F80F80
F80F80
F80F80
F80F80
F80F80
FFFF80
FFFF80
FFFF80
01C000
01C000
ENDCHAR
STARTCHAR 0410
ENCODING 1040
SWIDTH 977 0
DWIDTH 19 0
BBX 17 17 0 2
BITMAP
07F000
07F000
3E3E00
3E3E00
F80F80
F80F80
F80F80
F80F80
F80F80
FFFF80
FFFF80
FFFF80
F80F80
F80F80
F80F80
F80F80
F80F80
ENDCHAR
STARTCHAR 0411
ENCODING 1041
SWIDTH 977 0
DWIDTH 19 0
BBX 17 17 0 2
BITMAP
FFFE00
FFFE00
F80000
F80000
F80000
F80000
F80000
FFFE00
FFFE00
F80F80
F80F80
F80F80
F80F80
F80F80
FFFE00
FFFE00
FFFE00
ENDCHAR
STARTCHAR 0412
ENCODING 1042
SWIDTH 977 0
DWIDTH 19 0
BBX 17 17 0 2
BITMAP
FFFE00
FFFE00
F80F80
F80F80
F80F80
F80F80
F80F80
FFFE00
FFFE00
F80F80
F80F80
F80F80
F80F80
F80F80
FFFE00
FFFE00
FFFE00
ENDCHAR
STARTCHAR 0413
ENCODING 1043
SWIDTH 977 0
DWIDTH 19 0
BBX 15 17 2 2
BITMAP
FFFE
FFFE
F806
F806
F800
F800
F800
F800
F800
F800
F800
F800
F800
F800
F800
F800
F800
ENDCHAR
STARTCHAR 0414
ENCODING 1044
SWIDTH 977 0
DWIDTH 19 0
BBX 19 19 0 0
BITMAP
07FF80
07FF80
060F80
060F80
060F80
060F80
060F80
060F80
060F80
3E0F80
3E0F80
3E0F80
3E0F80
3E0F80
FFFFE0
FFFFE0
FFFFE0
F801E0
F801E0
ENDCHAR
STARTCHAR 0415
ENCODING 1045
SWIDTH 977 0
DWIDTH 19 0
BBX 17 17 0 2
BITMAP
FFFF80
FFFF80
F80000
F80000
F80000
F80000
F80000
FFFE00
FFFE00
F80000
F80000
F80000
F80000
F80000
FFFF80
FFFF80
FFFF80
ENDCHAR
STARTCHAR 0416
ENCODING 1046
SWIDTH 977 0
DWIDTH 19 0
BBX 17 17 0 2
BITMAP
F9CF80
F9CF80
F9CF80
F9CF80
39CE00
39CE00
39CE00
07F000
07F000
39CE00
39CE00
39CE00
F9CF80
F9CF80
F9CF80
F9CF80
F9CF80
ENDCHAR
STARTCHAR 0417
ENCODING 1047
SWIDTH 977 0
DWIDTH 19 0
BBX 17 17 0 2
BITMAP
3FFE00
3FFE00
F80F80
F80F80
000F80
000F80
000F80
07FE00
07FE00
000F80
000F80
000F80
F80F80
F80F80
3FFE00
3FFE00
3FFE00
ENDCHAR
STARTCHAR 0418
ENCODING 1048
SWIDTH 977 0
DWIDTH 19 0
BBX 17 17 0 2
BITMAP
F80F80
F80F80
F80F80
F80F80
F83F80
F83F80
F83F80
F9FF80
F9FF80
FFCF80
FFCF80
FFCF80
FE0F80
FE0F80
F80F80
F80F80
F80F80
ENDCHAR
STARTCHAR 0419
ENCODING 1049
SWIDTH 977 0
DWIDTH 19 0
BBX 17 17 0 2
BITMAP
3FFE00
3FFE00
000000
000000
F80F80
F80F80
F80F80
F83F80
F83F80
F9FF80
F9FF80
F9FF80
FFCF80
FFCF80
FE0F80
FE0F80
FE0F80
ENDCHAR
STARTCHAR 041A
ENCODING 1050
SWIDTH 977 0
DWIDTH 19 0
BBX 17 17 0 2
BITMAP
F80F80
F80F80
F83E00
F83E00
F9C000
F9C000
F9C000
FFF000
FFF000
F83E00
F83E00
F83E00
F83E00
F83E00
F80F80
F80F80
F80F80
ENDCHAR
STARTCHAR 041B
ENCODING 1051
SWIDTH 977 0
DWIDTH 19 0
BBX 17 17 0 2
BITMAP
07FF80
07FF80
060F80
060F80
060F80
060F80
060F80
060F80
060F80
3E0F80
3E0F80
3E0F80
FE0F80
FE0F80
F80F80
F80F80
F80F80
ENDCHAR
STARTCHAR 041C
ENCODING 1052
SWIDTH 977 0
DWIDTH 19 0
BBX 17 17 0 2
BITMAP
F80F80
F80F80
FE3F80
FE3F80
FFFF80
FFFF80
FFFF80
F9CF80
F9CF80
F9CF80
F9CF80
F9CF80
F80F80
F80F80
F80F80
F80F80
F80F80
ENDCHAR
STARTCHAR 041D
ENCODING 1053
SWIDTH 977 0
DWIDTH 19 0
BBX 17 17 0 2
BITMAP
F80F80
F80F80
F80F80
F80F80
F80F80
F80F80
F80F80
FFFF80
FFFF80
F80F80
F80F80
F80F80
F80F80
F80F80
F80F80
F80F80
F80F80
ENDCHAR
STARTCHAR 041E
ENCODING 1054
SWIDTH 977 0
DWIDTH 19 0
BBX 17 17 0 2
BITMAP
3FFE00
3FFE00
F80F80
F80F80
F80F80
F80F80
F80F80
F80F80
F80F80
F80F80
F80F80
F80F80
F80F80
F80F80
3FFE00
3FFE00
3FFE00
ENDCHAR
STARTCHAR 041F
ENCODING 1055
SWIDTH 977 0
DWIDTH 19 0
BBX 17 17 0 2
BITMAP
FFFF80
FFFF80
F80F80
F80F80
F80F80
F80F80
F80F80
F80F80
F80F80
F80F80
F80F80
F80F80
F80F80
F80F80
F80F80
F80F80
F80F80
ENDCHAR
STARTCHAR 0420
ENCODING 1056
SWIDTH 977 0
DWIDTH 19 0
BBX 17 17 0 2
BITMAP
FFFE00
FFFE00
F80F80
F80F80
F80F80
F80F80
F80F80
F80F80
F80F80
FFFE00
FFFE00
FFFE00
F80000
F80000
F80000
F80000
F80000
ENDCHAR
STARTCHAR 0421
ENCODING 1057
SWIDTH 977 0
DWIDTH 19 0
BBX 17 17 0 2
BITMAP
07FE00
07FE00
3E0F80
3E0F80
F80000
F80000
F80000
F80000
F80000
F80000
F80000
F80000
3E0F80
3E0F80
07FE00
07FE00
07FE00
ENDCHAR
STARTCHAR 0422
ENCODING 1058
SWIDTH 977 0
DWIDTH 19 0
BBX 15 17 2 2
BITMAP
FFFE
FFFE
07C0
07C0
07C0
07C0
07C0
07C0
07C0
07C0
07C0
07C0
07C0
07C0
07C0
07C0
07C0
ENDCHAR
STARTCHAR 0423
ENCODING 1059
SWIDTH 977 0
DWIDTH 19 0
BBX 17 17 0 2
BITMAP
F80F80
F80F80
F80F80
F80F80
F80F80
F80F80
F80F80
3FFF80
3FFF80
000F80
000F80
000F80
F80F80
F80F80
3FFE00
3FFE00
3FFE00
ENDCHAR
STARTCHAR 0424
ENCODING 1060
SWIDTH 977 0
DWIDTH 19 0
BBX 17 17 0 2
BITMAP
01C000
01C000
3FFE00
3FFE00
F9CF80
F9CF80
F9CF80
F9CF80
F9CF80
F9CF80
F9CF80
F9CF80
3FFE00
3FFE00
01C000
01C000
01C000
ENDCHAR
STARTCHAR 0425
ENCODING 1061
SWIDTH 977 0
DWIDTH 19 0
BBX 17 17 0 2
BITMAP
F80F80
F80F80
F80F80
F80F80
3E3E00
3E3E00
3E3E00
07F000
07F000
3E3E00
3E3E00
3E3E00
F80F80
F80F80
F80F80
F80F80
F80F80
ENDCHAR
STARTCHAR 0426
ENCODING 1062
SWIDTH 977 0
DWIDTH 19 0
BBX 17 19 0 0
BITMAP
F83E00
F83E00
F83E00
F83E00
F83E00
F83E00
F83E00
F83E00
F83E00
F83E00
F83E00
F83E00
F83E00
F83E00
FFFF80
FFFF80
FFFF80
000F80
000F80
ENDCHAR
STARTCHAR 0427
ENCODING 1063
SWIDTH 977 0
DWIDTH 19 0
BBX 17 17 0 2
BITMAP
F80F80
F80F80
F80F80
F80F80
F80F80
F80F80
F80F80
3FFF80
3FFF80
000F80
000F80
000F80
000F80
000F80
000F80
000F80
000F80
ENDCHAR
STARTCHAR 0428
ENCODING 1064
SWIDTH 977 0
DWIDTH 19 0
BBX 17 17 0 2
BITMAP
F9CF80
F9CF80
F9CF80
F9CF80
F9CF80
F9CF80
F9CF80
F9CF80
F9CF80
F9CF80
F9CF80
F9CF80
F9CF80
F9CF80
FFFF80
FFFF80
FFFF80
ENDCHAR
STARTCHAR 0429
ENCODING 1065
SWIDTH 977 0
DWIDTH 19 0
BBX 19 19 0 0
BITMAP
F9CF80
F9CF80
F9CF80
F9CF80
F9CF80
F9CF80
F9CF80
F9CF80
F9CF80
F9CF80
F9CF80
F9CF80
F9CF80
F9CF80
FFFFE0
FFFFE0
FFFFE0
0001E0
0001E0
ENDCHAR
STARTCHAR 042A
ENCODING 1066
SWIDTH 977 0
DWIDTH 19 0
BBX 17 17 0 2
BITMAP
FE0000
FE0000
3E0000
3E0000
3FFE00
3FFE00
3FFE00
3E0F80
3E0F80
3E0F80
3E0F80
3E0F80
3E0F80
3E0F80
3FFE00
3FFE00
3FFE00
ENDCHAR
STARTCHAR 042B
ENCODING 1067
SWIDTH 977 0
DWIDTH 19 0
BBX 17 17 0 2
BITMAP
F80F80
F80F80
F80F80
F80F80
FFCF80
FFCF80
FFCF80
F9CF80
F9CF80
F9CF80
F9CF80
F9CF80
F9CF80
F9CF80
FFCF80
FFCF80
FFCF80
ENDCHAR
STARTCHAR 042C
ENCODING 1068
SWIDTH 977 0
DWIDTH 19 0
BBX 17 17 0 2
BITMAP
F80000
F80000
F80000
F80000
FFFE00
FFFE00
FFFE00
F80F80
F80F80
F80F80
F80F80
F80F80
F80F80
F80F80
FFFE00
FFFE00
FFFE00
ENDCHAR
STARTCHAR 042D
ENCODING 1069
SWIDTH 977 0
DWIDTH 19 0
BBX 17 17 0 2
BITMAP
3FF000
3FF000
F83E00
F83E00
000F80
000F80
000F80
3FFF80
3FFF80
000F80
000F80
000F80
F83E00
F83E00
3FF000
3FF000
3FF000
ENDCHAR
STARTCHAR 042E
ENCODING 1070
SWIDTH 977 0
DWIDTH 19 0
BBX 17 17 0 2
BITMAP
C1FE00
C1FE00
C7CF80
C7CF80
C7CF80
C7CF80
C7CF80
FFCF80
FFCF80
C7CF80
C7CF80
C7CF80
C7CF80
C7CF80
C1FE00
C1FE00
C1FE00
ENDCHAR
STARTCHAR 042F
ENCODING 1071
SWIDTH 977 0
DWIDTH 19 0
BBX 17 17 0 2
BITMAP
3FFF80
3FFF80
F80F80
F80F80
F80F80
F80F80
F80F80
FE0F80
FE0F80
07FF80
07FF80
07FF80
3E0F80
3E0F80
FE0F80
FE0F80
FE0F80
ENDCHAR
STARTCHAR 0430
ENCODING 1072
SWIDTH 977 0
DWIDTH 19 0
BBX 17 13 0 2
BITMAP
3FFE00
3FFE00
3FFE00
000F80
000F80
3FFF80
3FFF80
3FFF80
F80F80
F80F80
3FFF80
3FFF80
3FFF80
ENDCHAR
STARTCHAR 0431
ENCODING 1073
SWIDTH 977 0
DWIDTH 19 0
BBX 17 17 0 2
BITMAP
3FFF80
3FFF80
F80000
F80000
F9FE00
F9FE00
F9FE00
FE0F80
FE0F80
F80F80
F80F80
F80F80
F80F80
F80F80
3FFE00
3FFE00
3FFE00
ENDCHAR
STARTCHAR 0432
ENCODING 1074
SWIDTH 977 0
DWIDTH 19 0
BBX 17 13 0 2
BITMAP
FFFE00
FFFE00
FFFE00
F80F80
F80F80
FFFE00
FFFE00
FFFE00
F80F80
F80F80
FFFE00
FFFE00
FFFE00
ENDCHAR
STARTCHAR 0433
ENCODING 1075
SWIDTH 977 0
DWIDTH 19 0
BBX 15 13 2 2
BITMAP
FFFE
FFFE
FFFE
F806
F806
F800
F800
F800
F800
F800
F800
F800
F800
ENDCHAR
STARTCHAR 0434
ENCODING 1076
SWIDTH 977 0
DWIDTH 19 0
BBX 19 15 0 0
BITMAP
07FF80
07FF80
07FF80
060F80
060F80
060F80
060F80
060F80
3E0F80
3E0F80
FFFFE0
FFFFE0
FFFFE0
F801E0
F801E0
ENDCHAR
STARTCHAR 0435
ENCODING 1077
SWIDTH 977 0
DWIDTH 19 0
BBX 17 13 0 2
BITMAP
3FFE00
3FFE00
3FFE00
F80F80
F80F80
FFFF80
FFFF80
FFFF80
F80000
F80000
3FFE00
3FFE00
3FFE00
ENDCHAR
STARTCHAR 0436
ENCODING 1078
SWIDTH 977 0
DWIDTH 19 0
BBX 17 13 0 2
BITMAP
F9CF80
F9CF80
F9CF80
F9CF80
F9CF80
3FFE00
3FFE00
3FFE00
F9CF80
F9CF80
F9CF80
F9CF80
F9CF80
ENDCHAR
STARTCHAR 0437
ENCODING 1079
SWIDTH 977 0
DWIDTH 19 0
BBX 17 13 0 2
BITMAP
3FFE00
3FFE00
3FFE00
F80F80
F80F80
01FE00
01FE00
01FE00
F80F80
F80F80
3FFE00
3FFE00
3FFE00
ENDCHAR
STARTCHAR 0438
ENCODING 1080
SWIDTH 977 0
DWIDTH 19 0
BBX 17 13 0 2
BITMAP
F80F80
F80F80
F80F80
F83F80
F83F80
F9CF80
F9CF80
F9CF80
FE0F80
FE0F80
F80F80
F80F80
F80F80
ENDCHAR
STARTCHAR 0439
ENCODING 1081
SWIDTH 977 0
DWIDTH 19 0
BBX 17 17 0 2
BITMAP
3FFE00
3FFE00
000000
000000
F80F80
F80F80
F80F80
F83F80
F83F80
F9CF80
F9CF80
F9CF80
FE0F80
FE0F80
F80F80
F80F80
F80F80
ENDCHAR
STARTCHAR 043A
ENCODING 1082
SWIDTH 977 0
DWIDTH 19 0
BBX 17 13 0 2
BITMAP
F80F80
F80F80
F80F80
F83000
F83000
FFFE00
FFFE00
FFFE00
F80F80
F80F80
F80F80
F80F80
F80F80
ENDCHAR
STARTCHAR 043B
ENCODING 1083
SWIDTH 977 0
DWIDTH 19 0
BBX 17 13 0 2
BITMAP
07FF80
07FF80
07FF80
060F80
060F80
3E0F80
3E0F80
3E0F80
FE0F80
FE0F80
F80F80
F80F80
F80F80
ENDCHAR
STARTCHAR 043C
ENCODING 1084
SWIDTH 977 0
DWIDTH 19 0
BBX 17 13 0 2
BITMAP
F80F80
F80F80
F80F80
FE3F80
FE3F80
F9CF80
F9CF80
F9CF80
F9CF80
F9CF80
F80F80
F80F80
F80F80
ENDCHAR
STARTCHAR 043D
ENCODING 1085
SWIDTH 977 0
DWIDTH 19 0
BBX 17 13 0 2
BITMAP
F80F80
F80F80
F80F80
F80F80
F80F80
FFFF80
FFFF80
FFFF80
F80F80
F80F80
F80F80
F80F80
F80F80
ENDCHAR
STARTCHAR 043E
ENCODING 1086
SWIDTH 977 0
DWIDTH 19 0
BBX 17 13 0 2
BITMAP
3FFE00
3FFE00
3FFE00
F80F80
F80F80
F80F80
F80F80
F80F80
F80F80
F80F80
3FFE00
3FFE00
3FFE00
ENDCHAR
STARTCHAR 043F
ENCODING 1087
SWIDTH 977 0
DWIDTH 19 0
BBX 17 13 0 2
BITMAP
FFFF80
FFFF80
FFFF80
F80F80
F80F80
F80F80
F80F80
F80F80
F80F80
F80F80
F80F80
F80F80
F80F80
ENDCHAR
STARTCHAR 0440
ENCODING 1088
SWIDTH 977 0
DWIDTH 19 0
BBX 17 15 0 0
BITMAP
F9FE00
F9FE00
F9FE00
FE0F80
FE0F80
F80F80
F80F80
F80F80
F80F80
F80F80
FFFE00
FFFE00
FFFE00
F80000
F80000
ENDCHAR
STARTCHAR 0441
ENCODING 1089
SWIDTH 977 0
DWIDTH 19 0
BBX 17 13 0 2
BITMAP
3FFE00
3FFE00
3FFE00
F80F80
F80F80
F80000
F80000
F80000
F80F80
F80F80
3FFE00
3FFE00
3FFE00
ENDCHAR
STARTCHAR 0442
ENCODING 1090
SWIDTH 977 0
DWIDTH 19 0
BBX 15 13 2 2
BITMAP
FFFE
FFFE
FFFE
07C0
07C0
07C0
07C0
07C0
07C0
07C0
07C0
07C0
07C0
ENDCHAR
STARTCHAR 0443
ENCODING 1091
SWIDTH 977 0
DWIDTH 19 0
BBX 17 15 0 0
BITMAP
F80F80
F80F80
F80F80
F80F80
F80F80
F80F80
F80F80
F80F80
3FFF80
3FFF80
000F80
000F80
000F80
3FFE00
3FFE00
ENDCHAR
STARTCHAR 0444
ENCODING 1092
SWIDTH 977 0
DWIDTH 19 0
BBX 17 17 0 0
BITMAP
01C000
01C000
3FFE00
3FFE00
3FFE00
F9CF80
F9CF80
F9CF80
F9CF80
F9CF80
F9CF80
F9CF80
3FFE00
3FFE00
3FFE00
01C000
01C000
ENDCHAR
STARTCHAR 0445
ENCODING 1093
SWIDTH 977 0
DWIDTH 19 0
BBX 17 13 0 2
BITMAP
F80F80
F80F80
F80F80
3E3E00
3E3E00
07F000
07F000
07F000
3E3E00
3E3E00
F80F80
F80F80
F80F80
ENDCHAR
STARTCHAR 0446
ENCODING 1094
SWIDTH 977 0
DWIDTH 19 0
BBX 17 15 0 0
BITMAP
F83E00
F83E00
F83E00
F83E00
F83E00
F83E00
F83E00
F83E00
F83E00
F83E00
FFFF80
FFFF80
FFFF80
000F80
000F80
ENDCHAR
STARTCHAR 0447
ENCODING 1095
SWIDTH 977 0
DWIDTH 19 0
BBX 17 13 0 2
BITMAP
F80F80
F80F80
F80F80
F80F80
F80F80
3FFF80
3FFF80
3FFF80
000F80
000F80
000F80
000F80
000F80
ENDCHAR
STARTCHAR 0448
ENCODING 1096
SWIDTH 977 0
DWIDTH 19 0
BBX 17 13 0 2
BITMAP
F9CF80
F9CF80
F9CF80
F9CF80
F9CF80
F9CF80
F9CF80
F9CF80
F9CF80
F9CF80
FFFF80
FFFF80
FFFF80
ENDCHAR
STARTCHAR 0449
ENCODING 1097
SWIDTH 977 0
DWIDTH 19 0
BBX 19 15 0 0
BITMAP
F9CF80
F9CF80
F9CF80
F9CF80
F9CF80
F9CF80
F9CF80
F9CF80
F9CF80
F9CF80
FFFFE0
FFFFE0
FFFFE0
0001E0
0001E0
ENDCHAR
STARTCHAR 044A
ENCODING 1098
SWIDTH 977 0
DWIDTH 19 0
BBX 17 13 0 2
BITMAP
FE0000
FE0000
FE0000
3E0000
3E0000
3FFE00
3FFE00
3FFE00
3E0F80
3E0F80
3FFE00
3FFE00
3FFE00
ENDCHAR
STARTCHAR 044B
ENCODING 1099
SWIDTH 977 0
DWIDTH 19 0
BBX 17 13 0 2
BITMAP
F80F80
F80F80
F80F80
F80F80
F80F80
FFCF80
FFCF80
FFCF80
F9CF80
F9CF80
FFCF80
FFCF80
FFCF80
ENDCHAR
STARTCHAR 044C
ENCODING 1100
SWIDTH 977 0
DWIDTH 19 0
BBX 17 13 0 2
BITMAP
F80000
F80000
F80000
F80000
F80000
FFFE00
FFFE00
FFFE00
F80F80
F80F80
FFFE00
FFFE00
FFFE00
ENDCHAR
STARTCHAR 044D
ENCODING 1101
SWIDTH 977 0
DWIDTH 19 0
BBX 17 13 0 2
BITMAP
3FFE00
3FFE00
3FFE00
F80F80
F80F80
01FF80
01FF80
01FF80
F80F80
F80F80
3FFE00
3FFE00
3FFE00
ENDCHAR
STARTCHAR 044E
ENCODING 1102
SWIDTH 977 0
DWIDTH 19 0
BBX 17 13 0 2
BITMAP
C1FE00
C1FE00
C1FE00
C7CF80
C7CF80
FFCF80
FFCF80
FFCF80
C7CF80
C7CF80
C1FE00
C1FE00
C1FE00
ENDCHAR
STARTCHAR 044F
ENCODING 1103
SWIDTH 977 0
DWIDTH 19 0
BBX 17 13 0 2
BITMAP
3FFF80
3FFF80
3FFF80
F80F80
F80F80
3FFF80
3FFF80
3FFF80
F80F80
F80F80
F80F80
F80F80
F80F80
ENDCHAR
STARTCHAR 0450
ENCODING 1104
SWIDTH 977 0
DWIDTH 19 0
BBX 17 17 0 2
BITMAP
060000
060000
01C000
01C000
3FFE00
3FFE00
3FFE00
F80F80
F80F80
FFFF80
FFFF80
FFFF80
F80000
F80000
3FFE00
3FFE00
3FFE00
ENDCHAR
STARTCHAR 0451
ENCODING 1105
SWIDTH 977 0
DWIDTH 19 0
BBX 17 17 0 2
BITMAP
3E3E00
3E3E00
000000
000000
3FFE00
3FFE00
3FFE00
F80F80
F80F80
FFFF80
FFFF80
FFFF80
F80000
F80000
3FFE00
3FFE00
3FFE00
ENDCHAR
STARTCHAR 0452
ENCODING 1106
SWIDTH 977 0
DWIDTH 19 0
BBX 17 19 0 0
BITMAP
3E0000
3E0000
FFF000
FFF000
3E0000
3E0000
3E0000
3FFE00
3FFE00
3E0F80
3E0F80
3E0F80
3E0F80
3E0F80
3E0F80
3E0F80
3E0F80
003E00
003E00
ENDCHAR
STARTCHAR 0453
ENCODING 1107
SWIDTH 977 0
DWIDTH 19 0
BBX 15 17 2 2
BITMAP
0038
0038
00C0
00C0
FFFE
FFFE
FFFE
F806
F806
F800
F800
F800
F800
F800
F800
F800
F800
ENDCHAR
STARTCHAR 0454
ENCODING 1108
SWIDTH 977 0
DWIDTH 19 0
BBX 17 13 0 2
BITMAP
3FFE00
3FFE00
3FFE00
F80F80
F80F80
FFC000
FFC000
FFC000
F80F80
F80F80
3FFE00
3FFE00
3FFE00
ENDCHAR
STARTCHAR 0455
ENCODING 1109
SWIDTH 977 0
DWIDTH 19 0
BBX 17 13 0 2
BITMAP
3FFE00
3FFE00
3FFE00
F80000
F80000
3FFE00
3FFE00
3FFE00
000F80
000F80
FFFE00
FFFE00
FFFE00
ENDCHAR
STARTCHAR 0456
ENCODING 1110
SWIDTH 977 0
DWIDTH 19 0
BBX 15 17 2 2
BITMAP
07C0
07C0
0000
0000
1FC0
1FC0
1FC0
07C0
07C0
07C0
07C0
07C0
07C0
07C0
FFFE
FFFE
FFFE
ENDCHAR
STARTCHAR 0457
ENCODING 1111
SWIDTH 977 0
DWIDTH 19 0
BBX 15 17 2 2
BITMAP
F8F8
F8F8
0000
0000
1FC0
1FC0
1FC0
07C0
07C0
07C0
07C0
07C0
07C0
07C0
FFFE
FFFE
FFFE
ENDCHAR
STARTCHAR 0458
ENCODING 1112
SWIDTH 977 0
DWIDTH 19 0
BBX 13 19 2 0
BITMAP
00F8
00F8
0000
0000
07F8
07F8
07F8
00F8
00F8
00F8
00F8
00F8
00F8
00F8
00F8
00F8
00F8
FFC0
FFC0
ENDCHAR
STARTCHAR 0459
ENCODING 1113
SWIDTH 977 0
DWIDTH 19 0
BBX 17 13 0 2
BITMAP
3FF000
3FF000
3FF000
39FF80
39FF80
39F180
39F180
39F180
F9F180
F9F180
F9FF80
F9FF80
F9FF80
ENDCHAR
STARTCHAR 045A
ENCODING 1114
SWIDTH 977 0
DWIDTH 19 0
BBX 17 13 0 2
BITMAP
F9F000
F9F000
F9F000
F9FF80
F9FF80
FFF180
FFF180
FFF180
F9F180
F9F180
F9FF80
F9FF80
F9FF80
ENDCHAR
STARTCHAR 045B
ENCODING 1115
SWIDTH 977 0
DWIDTH 19 0
BBX 17 17 0 2
BITMAP
3E0000
3E0000
FFF000
FFF000
3E0000
3E0000
3E0000
3FFE00
3FFE00
3E0F80
3E0F80
3E0F80
3E0F80
3E0F80
3E0F80
3E0F80
3E0F80
ENDCHAR
STARTCHAR 045C
ENCODING 1116
SWIDTH 977 0
DWIDTH 19 0
BBX 17 17 0 2
BITMAP
003000
003000
01C000
01C000
F80F80
F80F80
F80F80
F83000
F83000
FFFE00
FFFE00
FFFE00
F80F80
F80F80
F80F80
F80F80
F80F80
ENDCHAR
STARTCHAR 045D
ENCODING 1117
SWIDTH 977 0
DWIDTH 19 0
BBX 17 17 0 2
BITMAP
060000
060000
01C000
01C000
F80F80
F80F80
F80F80
F83F80
F83F80
F9CF80
F9CF80
F9CF80
FE0F80
FE0F80
F80F80
F80F80
F80F80
ENDCHAR
STARTCHAR 045E
ENCODING 1118
SWIDTH 977 0
DWIDTH 19 0
BBX 17 19 0 0
BITMAP
3FFE00
3FFE00
000000
000000
F80F80
F80F80
F80F80
F80F80
F80F80
F80F80
F80F80
F80F80
3FFF80
3FFF80
000F80
000F80
000F80
3FFE00
3FFE00
ENDCHAR
STARTCHAR 045F
ENCODING 1119
SWIDTH 977 0
DWIDTH 19 0
BBX 17 15 0 0
BITMAP
F80F80
F80F80
F80F80
F80F80
F80F80
F80F80
F80F80
F80F80
F80F80
F80F80
FFFF80
FFFF80
FFFF80
01C000
01C000
ENDCHAR
STARTCHAR 0462
ENCODING 1122
SWIDTH 977 0
DWIDTH 19 0
BBX 17 17 0 2
BITMAP
3E0000
3E0000
FFF000
FFF000
3E0000
3E0000
3E0000
3FFE00
3FFE00
3E0F80
3E0F80
3E0F80
3E0F80
3E0F80
3FFE00
3FFE00
3FFE00
ENDCHAR
STARTCHAR 0463
ENCODING 1123
SWIDTH 977 0
DWIDTH 19 0
BBX 17 17 0 2
BITMAP
3E0000
3E0000
3E0000
3E0000
FFF000
FFF000
FFF000
3E0000
3E0000
3FFE00
3FFE00
3FFE00
3E0F80
3E0F80
3FFE00
3FFE00
3FFE00
ENDCHAR
STARTCHAR 046A
ENCODING 1130
SWIDTH 977 0
DWIDTH 19 0
BBX 17 17 0 2
BITMAP
FFFF80
FFFF80
C00180
C00180
380E00
380E00
380E00
07F000
07F000
39CE00
39CE00
39CE00
F9CF80
F9CF80
F9CF80
F9CF80
F9CF80
ENDCHAR
STARTCHAR 046B
ENCODING 1131
SWIDTH 977 0
DWIDTH 19 0
BBX 17 13 0 2
BITMAP
FFFF80
FFFF80
FFFF80
380E00
380E00
07F000
07F000
07F000
F9CF80
F9CF80
F9CF80
F9CF80
F9CF80
ENDCHAR
STARTCHAR 0472
ENCODING 1138
SWIDTH 977 0
DWIDTH 19 0
BBX 17 17 0 2
BITMAP
3FFE00
3FFE00
F80F80
F80F80
F80F80
F80F80
F80F80
C7F180
C7F180
F80F80
F80F80
F80F80
F80F80
F80F80
3FFE00
3FFE00
3FFE00
ENDCHAR
STARTCHAR 0473
ENCODING 1139
SWIDTH 977 0
DWIDTH 19 0
BBX 17 13 0 2
BITMAP
3FFE00
3FFE00
3FFE00
F80F80
F80F80
C7F180
C7F180
C7F180
F80F80
F80F80
3FFE00
3FFE00
3FFE00
ENDCHAR
STARTCHAR 0474
ENCODING 1140
SWIDTH 977 0
DWIDTH 19 0
BBX 17 17 0 2
BITMAP
F80F80
F80F80
F80F80
F80F80
F80E00
F80E00
F80E00
F80E00
F80E00
3E3E00
3E3E00
3E3E00
07F000
07F000
01C000
01C000
01C000
ENDCHAR
STARTCHAR 0475
ENCODING 1141
SWIDTH 977 0
DWIDTH 19 0
BBX 15 13 2 2
BITMAP
F83E
F83E
F83E
F838
F838
F838
F838
F838
1FF8
1FF8
07C0
07C0
07C0
ENDCHAR
STARTCHAR 0490
ENCODING 1168
SWIDTH 977 0
DWIDTH 19 0
BBX 15 17 2 2
BITMAP
003E
003E
FFFE
FFFE
F800
F800
F800
F800
F800
F800
F800
F800
F800
F800
F800
F800
F800
ENDCHAR
STARTCHAR 0491
ENCODING 1169
SWIDTH 977 0
DWIDTH 19 0
BBX 15 15 2 2
BITMAP
003E
003E
FFFE
FFFE
FFFE
F800
F800
F800
F800
F800
F800
F800
F800
F800
F800
ENDCHAR
STARTCHAR 0492
ENCODING 1170
SWIDTH 977 0
DWIDTH 19 0
BBX 17 17 0 2
BITMAP
3FFF80
3FFF80
3E0180
3E0180
3E0000
3E0000
3E0000
FFF000
FFF000
3E0000
3E0000
3E0000
3E0000
3E0000
3E0000
3E0000
3E0000
ENDCHAR
STARTCHAR 0493
ENCODING 1171
SWIDTH 977 0
DWIDTH 19 0
BBX 17 13 0 2
BITMAP
3FFF80
3FFF80
3FFF80
3E0180
3E0180
FFF000
FFF000
FFF000
3E0000
3E0000
3E0000
3E0000
3E0000
ENDCHAR
STARTCHAR 0494
ENCODING 1172
SWIDTH 977 0
DWIDTH 19 0
BBX 15 19 2 0
BITMAP
FFFE
FFFE
F806
F806
F800
F800
F800
FFF8
FFF8
F83E
F83E
F83E
F83E
F83E
F83E
F83E
F83E
00F8
00F8
ENDCHAR
STARTCHAR 0495
ENCODING 1173
SWIDTH 977 0
DWIDTH 19 0
BBX 15 15 2 0
BITMAP
FFFE
FFFE
FFFE
F800
F800
FFF8
FFF8
FFF8
F83E
F83E
F83E
F83E
F83E
00F8
00F8
ENDCHAR
STARTCHAR 0496
ENCODING 1174
SWIDTH 977 0
DWIDTH 19 0
BBX 19 19 0 0
BITMAP
F9CF80
F9CF80
F9CF80
F9CF80
39CE00
39CE00
39CE00
07F000
07F000
39CE00
39CE00
39CE00
F9CF80
F9CF80
F9CFE0
F9CFE0
F9CFE0
0001E0
0001E0
ENDCHAR
STARTCHAR 0497
ENCODING 1175
SWIDTH 977 0
DWIDTH 19 0
BBX 19 15 0 0
BITMAP
F9CF80
F9CF80
F9CF80
F9CF80
F9CF80
3FFE00
3FFE00
3FFE00
F9CF80
F9CF80
F9CFE0
F9CFE0
F9CFE0
0001E0
0001E0
ENDCHAR
STARTCHAR 0498
ENCODING 1176
SWIDTH 977 0
DWIDTH 19 0
BBX 17 19 0 0
BITMAP
3FFE00
3FFE00
F80F80
F80F80
000F80
000F80
000F80
07FE00
07FE00
000F80
000F80
000F80
F80F80
F80F80
3FFE00
3FFE00
3FFE00
01C000
01C000
ENDCHAR
STARTCHAR 0499
ENCODING 1177
SWIDTH 977 0
DWIDTH 19 0
BBX 17 15 0 0
BITMAP
3FFE00
3FFE00
3FFE00
F80F80
F80F80
01FE00
01FE00
01FE00
F80F80
F80F80
3FFE00
3FFE00
3FFE00
01C000
01C000
ENDCHAR
STARTCHAR 049A
ENCODING 1178
SWIDTH 977 0
DWIDTH 19 0
BBX 17 19 0 0
BITMAP
F80F80
F80F80
F83E00
F83E00
F9C000
F9C000
F9C000
FFF000
FFF000
F83E00
F83E00
F83E00
F83E00
F83E00
F80F80
F80F80
F80F80
000F80
000F80
ENDCHAR
STARTCHAR 049B
ENCODING 1179
SWIDTH 977 0
DWIDTH 19 0
BBX 19 15 0 0
BITMAP
F80F80
F80F80
F80F80
F83000
F83000
FFFE00
FFFE00
FFFE00
F80F80
F80F80
F80FE0
F80FE0
F80FE0
0001E0
0001E0
ENDCHAR
STARTCHAR 049C
ENCODING 1180
SWIDTH 977 0
DWIDTH 19 0
BBX 17 17 0 2
BITMAP
F80F80
F80F80
F80E00
F80E00
F9CE00
F9CE00
F9CE00
FFF000
FFF000
F9CE00
F9CE00
F9CE00
F80F80
F80F80
F80F80
F80F80
F80F80
ENDCHAR
STARTCHAR 049D
ENCODING 1181
SWIDTH 977 0
DWIDTH 19 0
BBX 17 13 0 2
BITMAP
F80F80
F80F80
F80F80
F9CE00
F9CE00
FFF000
FFF000
FFF000
F9CF80
F9CF80
F80F80
F80F80
F80F80
ENDCHAR
STARTCHAR 04A0
ENCODING 1184
SWIDTH 977 0
DWIDTH 19 0
BBX 17 17 0 2
BITMAP
FE0F80
FE0F80
3E0E00
3E0E00
3E3000
3E3000
3E3000
3FF000
3FF000
3E3E00
3E3E00
3E3E00
3E3E00
3E3E00
3E0F80
3E0F80
3E0F80
ENDCHAR
STARTCHAR 04A1
ENCODING 1185
SWIDTH 977 0
DWIDTH 19 0
BBX 17 13 0 2
BITMAP
FE0F80
FE0F80
FE0F80
3E3000
3E3000
3FFE00
3FFE00
3FFE00
3E0F80
3E0F80
3E0F80
3E0F80
3E0F80
ENDCHAR
STARTCHAR 04A2
ENCODING 1186
SWIDTH 977 0
DWIDTH 19 0
BBX 19 19 0 0
BITMAP
F80F80
F80F80
F80F80
F80F80
F80F80
F80F80
F80F80
FFFF80
FFFF80
F80F80
F80F80
F80F80
F80F80
F80F80
F80FE0
F80FE0
F80FE0
0001E0
0001E0
ENDCHAR
STARTCHAR 04A3
ENCODING 1187
SWIDTH 977 0
DWIDTH 19 0
BBX 19 15 0 0
BITMAP
F80F80
F80F80
F80F80
F80F80
F80F80
FFFF80
FFFF80
FFFF80
F80F80
F80F80
F80FE0
F80FE0
F80FE0
0001E0
0001E0
ENDCHAR
STARTCHAR 04A4
ENCODING 1188
SWIDTH 977 0
DWIDTH 19 0
BBX 17 17 0 2
BITMAP
F9FF80
F9FF80
F9F180
F9F180
F9F000
F9F000
F9F000
FFF000
FFF000
F9F000
F9F000
F9F000
F9F000
F9F000
F9F000
F9F000
F9F000
ENDCHAR
STARTCHAR 04A5
ENCODING 1189
SWIDTH 977 0
DWIDTH 19 0
BBX 17 13 0 2
BITMAP
F9FF80
F9FF80
F9FF80
F9F180
F9F180
FFF000
FFF000
FFF000
F9F000
F9F000
F9F000
F9F000
F9F000
ENDCHAR
STARTCHAR 04AA
ENCODING 1194
SWIDTH 977 0
DWIDTH 19 0
BBX 17 19 0 0
BITMAP
07FE00
07FE00
3E0F80
3E0F80
F80000
F80000
F80000
F80000
F80000
F80000
F80000
F80000
3E0F80
3E0F80
07FE00
07FE00
07FE00
01F000
01F000
ENDCHAR
STARTCHAR 04AB
ENCODING 1195
SWIDTH 977 0
DWIDTH 19 0
BBX 17 15 0 0
BITMAP
3FFE00
3FFE00
3FFE00
F80F80
F80F80
F80000
F80000
F80000
F80F80
F80F80
3FFE00
3FFE00
3FFE00
01C000
01C000
ENDCHAR
STARTCHAR 04AC
ENCODING 1196
SWIDTH 977 0
DWIDTH 19 0
BBX 15 19 2 0
BITMAP
FFFE
FFFE
07C0
07C0
07C0
07C0
07C0
07C0
07C0
07C0
07C0
07C0
07C0
07C0
07F8
07F8
07F8
00F8
00F8
ENDCHAR
STARTCHAR 04AD
ENCODING 1197
SWIDTH 977 0
DWIDTH 19 0
BBX 15 15 2 0
BITMAP
FFFE
FFFE
FFFE
07C0
07C0
07C0
07C0
07C0
07C0
07C0
07F8
07F8
07F8
00F8
00F8
ENDCHAR
STARTCHAR 04AE
ENCODING 1198
SWIDTH 977 0
DWIDTH 19 0
BBX 15 17 2 2
BITMAP
F83E
F83E
F83E
F83E
F83E
F83E
F83E
1FF8
1FF8
07C0
07C0
07C0
07C0
07C0
07C0
07C0
07C0
ENDCHAR
STARTCHAR 04AF
ENCODING 1199
SWIDTH 977 0
DWIDTH 19 0
BBX 15 15 2 0
BITMAP
F83E
F83E
F83E
F83E
F83E
F83E
F83E
F83E
1FF8
1FF8
07C0
07C0
07C0
07C0
07C0
ENDCHAR
STARTCHAR 04B0
ENCODING 1200
SWIDTH 977 0
DWIDTH 19 0
BBX 15 17 2 2
BITMAP
F83E
F83E
F83E
F83E
F83E
F83E
F83E
1FF8
1FF8
07C0
07C0
07C0
1FF8
1FF8
07C0
07C0
07C0
ENDCHAR
STARTCHAR 04B1
ENCODING 1201
SWIDTH 977 0
DWIDTH 19 0
BBX 15 15 2 0
BITMAP
F83E
F83E
F83E
F83E
F83E
1FF8
1FF8
1FF8
07C0
07C0
1FF8
1FF8
1FF8
07C0
07C0
ENDCHAR
STARTCHAR 04B6
ENCODING 1206
SWIDTH 977 0
DWIDTH 19 0
BBX 19 19 0 0
BITMAP
F80F80
F80F80
F80F80
F80F80
F80F80
F80F80
F80F80
3FFF80
3FFF80
000F80
000F80
000F80
000F80
000F80
000FE0
000FE0
000FE0
0001E0
0001E0
ENDCHAR
STARTCHAR 04B7
ENCODING 1207
SWIDTH 977 0
DWIDTH 19 0
BBX 19 15 0 0
BITMAP
F80F80
F80F80
F80F80
F80F80
F80F80
3FFF80
3FFF80
3FFF80
000F80
000F80
000FE0
000FE0
000FE0
0001E0
0001E0
ENDCHAR
STARTCHAR 04B8
ENCODING 1208
SWIDTH 977 0
DWIDTH 19 0
BBX 17 17 0 2
BITMAP
F80F80
F80F80
F80F80
F80F80
F9CF80
F9CF80
F9CF80
3FFF80
3FFF80
01CF80
01CF80
01CF80
000F80
000F80
000F80
000F80
000F80
ENDCHAR
STARTCHAR 04B9
ENCODING 1209
SWIDTH 977 0
DWIDTH 19 0
BBX 17 13 0 2
BITMAP
F80F80
F80F80
F80F80
F9CF80
F9CF80
3FFF80
3FFF80
3FFF80
01CF80
01CF80
000F80
000F80
000F80
ENDCHAR
STARTCHAR 04BA
ENCODING 1210
SWIDTH 977 0
DWIDTH 19 0
BBX 17 17 2 2
BITMAP
F80000
F80000
F80000
F80000
F80000
F80000
F80000
FFFE00
FFFE00
F80780
F80780
F80780
F80780
F80780
F80780
F80780
F80780
ENDCHAR
STARTCHAR 04BB
ENCODING 1211
SWIDTH 977 0
DWIDTH 19 0
BBX 17 17 0 2
BITMAP
F80000
F80000
F80000
F80000
F9FE00
F9FE00
F9FE00
FE0F80
FE0F80
F80F80
F80F80
F80F80
F80F80
F80F80
F80F80
F80F80
F80F80
ENDCHAR
STARTCHAR 04C0
ENCODING 1216
SWIDTH 977 0
DWIDTH 19 0
BBX 15 17 2 2
BITMAP
FFFE
FFFE
07C0
07C0
07C0
07C0
07C0
07C0
07C0
07C0
07C0
07C0
07C0
07C0
FFFE
FFFE
FFFE
ENDCHAR
STARTCHAR 04C1
ENCODING 1217
SWIDTH 977 0
DWIDTH 19 0
BBX 17 17 0 2
BITMAP
3FFE00
3FFE00
000000
000000
F9CF80
F9CF80
F9CF80
F9CF80
F9CF80
3FFE00
3FFE00
3FFE00
F9CF80
F9CF80
F9CF80
F9CF80
F9CF80
ENDCHAR
STARTCHAR 04C2
ENCODING 1218
SWIDTH 977 0
DWIDTH 19 0
BBX 17 17 0 2
BITMAP
3FFE00
3FFE00
000000
000000
F9CF80
F9CF80
F9CF80
F9CF80
F9CF80
3FFE00
3FFE00
3FFE00
F9CF80
F9CF80
F9CF80
F9CF80
F9CF80
ENDCHAR
STARTCHAR 04CB
ENCODING 1227
SWIDTH 977 0
DWIDTH 19 0
BBX 19 19 0 0
BITMAP
F80F80
F80F80
F80F80
F80F80
F80F80
F80F80
F80F80
3FFF80
3FFF80
000F80
000F80
000F80
000F80
000F80
000FE0
000FE0
000FE0
0001E0
0001E0
ENDCHAR
STARTCHAR 04CC
ENCODING 1228
SWIDTH 977 0
DWIDTH 19 0
BBX 19 15 0 0
BITMAP
F80F80
F80F80
F80F80
F80F80
F80F80
3FFF80
3FFF80
3FFF80
000F80
000F80
000FE0
000FE0
000FE0
0001E0
0001E0
ENDCHAR
STARTCHAR 04CF
ENCODING 1231
SWIDTH 977 0
DWIDTH 19 0
BBX 15 17 2 2
BITMAP
1FC0
1FC0
07C0
07C0
07C0
07C0
07C0
07C0
07C0
07C0
07C0
07C0
07C0
07C0
FFFE
FFFE
FFFE
ENDCHAR
STARTCHAR 04D0
ENCODING 1232
SWIDTH 977 0
DWIDTH 19 0
BBX 17 17 0 2
BITMAP
3FFE00
3FFE00
000000
000000
07F000
07F000
07F000
3E3E00
3E3E00
F80F80
F80F80
F80F80
FFFF80
FFFF80
F80F80
F80F80
F80F80
ENDCHAR
STARTCHAR 04D1
ENCODING 1233
SWIDTH 977 0
DWIDTH 19 0
BBX 17 17 0 2
BITMAP
3FFE00
3FFE00
000000
000000
3FFE00
3FFE00
3FFE00
000F80
000F80
3FFF80
3FFF80
3FFF80
F80F80
F80F80
3FFF80
3FFF80
3FFF80
ENDCHAR
STARTCHAR 04D2
ENCODING 1234
SWIDTH 977 0
DWIDTH 19 0
BBX 17 17 0 2
BITMAP
3E3E00
3E3E00
000000
000000
07F000
07F000
07F000
3E3E00
3E3E00
F80F80
F80F80
F80F80
FFFF80
FFFF80
F80F80
F80F80
F80F80
ENDCHAR
STARTCHAR 04D3
ENCODING 1235
SWIDTH 977 0
DWIDTH 19 0
BBX 17 17 0 2
BITMAP
3E3E00
3E3E00
000000
000000
3FFE00
3FFE00
3FFE00
000F80
000F80
3FFF80
3FFF80
3FFF80
F80F80
F80F80
3FFF80
3FFF80
3FFF80
ENDCHAR
STARTCHAR 04D4
ENCODING 1236
SWIDTH 977 0
DWIDTH 19 0
BBX 17 17 0 2
BITMAP
07FF80
07FF80
3FF000
3FF000
F9F000
F9F000
F9F000
F9FF80
F9FF80
FFF000
FFF000
FFF000
F9F000
F9F000
F9FF80
F9FF80
F9FF80
ENDCHAR
STARTCHAR 04D5
ENCODING 1237
SWIDTH 977 0
DWIDTH 19 0
BBX 17 13 0 2
BITMAP
3FFE00
3FFE00
3FFE00
01CF80
01CF80
3FFE00
3FFE00
3FFE00
F9C000
F9C000
3FFE00
3FFE00
3FFE00
ENDCHAR
STARTCHAR 04D6
ENCODING 1238
SWIDTH 977 0
DWIDTH 19 0
BBX 17 17 0 2
BITMAP
3FFE00
3FFE00
000000
000000
FFFF80
FFFF80
FFFF80
F80000
F80000
FFFE00
FFFE00
FFFE00
F80000
F80000
FFFF80
FFFF80
FFFF80
ENDCHAR
STARTCHAR 04D7
ENCODING 1239
SWIDTH 977 0
DWIDTH 19 0
BBX 17 17 0 2
BITMAP
3FFE00
3FFE00
000000
000000
3FFE00
3FFE00
3FFE00
F80F80
F80F80
FFFF80
FFFF80
FFFF80
F80000
F80000
3FFE00
3FFE00
3FFE00
ENDCHAR
STARTCHAR 04D8
ENCODING 1240
SWIDTH 977 0
DWIDTH 19 0
BBX 17 17 0 2
BITMAP
3FFE00
3FFE00
F80F80
F80F80
000F80
000F80
000F80
FFFF80
FFFF80
F80F80
F80F80
F80F80
F80F80
F80F80
3FFE00
3FFE00
3FFE00
ENDCHAR
STARTCHAR 04D9
ENCODING 1241
SWIDTH 977 0
DWIDTH 19 0
BBX 17 13 0 2
BITMAP
3FFE00
3FFE00
3FFE00
000F80
000F80
FFFF80
FFFF80
FFFF80
F80F80
F80F80
3FFE00
3FFE00
3FFE00
ENDCHAR
STARTCHAR 04DC
ENCODING 1244
SWIDTH 977 0
DWIDTH 19 0
BBX 17 17 0 2
BITMAP
3E3E00
3E3E00
000000
000000
F9CF80
F9CF80
F9CF80
F9CF80
F9CF80
3FFE00
3FFE00
3FFE00
F9CF80
F9CF80
F9CF80
F9CF80
F9CF80
ENDCHAR
STARTCHAR 04DD
ENCODING 1245
SWIDTH 977 0
DWIDTH 19 0
BBX 17 17 0 2
BITMAP
3E3E00
3E3E00
000000
000000
F9CF80
F9CF80
F9CF80
F9CF80
F9CF80
3FFE00
3FFE00
3FFE00
F9CF80
F9CF80
F9CF80
F9CF80
F9CF80
ENDCHAR
STARTCHAR 04DE
ENCODING 1246
SWIDTH 977 0
DWIDTH 19 0
BBX 17 17 0 2
BITMAP
3E3E00
3E3E00
000000
000000
3FFE00
3FFE00
3FFE00
F80F80
F80F80
01FE00
01FE00
01FE00
F80F80
F80F80
3FFE00
3FFE00
3FFE00
ENDCHAR
STARTCHAR 04DF
ENCODING 1247
SWIDTH 977 0
DWIDTH 19 0
BBX 17 17 0 2
BITMAP
3E3E00
3E3E00
000000
000000
3FFE00
3FFE00
3FFE00
F80F80
F80F80
01FE00
01FE00
01FE00
F80F80
F80F80
3FFE00
3FFE00
3FFE00
ENDCHAR
STARTCHAR 04E2
ENCODING 1250
SWIDTH 977 0
DWIDTH 19 0
BBX 17 17 0 2
BITMAP
3FFE00
3FFE00
000000
000000
F80F80
F80F80
F80F80
F83F80
F83F80
F9FF80
F9FF80
F9FF80
FFCF80
FFCF80
FE0F80
FE0F80
FE0F80
ENDCHAR
STARTCHAR 04E3
ENCODING 1251
SWIDTH 977 0
DWIDTH 19 0
BBX 17 17 0 2
BITMAP
3FFE00
3FFE00
000000
000000
F80F80
F80F80
F80F80
F83F80
F83F80
F9CF80
F9CF80
F9CF80
FE0F80
FE0F80
F80F80
F80F80
F80F80
ENDCHAR
STARTCHAR 04E4
ENCODING 1252
SWIDTH 977 0
DWIDTH 19 0
BBX 17 17 0 2
BITMAP
3E3E00
3E3E00
000000
000000
F80F80
F80F80
F80F80
F83F80
F83F80
F9FF80
F9FF80
F9FF80
FFCF80
FFCF80
FE0F80
FE0F80
FE0F80
ENDCHAR
STARTCHAR 04E5
ENCODING 1253
SWIDTH 977 0
DWIDTH 19 0
BBX 17 17 0 2
BITMAP
3E3E00
3E3E00
000000
000000
F80F80
F80F80
F80F80
F83F80
F83F80
F9CF80
F9CF80
F9CF80
FE0F80
FE0F80
F80F80
F80F80
F80F80
ENDCHAR
STARTCHAR 04E6
ENCODING 1254
SWIDTH 977 0
DWIDTH 19 0
BBX 17 17 0 2
BITMAP
3E3E00
3E3E00
000000
000000
3FFE00
3FFE00
3FFE00
F80F80
F80F80
F80F80
F80F80
F80F80
F80F80
F80F80
3FFE00
3FFE00
3FFE00
ENDCHAR
STARTCHAR 04E7
ENCODING 1255
SWIDTH 977 0
DWIDTH 19 0
BBX 17 17 0 2
BITMAP
3E3E00
3E3E00
000000
000000
3FFE00
3FFE00
3FFE00
F80F80
F80F80
F80F80
F80F80
F80F80
F80F80
F80F80
3FFE00
3FFE00
3FFE00
ENDCHAR
STARTCHAR 04E8
ENCODING 1256
SWIDTH 977 0
DWIDTH 19 0
BBX 17 17 0 2
BITMAP
3FFE00
3FFE00
F80F80
F80F80
F80F80
F80F80
F80F80
C7F180
C7F180
F80F80
F80F80
F80F80
F80F80
F80F80
3FFE00
3FFE00
3FFE00
ENDCHAR
STARTCHAR 04E9
ENCODING 1257
SWIDTH 977 0
DWIDTH 19 0
BBX 17 13 0 2
BITMAP
3FFE00
3FFE00
3FFE00
F80F80
F80F80
C7F180
C7F180
C7F180
F80F80
F80F80
3FFE00
3FFE00
3FFE00
ENDCHAR
STARTCHAR 04EE
ENCODING 1262
SWIDTH 977 0
DWIDTH 19 0
BBX 17 17 0 2
BITMAP
3FFE00
3FFE00
000000
000000
F80F80
F80F80
F80F80
F80F80
F80F80
3FFF80
3FFF80
3FFF80
000F80
000F80
3FFE00
3FFE00
3FFE00
ENDCHAR
STARTCHAR 04EF
ENCODING 1263
SWIDTH 977 0
DWIDTH 19 0
BBX 17 19 0 0
BITMAP
3FFE00
3FFE00
000000
000000
F80F80
F80F80
F80F80
F80F80
F80F80
F80F80
F80F80
F80F80
3FFF80
3FFF80
000F80
000F80
000F80
3FFE00
3FFE00
ENDCHAR
STARTCHAR 04F0
ENCODING 1264
SWIDTH 977 0
DWIDTH 19 0
BBX 17 17 0 2
BITMAP
3E3E00
3E3E00
000000
000000
F80F80
F80F80
F80F80
F80F80
F80F80
3FFF80
3FFF80
3FFF80
000F80
000F80
3FFE00
3FFE00
3FFE00
ENDCHAR
STARTCHAR 04F1
ENCODING 1265
SWIDTH 977 0
DWIDTH 19 0
BBX 17 19 0 0
BITMAP
3E3E00
3E3E00
000000
000000
F80F80
F80F80
F80F80
F80F80
F80F80
F80F80
F80F80
F80F80
3FFF80
3FFF80
000F80
000F80
000F80
3FFE00
3FFE00
ENDCHAR
STARTCHAR 04F2
ENCODING 1266
SWIDTH 977 0
DWIDTH 19 0
BBX 17 17 0 2
BITMAP
060E00
060E00
383000
383000
F80F80
F80F80
F80F80
F80F80
F80F80
3FFF80
3FFF80
3FFF80
000F80
000F80
3FFE00
3FFE00
3FFE00
ENDCHAR
STARTCHAR 04F3
ENCODING 1267
SWIDTH 977 0
DWIDTH 19 0
BBX 17 19 0 0
BITMAP
060E00
060E00
383000
383000
F80F80
F80F80
F80F80
F80F80
F80F80
F80F80
F80F80
F80F80
3FFF80
3FFF80
000F80
000F80
000F80
3FFE00
3FFE00
ENDCHAR
STARTCHAR 04F4
ENCODING 1268
SWIDTH 977 0
DWIDTH 19 0
BBX 17 17 0 2
BITMAP
3E3E00
3E3E00
000000
000000
F80F80
F80F80
F80F80
F80F80
F80F80
3FFF80
3FFF80
3FFF80
000F80
000F80
000F80
000F80
000F80
ENDCHAR
STARTCHAR 04F5
ENCODING 1269
SWIDTH 977 0
DWIDTH 19 0
BBX 17 17 0 2
BITMAP
3E3E00
3E3E00
000000
000000
F80F80
F80F80
F80F80
F80F80
F80F80
3FFF80
3FFF80
3FFF80
000F80
000F80
000F80
000F80
000F80
ENDCHAR
STARTCHAR 04F6
ENCODING 1270
SWIDTH 977 0
DWIDTH 19 0
BBX 15 19 2 0
BITMAP
FFFE
FFFE
F806
F806
F800
F800
F800
F800
F800
F800
F800
F800
F800
F800
FF00
FF00
FF00
1F00
1F00
ENDCHAR
STARTCHAR 04F7
ENCODING 1271
SWIDTH 977 0
DWIDTH 19 0
BBX 15 15 2 0
BITMAP
FFFE
FFFE
FFFE
F806
F806
F800
F800
F800
F800
F800
FF00
FF00
FF00
1F00
1F00
ENDCHAR
STARTCHAR 04F8
ENCODING 1272
SWIDTH 977 0
DWIDTH 19 0
BBX 17 17 0 2
BITMAP
3E3E00
3E3E00
000000
000000
F80F80
F80F80
F80F80
FFCF80
FFCF80
F9CF80
F9CF80
F9CF80
F9CF80
F9CF80
FFCF80
FFCF80
FFCF80
ENDCHAR
STARTCHAR 04F9
ENCODING 1273
SWIDTH 977 0
DWIDTH 19 0
BBX 17 17 0 2
BITMAP
3E3E00
3E3E00
000000
000000
F80F80
F80F80
F80F80
F80F80
F80F80
FFCF80
FFCF80
FFCF80
F9CF80
F9CF80
FFCF80
FFCF80
FFCF80
ENDCHAR
STARTCHAR 051A
ENCODING 1306
SWIDTH 977 0
DWIDTH 19 0
BBX 17 17 0 2
BITMAP
3FFE00
3FFE00
F80F80
F80F80
F80F80
F80F80
F80F80
F80F80
F80F80
F9FF80
F9FF80
F9FF80
F83E00
F83E00
3FF180
3FF180
3FF180
ENDCHAR
STARTCHAR 051B
ENCODING 1307
SWIDTH 977 0
DWIDTH 19 0
BBX 17 15 0 0
BITMAP
3FFF80
3FFF80
3FFF80
F80F80
F80F80
F80F80
F80F80
F80F80
3FFF80
3FFF80
000F80
000F80
000F80
000F80
000F80
ENDCHAR
STARTCHAR 051C
ENCODING 1308
SWIDTH 977 0
DWIDTH 19 0
BBX 17 17 0 2
BITMAP
F9CF80
F9CF80
F9CF80
F9CF80
F9CF80
F9CF80
F9CF80
F9CF80
F9CF80
FFFF80
FFFF80
FFFF80
FE3F80
FE3F80
380E00
380E00
380E00
ENDCHAR
STARTCHAR 051D
ENCODING 1309
SWIDTH 977 0
DWIDTH 19 0
BBX 17 13 0 2
BITMAP
F9CF80
F9CF80
F9CF80
F9CF80
F9CF80
F9CF80
F9CF80
F9CF80
F9CF80
F9CF80
3E3E00
3E3E00
3E3E00
ENDCHAR
STARTCHAR 0524
ENCODING 1316
SWIDTH 977 0
DWIDTH 19 0
BBX 19 19 0 0
BITMAP
FFFF80
FFFF80
F80F80
F80F80
F80F80
F80F80
F80F80
F80F80
F80F80
F80F80
F80F80
F80F80
F80F80
F80F80
F80FE0
F80FE0
F80FE0
0001E0
0001E0
ENDCHAR
STARTCHAR 0525
ENCODING 1317
SWIDTH 977 0
DWIDTH 19 0
BBX 19 15 0 0
BITMAP
FFFF80
FFFF80
FFFF80
F80F80
F80F80
F80F80
F80F80
F80F80
F80F80
F80F80
F80FE0
F80FE0
F80FE0
0001E0
0001E0
ENDCHAR
STARTCHAR 2013
ENCODING 8211
SWIDTH 977 0
DWIDTH 19 0
BBX 17 2 0 10
BITMAP
FFFF80
FFFF80
ENDCHAR
STARTCHAR 2014
ENCODING 8212
SWIDTH 977 0
DWIDTH 19 0
BBX 19 2 0 10
BITMAP
FFFFE0
FFFFE0
ENDCHAR
STARTCHAR 2015
ENCODING 8213
SWIDTH 977 0
DWIDTH 19 0
BBX 17 2 0 10
BITMAP
FFFF80
FFFF80
ENDCHAR
STARTCHAR 2018
ENCODING 8216
SWIDTH 977 0
DWIDTH 19 0
BBX 7 7 5 12
BITMAP
3E
3E
F8
F8
F8
F8
F8
ENDCHAR
STARTCHAR 2019
ENCODING 8217
SWIDTH 977 0
DWIDTH 19 0
BBX 7 7 5 12
BITMAP
3E
3E
3E
3E
F8
F8
F8
ENDCHAR
STARTCHAR 201A
ENCODING 8218
SWIDTH 977 0
DWIDTH 19 0
BBX 7 8 5 2
BITMAP
3E
3E
3E
3E
3E
F8
F8
F8
ENDCHAR
STARTCHAR 201C
ENCODING 8220
SWIDTH 977 0
DWIDTH 19 0
BBX 15 7 2 12
BITMAP
1F3E
1F3E
F8F8
F8F8
F8F8
F8F8
F8F8
ENDCHAR
STARTCHAR 201D
ENCODING 8221
SWIDTH 977 0
DWIDTH 19 0
BBX 15 7 2 12
BITMAP
1F3E
1F3E
1F3E
1F3E
F8F8
F8F8
F8F8
ENDCHAR
STARTCHAR 201E
ENCODING 8222
SWIDTH 977 0
DWIDTH 19 0
BBX 15 8 0 2
BITMAP
3E3E
3E3E
3E3E
3E3E
3E3E
F9F0
F9F0
F9F0
ENDCHAR
STARTCHAR 2020
ENCODING 8224
SWIDTH 977 0
DWIDTH 19 0
BBX 15 17 2 2
BITMAP
07C0
07C0
07C0
07C0
FFFE
FFFE
FFFE
07C0
07C0
07C0
07C0
07C0
07C0
07C0
07C0
07C0
07C0
ENDCHAR
STARTCHAR 2021
ENCODING 8225
SWIDTH 977 0
DWIDTH 19 0
BBX 15 17 2 2
BITMAP
07C0
07C0
07C0
07C0
FFFE
FFFE
FFFE
07C0
07C0
FFFE
FFFE
FFFE
07C0
07C0
07C0
07C0
07C0
ENDCHAR
STARTCHAR 2022
ENCODING 8226
SWIDTH 977 0
DWIDTH 19 0
BBX 10 10 5 5
BITMAP
3E00
3E00
3E00
FFC0
FFC0
FFC0
FFC0
FFC0
3E00
3E00
ENDCHAR
STARTCHAR 2026
ENCODING 8230
SWIDTH 977 0
DWIDTH 19 0
BBX 17 5 0 2
BITMAP
C1C180
C1C180
C1C180
C1C180
C1C180
ENDCHAR
STARTCHAR 2030
ENCODING 8240
SWIDTH 977 0
DWIDTH 19 0
BBX 19 17 0 2
BITMAP
3E0180
3E0180
C60E00
C60E00
F83000
F83000
F83000
01C000
01C000
063FE0
063FE0
063FE0
39CE60
39CE60
C1FF80
C1FF80
C1FF80
ENDCHAR
STARTCHAR 2039
ENCODING 8249
SWIDTH 977 0
DWIDTH 19 0
BBX 10 12 5 5
BITMAP
07C0
07C0
3E00
3E00
3E00
F800
F800
3E00
3E00
3E00
07C0
07C0
ENDCHAR
STARTCHAR 203A
ENCODING 8250
SWIDTH 977 0
DWIDTH 19 0
BBX 10 12 2 5
BITMAP
F800
F800
1F00
1F00
1F00
07C0
07C0
1F00
1F00
1F00
F800
F800
ENDCHAR
STARTCHAR 2044
ENCODING 8260
SWIDTH 977 0
DWIDTH 19 0
BBX 17 17 0 2
BITMAP
000180
000180
000E00
000E00
003000
003000
003000
01C000
01C000
060000
060000
060000
380000
380000
C00000
C00000
C00000
ENDCHAR
STARTCHAR 2074
ENCODING 8308
SWIDTH 977 0
DWIDTH 19 0
BBX 7 9 5 10
BITMAP
06
06
3E
3E
FE
FE
FE
06
06
ENDCHAR
STARTCHAR 20AC
ENCODING 8364
SWIDTH 977 0
DWIDTH 19 0
BBX 17 17 0 2
BITMAP
01FE00
01FE00
07CF80
07CF80
FFF000
FFF000
FFF000
3E0000
3E0000
FFF000
FFF000
FFF000
07CF80
07CF80
01FE00
01FE00
01FE00
ENDCHAR
STARTCHAR 20AE
ENCODING 8366
SWIDTH 977 0
DWIDTH 19 0
BBX 15 17 2 2
BITMAP
FFFE
FFFE
07C0
07C0
07F8
07F8
07F8
1FC0
1FC0
07F8
07F8
07F8
1FC0
1FC0
07C0
07C0
07C0
ENDCHAR
STARTCHAR 20AF
ENCODING 8367
SWIDTH 977 0
DWIDTH 19 0
BBX 17 19 0 0
BITMAP
3E0000
3E0000
C1C000
C1C000
C1CE00
C1CE00
C1CE00
C1F180
C1F180
C1F180
C1F180
C1F180
C1F180
C1F180
FE3E00
FE3E00
FE3E00
003000
003000
ENDCHAR
STARTCHAR 20B4
ENCODING 8372
SWIDTH 977 0
DWIDTH 19 0
BBX 17 17 0 2
BITMAP
3FF000
3FF000
003E00
003E00
FFFF80
FFFF80
FFFF80
000000
000000
FFFF80
FFFF80
FFFF80
3E0000
3E0000
07FE00
07FE00
07FE00
ENDCHAR
STARTCHAR 20B8
ENCODING 8376
SWIDTH 977 0
DWIDTH 19 0
BBX 15 17 2 2
BITMAP
FFFE
FFFE
0000
0000
FFFE
FFFE
FFFE
07C0
07C0
07C0
07C0
07C0
07C0
07C0
07C0
07C0
07C0
ENDCHAR
STARTCHAR 20BD
ENCODING 8381
SWIDTH 977 0
DWIDTH 19 0
BBX 19 17 0 2
BITMAP
3FFF80
3FFF80
3E01E0
3E01E0
3E01E0
3E01E0
3E01E0
FFFF80
FFFF80
3E0000
3E0000
3E0000
FFF000
FFF000
3E0000
3E0000
3E0000
ENDCHAR
STARTCHAR 2116
ENCODING 8470
SWIDTH 977 0
DWIDTH 19 0
BBX 17 17 0 2
BITMAP
F80E00
F80E00
C63180
C63180
C63180
C63180
C63180
C63180
C63180
C60E00
C60E00
C60E00
C60000
C60000
C63F80
C63F80
C63F80
ENDCHAR
STARTCHAR 2122
ENCODING 8482
SWIDTH 977 0
DWIDTH 19 0
BBX 15 9 2 10
BITMAP
FFFE
FFFE
18FE
18FE
18C6
18C6
18C6
18C6
18C6
ENDCHAR
STARTCHAR 2190
ENCODING 8592
SWIDTH 977 0
DWIDTH 19 0
BBX 19 17 0 2
BITMAP
01C000
01C000
07C000
07C000
3FFFE0
3FFFE0
3FFFE0
FFFFE0
FFFFE0
3FFFE0
3FFFE0
3FFFE0
07C000
07C000
01C000
01C000
01C000
ENDCHAR
STARTCHAR 2191
ENCODING 8593
SWIDTH 977 0
DWIDTH 19 0
BBX 17 19 0 0
BITMAP
01C000
01C000
07F000
07F000
3FFE00
3FFE00
3FFE00
FFFF80
FFFF80
07F000
07F000
07F000
07F000
07F000
07F000
07F000
07F000
07F000
07F000
ENDCHAR
STARTCHAR 2192
ENCODING 8594
SWIDTH 977 0
DWIDTH 19 0
BBX 19 17 0 2
BITMAP
003000
003000
003E00
003E00
FFFF80
FFFF80
FFFF80
FFFFE0
FFFFE0
FFFF80
FFFF80
FFFF80
003E00
003E00
003000
003000
003000
ENDCHAR
STARTCHAR 2193
ENCODING 8595
SWIDTH 977 0
DWIDTH 19 0
BBX 17 19 0 0
BITMAP
07F000
07F000
07F000
07F000
07F000
07F000
07F000
07F000
07F000
FFFF80
FFFF80
FFFF80
3FFE00
3FFE00
07F000
07F000
07F000
01C000
01C000
ENDCHAR
STARTCHAR 2202
ENCODING 8706
SWIDTH 977 0
DWIDTH 19 0
BBX 17 17 0 2
BITMAP
3FF000
3FF000
F83E00
F83E00
000F80
000F80
000F80
3FFF80
3FFF80
F80F80
F80F80
F80F80
F80F80
F80F80
3FFE00
3FFE00
3FFE00
ENDCHAR
STARTCHAR 2206
ENCODING 8710
SWIDTH 977 0
DWIDTH 19 0
BBX 17 17 0 2
BITMAP
07F000
07F000
3E3E00
3E3E00
F80F80
F80F80
F80F80
F80F80
F80F80
F80F80
F80F80
F80F80
F80F80
F80F80
FFFF80
FFFF80
FFFF80
ENDCHAR
STARTCHAR 220F
ENCODING 8719
SWIDTH 977 0
DWIDTH 19 0
BBX 17 17 0 2
BITMAP
FFFF80
FFFF80
F80F80
F80F80
F80F80
F80F80
F80F80
F80F80
F80F80
F80F80
F80F80
F80F80
F80F80
F80F80
F80F80
F80F80
F80F80
ENDCHAR
STARTCHAR 2211
ENCODING 8721
SWIDTH 977 0
DWIDTH 19 0
BBX 17 17 0 2
BITMAP
FFFF80
FFFF80
3E0F80
3E0F80
07C000
07C000
07C000
01FE00
01FE00
07C000
07C000
07C000
3E0F80
3E0F80
FFFF80
FFFF80
FFFF80
ENDCHAR
STARTCHAR 2215
ENCODING 8725
SWIDTH 977 0
DWIDTH 19 0
BBX 17 17 0 2
BITMAP
000180
000180
000E00
000E00
003000
003000
003000
01C000
01C000
060000
060000
060000
380000
380000
C00000
C00000
C00000
ENDCHAR
STARTCHAR 221A
ENCODING 8730
SWIDTH 977 0
DWIDTH 19 0
BBX 17 17 0 2
BITMAP
01FF80
01FF80
01F000
01F000
01F000
01F000
01F000
01F000
01F000
F9F000
F9F000
F9F000
3FF000
3FF000
07F000
07F000
07F000
ENDCHAR
STARTCHAR 221E
ENCODING 8734
SWIDTH 977 0
DWIDTH 19 0
BBX 17 10 0 5
BITMAP
3E3E00
3E3E00
3E3E00
C1C180
C1C180
C1C180
C1C180
C1C180
3E3E00
3E3E00
ENDCHAR
STARTCHAR 222B
ENCODING 8747
SWIDTH 977 0
DWIDTH 19 0
BBX 15 19 2 0
BITMAP
00F8
00F8
07C6
07C6
07C0
07C0
07C0
07C0
07C0
07C0
07C0
07C0
07C0
07C0
E7C0
E7C0
E7C0
1F00
1F00
ENDCHAR
STARTCHAR 2248
ENCODING 8776
SWIDTH 977 0
DWIDTH 19 0
BBX 15 12 0 5
BITMAP
3E0E
3E0E
C1F0
C1F0
C1F0
0000
0000
3E0E
3E0E
3E0E
C1F0
C1F0
ENDCHAR
STARTCHAR 2260
ENCODING 8800
SWIDTH 977 0
DWIDTH 19 0
BBX 17 17 0 2
BITMAP
000180
000180
000E00
000E00
FFFF80
FFFF80
FFFF80
01C000
01C000
FFFF80
FFFF80
FFFF80
380000
380000
C00000
C00000
C00000
ENDCHAR
STARTCHAR 2264
ENCODING 8804
SWIDTH 977 0
DWIDTH 19 0
BBX 10 17 5 2
BITMAP
07C0
07C0
3E00
3E00
F800
F800
F800
3E00
3E00
07C0
07C0
07C0
0000
0000
FFC0
FFC0
FFC0
ENDCHAR
STARTCHAR 2265
ENCODING 8805
SWIDTH 977 0
DWIDTH 19 0
BBX 10 17 5 2
BITMAP
F800
F800
3E00
3E00
07C0
07C0
07C0
3E00
3E00
F800
F800
F800
0000
0000
FFC0
FFC0
FFC0
ENDCHAR
STARTCHAR 25B2
ENCODING 9650
SWIDTH 977 0
DWIDTH 19 0
BBX 17 17 0 2
BITMAP
01C000
01C000
01C000
01C000
07F000
07F000
07F000
07F000
07F000
3FFE00
3FFE00
3FFE00
3FFE00
3FFE00
FFFF80
FFFF80
FFFF80
ENDCHAR
STARTCHAR 25B6
ENCODING 9654
SWIDTH 977 0
DWIDTH 19 0
BBX 17 17 0 2
BITMAP
C00000
C00000
FE0000
FE0000
FFF000
FFF000
FFF000
FFFF80
FFFF80
FFF000
FFF000
FFF000
FE0000
FE0000
C00000
C00000
C00000
ENDCHAR
STARTCHAR 25BC
ENCODING 9660
SWIDTH 977 0
DWIDTH 19 0
BBX 17 17 0 2
BITMAP
FFFF80
FFFF80
3FFE00
3FFE00
3FFE00
3FFE00
3FFE00
07F000
07F000
07F000
07F000
07F000
01C000
01C000
01C000
01C000
01C000
ENDCHAR
STARTCHAR 25C0
ENCODING 9664
SWIDTH 977 0
DWIDTH 19 0
BBX 17 17 0 2
BITMAP
000180
000180
003F80
003F80
07FF80
07FF80
07FF80
FFFF80
FFFF80
07FF80
07FF80
07FF80
003F80
003F80
000180
000180
000180
ENDCHAR
STARTCHAR 25CA
ENCODING 9674
SWIDTH 977 0
DWIDTH 19 0
BBX 17 17 0 2
BITMAP
01C000
01C000
063000
063000
380E00
380E00
380E00
C00180
C00180
380E00
380E00
380E00
063000
063000
01C000
01C000
01C000
ENDCHAR
STARTCHAR 2605
ENCODING 9733
SWIDTH 977 0
DWIDTH 19 0
BBX 17 17 0 2
BITMAP
01C000
01C000
01C000
01C000
FFFF80
FFFF80
FFFF80
3FFE00
3FFE00
07F000
07F000
07F000
3E3E00
3E3E00
380E00
380E00
380E00
ENDCHAR
STARTCHAR 2606
ENCODING 9734
SWIDTH 977 0
DWIDTH 19 0
BBX 17 17 0 2
BITMAP
01C000
01C000
01C000
01C000
FE3F80
FE3F80
FE3F80
380E00
380E00
063000
063000
063000
3FFE00
3FFE00
380E00
380E00
380E00
ENDCHAR
STARTCHAR 2660
ENCODING 9824
SWIDTH 977 0
DWIDTH 19 0
BBX 17 17 0 2
BITMAP
01C000
01C000
07F000
07F000
3FFE00
3FFE00
3FFE00
FFFF80
FFFF80
FFFF80
FFFF80
FFFF80
07F000
07F000
3FFE00
3FFE00
3FFE00
ENDCHAR
STARTCHAR 2663
ENCODING 9827
SWIDTH 977 0
DWIDTH 19 0
BBX 15 17 2 2
BITMAP
07C0
07C0
07C0
07C0
F83E
F83E
F83E
F83E
F83E
07C0
07C0
07C0
07C0
07C0
1FF8
1FF8
1FF8
ENDCHAR
STARTCHAR 2665
ENCODING 9829
SWIDTH 977 0
DWIDTH 19 0
BBX 17 17 0 2
BITMAP
3E3E00
3E3E00
FFFF80
FFFF80
FFFF80
FFFF80
FFFF80
FFFF80
FFFF80
3FFE00
3FFE00
3FFE00
07F000
07F000
01C000
01C000
01C000
ENDCHAR
STARTCHAR 2666
ENCODING 9830
SWIDTH 977 0
DWIDTH 19 0
BBX 17 17 0 2
BITMAP
01C000
01C000
07F000
07F000
3FFE00
3FFE00
3FFE00
FFFF80
FFFF80
3FFE00
3FFE00
3FFE00
07F000
07F000
01C000
01C000
01C000
ENDCHAR
STARTCHAR 266A
ENCODING 9834
SWIDTH 977 0
DWIDTH 19 0
BBX 17 17 0 2
BITMAP
01C000
01C000
01F000
01F000
01CE00
01CE00
01CE00
01C180
01C180
3FCE00
3FCE00
3FCE00
FFC000
FFC000
3E0000
3E0000
3E0000
ENDCHAR
STARTCHAR F100
ENCODING 61696
SWIDTH 977 0
DWIDTH 19 0
BBX 15 17 2 2
BITMAP
FFFE
FFFE
E006
E006
FFC6
FFC6
FFC6
F806
F806
FFFE
FFFE
FFFE
F8FE
F8FE
FFFE
FFFE
FFFE
ENDCHAR
STARTCHAR F101
ENCODING 61697
SWIDTH 977 0
DWIDTH 19 0
BBX 13 5 2 2
BITMAP
07F8
07F8
FFF8
FFF8
FFF8
ENDCHAR
STARTCHAR F8FF
ENCODING 63743
SWIDTH 977 0
DWIDTH 19 0
BBX 19 17 0 2
BITMAP
003000
003000
3FCF80
3FCF80
FFFE60
FFFE60
FFFE60
FFFE60
FFFE60
FFF1E0
FFF1E0
FFF1E0
3FFF80
3FFF80
063E00
063E00
063E00
ENDCHAR
STARTCHAR FB01
ENCODING 64257
SWIDTH 977 0
DWIDTH 19 0
BBX 17 17 0 2
BITMAP
07F000
07F000
3E0000
3E0000
FFFF80
FFFF80
FFFF80
3E0F80
3E0F80
3E0F80
3E0F80
3E0F80
3E0F80
3E0F80
3E0F80
3E0F80
3E0F80
ENDCHAR
STARTCHAR FB02
ENCODING 64258
SWIDTH 977 0
DWIDTH 19 0
BBX 17 17 0 2
BITMAP
07FF80
07FF80
3E0F80
3E0F80
FFFF80
FFFF80
FFFF80
3E0F80
3E0F80
3E0F80
3E0F80
3E0F80
3E0F80
3E0F80
3E0F80
3E0F80
3E0F80
ENDCHAR
ENDFONT
